<?xml version="1.0" encoding="UTF-8"?><svg id="Layer_2" xmlns="http://www.w3.org/2000/svg" viewBox="0 0 171.72 228.77"><defs><style>.cls-1{fill:#f9facb;}.cls-1,.cls-2,.cls-3,.cls-4{stroke-width:0px;}.cls-2{fill:#f80;}.cls-3{fill:#ffa200;}.cls-4{fill:#ffb100;}</style></defs><g id="Layer_1-2"><path class="cls-2" d="m47.22,37.6l-.74,79.26c-3.17.55-13.5,1.92-24.69-3.99-1.74-.92-10.53-5.73-16.49-16.21C-1.78,84.2-.11,72.09,1.03,67.01c.78-3.46,3.7-14.33,13.92-22.19,1.96-1.51,7.5-5.45,15.98-7.17,6.89-1.4,12.77-.72,16.29-.05Z"/><path class="cls-3" d="m46.91,43.08l-.64,68.27c-2.73.47-11.63,1.66-21.26-3.44-1.5-.79-9.07-4.94-14.2-13.96-6.1-10.73-4.66-21.16-3.68-25.54.67-2.98,3.18-12.34,11.99-19.11,1.69-1.3,6.46-4.7,13.76-6.17,5.94-1.2,11-.62,14.03-.04Z"/><path class="cls-1" d="m47.18,47.41l-.56,59.58c-2.38.41-10.15,1.45-18.56-3-1.31-.69-7.92-4.31-12.4-12.18-5.33-9.37-4.07-18.47-3.21-22.29.58-2.6,2.78-10.77,10.46-16.68,1.48-1.14,5.64-4.1,12.01-5.39,5.18-1.05,9.6-.54,12.24-.04Z"/><path class="cls-4" d="m44.49,75.99l-16.66-18.92s-1.56-1.08-2.85,0c-1.29,1.09-6.23,11.13-5.88,14.51.35,3.39,2.51,3.24,2.51,3.24l22.88,1.15Z"/><path class="cls-4" d="m45.66,74.48l.97-24.34s-.4-1.82-2.14-2.01c-1.74-.19-12.58,3.01-14.73,5.5-2.15,2.5-.43,3.93-.43,3.93l16.32,16.91Z"/><path class="cls-4" d="m44.33,77.15l-23.75-1.06s-1.72.38-1.71,2.05c.01,1.68,4.31,12.14,6.97,14.22,2.66,2.08,3.86.43,3.86.43l14.63-15.65Z"/><path class="cls-4" d="m45.98,79.6l-16.91,14.89s-.92,1.43.2,2.7c1.12,1.27,11.02,6.4,14.23,6.22,3.2-.17,2.92-2.23,2.92-2.23l-.44-21.58Z"/><path class="cls-2" d="m103.25,46.48l-77.93-.84c-.54-3.12-1.87-13.27,3.96-24.27.91-1.71,5.65-10.35,15.96-16.19C57.5-1.77,69.41-.1,74.4,1.03c3.4.77,14.08,3.66,21.8,13.72,1.48,1.93,5.35,7.39,7.03,15.72,1.36,6.78.69,12.56.02,16.01Z"/><path class="cls-3" d="m97.86,46.17l-67.12-.73c-.46-2.69-1.61-11.43,3.41-20.9.78-1.48,4.87-8.91,13.75-13.94,10.56-5.99,20.82-4.55,25.12-3.58,2.93.66,12.13,3.15,18.77,11.82,1.28,1.66,4.61,6.36,6.05,13.54,1.17,5.84.59,10.81.02,13.79Z"/><path class="cls-1" d="m93.6,46.43l-58.58-.64c-.4-2.35-1.41-9.98,2.98-18.24.68-1.29,4.25-7.78,12-12.17,9.22-5.22,18.17-3.97,21.92-3.13,2.56.58,10.59,2.75,16.38,10.31,1.11,1.45,4.02,5.55,5.28,11.82,1.02,5.1.52,9.44.02,12.04Z"/><path class="cls-4" d="m65.51,43.74l18.63-16.35s1.06-1.53,0-2.8c-1.07-1.27-10.93-6.14-14.26-5.8-3.33.34-3.19,2.46-3.19,2.46l-1.17,22.49Z"/><path class="cls-4" d="m66.99,44.9l23.93.99s1.79-.39,1.98-2.1c.19-1.71-2.94-12.37-5.39-14.49-2.45-2.12-3.86-.42-3.86-.42l-16.65,16.02Z"/><path class="cls-4" d="m64.36,43.59l1.07-23.35s-.37-1.69-2.02-1.69c-1.65,0-11.94,4.22-13.99,6.83-2.05,2.61-.43,3.8-.43,3.8l15.37,14.41Z"/><path class="cls-4" d="m61.95,45.2l-14.62-16.65s-1.4-.91-2.65.19c-1.25,1.1-6.31,10.83-6.14,13.98.17,3.15,2.18,2.88,2.18,2.88l21.22-.4Z"/><path class="cls-2" d="m124.5,116.89l.74-79.26c3.17-.55,13.5-1.92,24.69,3.99,1.74.92,10.53,5.73,16.49,16.21,7.09,12.46,5.41,24.57,4.27,29.65-.78,3.46-3.7,14.33-13.92,22.19-1.96,1.51-7.5,5.45-15.98,7.17-6.89,1.4-12.77.72-16.29.05Z"/><path class="cls-3" d="m124.81,111.41l.64-68.27c2.73-.47,11.63-1.66,21.26,3.44,1.5.79,9.07,4.94,14.2,13.96,6.1,10.73,4.66,21.16,3.68,25.54-.67,2.98-3.18,12.34-11.99,19.11-1.69,1.3-6.46,4.7-13.76,6.17-5.94,1.2-11,.62-14.03.04Z"/><path class="cls-1" d="m124.54,107.09l.56-59.58c2.38-.41,10.15-1.45,18.56,3,1.31.69,7.92,4.31,12.4,12.18,5.33,9.37,4.07,18.47,3.21,22.29-.58,2.6-2.78,10.77-10.46,16.68-1.48,1.14-5.64,4.1-12.01,5.39-5.18,1.05-9.6.54-12.24.04Z"/><path class="cls-4" d="m127.23,78.51l16.66,18.92s1.56,1.08,2.85,0c1.29-1.09,6.23-11.13,5.88-14.51-.35-3.39-2.51-3.24-2.51-3.24l-22.88-1.15Z"/><path class="cls-4" d="m126.06,80.01l-.97,24.34s.4,1.82,2.14,2.01c1.74.19,12.58-3.01,14.73-5.5,2.15-2.5.43-3.93.43-3.93l-16.32-16.91Z"/><path class="cls-4" d="m127.39,77.34l23.75,1.06s1.72-.38,1.71-2.05c-.01-1.68-4.31-12.14-6.97-14.22-2.66-2.08-3.86-.43-3.86-.43l-14.63,15.65Z"/><path class="cls-4" d="m125.74,74.89l16.91-14.89s.92-1.43-.2-2.7c-1.12-1.27-11.02-6.4-14.23-6.22-3.2.17-2.92,2.23-2.92,2.23l.44,21.58Z"/><path class="cls-2" d="m149.55,47.3l-77.93-.84c-.54-3.12-1.87-13.27,3.96-24.27.91-1.71,5.65-10.35,15.96-16.19C103.8-.95,115.71.72,120.7,1.85c3.4.77,14.08,3.66,21.8,13.72,1.48,1.93,5.35,7.39,7.03,15.72,1.36,6.78.69,12.56.02,16.01Z"/><path class="cls-3" d="m144.16,46.99l-67.12-.73c-.46-2.69-1.61-11.43,3.41-20.9.78-1.48,4.87-8.91,13.75-13.94,10.56-5.99,20.82-4.55,25.12-3.58,2.93.66,12.13,3.15,18.77,11.82,1.28,1.66,4.61,6.36,6.05,13.54,1.17,5.84.59,10.81.02,13.79Z"/><path class="cls-1" d="m139.91,47.25l-58.58-.64c-.4-2.35-1.41-9.98,2.98-18.24.68-1.29,4.25-7.78,12-12.17,9.22-5.22,18.17-3.97,21.92-3.13,2.56.58,10.59,2.75,16.38,10.31,1.11,1.45,4.02,5.55,5.28,11.82,1.02,5.1.52,9.44.02,12.04Z"/><path class="cls-4" d="m111.81,44.56l18.63-16.35s1.06-1.53,0-2.8c-1.07-1.27-10.93-6.14-14.26-5.8-3.33.34-3.19,2.46-3.19,2.46l-1.17,22.49Z"/><path class="cls-4" d="m113.29,45.71l23.93.99s1.79-.39,1.98-2.1c.19-1.71-2.94-12.37-5.39-14.49-2.45-2.12-3.86-.42-3.86-.42l-16.65,16.02Z"/><path class="cls-4" d="m110.67,44.41l1.07-23.35s-.37-1.69-2.02-1.69c-1.65,0-11.94,4.22-13.99,6.83-2.05,2.61-.43,3.8-.43,3.8l15.37,14.41Z"/><path class="cls-4" d="m108.25,46.02l-14.62-16.65s-1.4-.91-2.65.19c-1.25,1.1-6.31,10.83-6.14,13.98.17,3.15,2.18,2.88,2.18,2.88l21.22-.4Z"/><path class="cls-2" d="m124.5,171.2l.74-79.26c3.17-.55,13.5-1.92,24.69,3.99,1.74.92,10.53,5.73,16.49,16.21,7.09,12.46,5.41,24.57,4.27,29.65-.78,3.46-3.7,14.33-13.92,22.19-1.96,1.51-7.5,5.45-15.98,7.17-6.89,1.4-12.77.72-16.29.05Z"/><path class="cls-3" d="m124.81,165.71l.64-68.27c2.73-.47,11.63-1.66,21.26,3.44,1.5.79,9.07,4.94,14.2,13.96,6.1,10.73,4.66,21.16,3.68,25.54-.67,2.98-3.18,12.34-11.99,19.11-1.69,1.3-6.46,4.7-13.76,6.17-5.94,1.2-11,.62-14.03.04Z"/><path class="cls-1" d="m124.54,161.39l.56-59.58c2.38-.41,10.15-1.45,18.56,3,1.31.69,7.92,4.31,12.4,12.18,5.33,9.37,4.07,18.47,3.21,22.29-.58,2.6-2.78,10.77-10.46,16.68-1.48,1.14-5.64,4.1-12.01,5.39-5.18,1.05-9.6.54-12.24.04Z"/><path class="cls-4" d="m127.23,132.81l16.66,18.92s1.56,1.08,2.85,0c1.29-1.09,6.23-11.13,5.88-14.51-.35-3.39-2.51-3.24-2.51-3.24l-22.88-1.15Z"/><path class="cls-4" d="m126.06,134.32l-.97,24.34s.4,1.82,2.14,2.01c1.74.19,12.58-3.01,14.73-5.5,2.15-2.5.43-3.93.43-3.93l-16.32-16.91Z"/><path class="cls-4" d="m127.39,131.64l23.75,1.06s1.72-.38,1.71-2.05c-.01-1.68-4.31-12.14-6.97-14.22-2.66-2.08-3.86-.43-3.86-.43l-14.63,15.65Z"/><path class="cls-4" d="m125.74,129.19l16.91-14.89s.92-1.43-.2-2.7c-1.12-1.27-11.02-6.4-14.23-6.22-3.2.17-2.92,2.23-2.92,2.23l.44,21.58Z"/><path class="cls-2" d="m124.5,216.89l.74-79.26c3.17-.55,13.5-1.92,24.69,3.99,1.74.92,10.53,5.73,16.49,16.21,7.09,12.46,5.41,24.57,4.27,29.65-.78,3.46-3.7,14.33-13.92,22.19-1.96,1.51-7.5,5.45-15.98,7.17-6.89,1.4-12.77.72-16.29.05Z"/><path class="cls-3" d="m124.81,211.41l.64-68.27c2.73-.47,11.63-1.66,21.26,3.44,1.5.79,9.07,4.94,14.2,13.96,6.1,10.73,4.66,21.16,3.68,25.54-.67,2.98-3.18,12.34-11.99,19.11-1.69,1.3-6.46,4.7-13.76,6.17-5.94,1.2-11,.62-14.03.04Z"/><path class="cls-1" d="m124.54,207.08l.56-59.58c2.38-.41,10.15-1.45,18.56,3,1.31.69,7.92,4.31,12.4,12.18,5.33,9.37,4.07,18.47,3.21,22.29-.58,2.6-2.78,10.77-10.46,16.68-1.48,1.14-5.64,4.1-12.01,5.39-5.18,1.05-9.6.54-12.24.04Z"/><path class="cls-4" d="m127.23,178.51l16.66,18.92s1.56,1.08,2.85,0c1.29-1.09,6.23-11.13,5.88-14.51-.35-3.39-2.51-3.24-2.51-3.24l-22.88-1.15Z"/><path class="cls-4" d="m126.06,180.01l-.97,24.34s.4,1.82,2.14,2.01c1.74.19,12.58-3.01,14.73-5.5,2.15-2.5.43-3.93.43-3.93l-16.32-16.91Z"/><path class="cls-4" d="m127.39,177.34l23.75,1.06s1.72-.38,1.71-2.05c-.01-1.68-4.31-12.14-6.97-14.22-2.66-2.08-3.86-.43-3.86-.43l-14.63,15.65Z"/><path class="cls-4" d="m125.74,174.89l16.91-14.89s.92-1.43-.2-2.7c-1.12-1.27-11.02-6.4-14.23-6.22-3.2.17-2.92,2.23-2.92,2.23l.44,21.58Z"/><path class="cls-2" d="m72.98,182.28l77.93.84c.54,3.12,1.87,13.27-3.96,24.27-.91,1.71-5.65,10.35-15.96,16.19-12.26,6.95-24.17,5.28-29.16,4.16-3.4-.77-14.08-3.66-21.8-13.72-1.48-1.93-5.35-7.39-7.03-15.72-1.36-6.78-.69-12.56-.02-16.01Z"/><path class="cls-3" d="m78.37,182.6l67.12.73c.46,2.69,1.61,11.43-3.41,20.9-.78,1.48-4.87,8.91-13.75,13.94-10.56,5.99-20.82,4.55-25.12,3.58-2.93-.66-12.13-3.15-18.77-11.82-1.28-1.66-4.61-6.36-6.05-13.54-1.17-5.84-.59-10.81-.02-13.79Z"/><path class="cls-1" d="m82.63,182.34l58.58.64c.4,2.35,1.41,9.98-2.98,18.24-.68,1.29-4.25,7.78-12,12.17-9.22,5.22-18.17,3.97-21.92,3.13-2.56-.58-10.59-2.75-16.38-10.31-1.11-1.45-4.02-5.55-5.28-11.82-1.02-5.1-.52-9.44-.02-12.04Z"/><path class="cls-4" d="m110.72,185.02l-18.63,16.35s-1.06,1.53,0,2.8c1.07,1.27,10.93,6.14,14.26,5.8,3.33-.34,3.19-2.46,3.19-2.46l1.17-22.49Z"/><path class="cls-4" d="m109.24,183.87l-23.93-.99s-1.79.39-1.98,2.1c-.19,1.71,2.94,12.37,5.39,14.49,2.45,2.12,3.86.42,3.86.42l16.65-16.02Z"/><path class="cls-4" d="m111.87,185.18l-1.07,23.35s.37,1.69,2.02,1.69c1.65,0,11.94-4.22,13.99-6.83,2.05-2.61.43-3.8.43-3.8l-15.37-14.41Z"/><path class="cls-4" d="m114.28,183.57l14.62,16.65s1.4.91,2.65-.19c1.25-1.1,6.31-10.83,6.14-13.98-.17-3.15-2.18-2.88-2.18-2.88l-21.22.4Z"/><path class="cls-2" d="m26.68,181.46l77.93.84c.54,3.12,1.87,13.27-3.96,24.27-.91,1.71-5.65,10.35-15.96,16.19-12.26,6.95-24.17,5.28-29.16,4.16-3.4-.77-14.08-3.66-21.8-13.72-1.48-1.93-5.35-7.39-7.03-15.72-1.36-6.78-.69-12.56-.02-16.01Z"/><path class="cls-3" d="m32.07,181.78l67.12.73c.46,2.69,1.61,11.43-3.41,20.9-.78,1.48-4.87,8.91-13.75,13.94-10.56,5.99-20.82,4.55-25.12,3.58-2.93-.66-12.13-3.15-18.77-11.82-1.28-1.66-4.61-6.36-6.05-13.54-1.17-5.84-.59-10.81-.02-13.79Z"/><path class="cls-1" d="m36.32,181.52l58.58.64c.4,2.35,1.41,9.98-2.98,18.24-.68,1.29-4.25,7.78-12,12.17-9.22,5.22-18.17,3.97-21.92,3.13-2.56-.58-10.59-2.75-16.38-10.31-1.11-1.45-4.02-5.55-5.28-11.82-1.02-5.1-.52-9.44-.02-12.04Z"/><path class="cls-4" d="m64.42,184.21l-18.63,16.35s-1.06,1.53,0,2.8c1.07,1.27,10.93,6.14,14.26,5.8,3.33-.34,3.19-2.46,3.19-2.46l1.17-22.49Z"/><path class="cls-4" d="m62.94,183.05l-23.93-.99s-1.79.39-1.98,2.1c-.19,1.71,2.94,12.37,5.39,14.49,2.45,2.12,3.86.42,3.86.42l16.65-16.02Z"/><path class="cls-4" d="m65.56,184.36l-1.07,23.35s.37,1.69,2.02,1.69c1.65,0,11.94-4.22,13.99-6.83,2.05-2.61.43-3.8.43-3.8l-15.37-14.41Z"/><path class="cls-4" d="m67.98,182.75l14.62,16.65s1.4.91,2.65-.19c1.25-1.1,6.31-10.83,6.14-13.98-.17-3.15-2.18-2.88-2.18-2.88l-21.22.4Z"/><path class="cls-2" d="m47.22,83.3l-.74,79.26c-3.17.55-13.5,1.92-24.69-3.99-1.74-.92-10.53-5.73-16.49-16.21C-1.78,129.9-.11,117.79,1.03,112.71c.78-3.46,3.7-14.33,13.92-22.19,1.96-1.51,7.5-5.45,15.98-7.17,6.89-1.4,12.77-.72,16.29-.05Z"/><path class="cls-3" d="m46.91,88.78l-.64,68.27c-2.73.47-11.63,1.66-21.26-3.44-1.5-.79-9.07-4.94-14.2-13.96-6.1-10.73-4.66-21.16-3.68-25.54.67-2.98,3.18-12.34,11.99-19.11,1.69-1.3,6.46-4.7,13.76-6.17,5.94-1.2,11-.62,14.03-.04Z"/><path class="cls-1" d="m47.18,93.11l-.56,59.58c-2.38.41-10.15,1.45-18.56-3-1.31-.69-7.92-4.31-12.4-12.18-5.33-9.37-4.07-18.47-3.21-22.29.58-2.6,2.78-10.77,10.46-16.68,1.48-1.14,5.64-4.1,12.01-5.39,5.18-1.05,9.6-.54,12.24-.04Z"/><path class="cls-4" d="m44.49,121.68l-16.66-18.92s-1.56-1.08-2.85,0c-1.29,1.09-6.23,11.13-5.88,14.51.35,3.39,2.51,3.24,2.51,3.24l22.88,1.15Z"/><path class="cls-4" d="m45.66,120.18l.97-24.34s-.4-1.82-2.14-2.01c-1.74-.19-12.58,3.01-14.73,5.5-2.15,2.5-.43,3.93-.43,3.93l16.32,16.91Z"/><path class="cls-4" d="m44.33,122.85l-23.75-1.06s-1.72.38-1.71,2.05c.01,1.68,4.31,12.14,6.97,14.22,2.66,2.08,3.86.43,3.86.43l14.63-15.65Z"/><path class="cls-4" d="m45.98,125.3l-16.91,14.89s-.92,1.43.2,2.7c1.12,1.27,11.02,6.4,14.23,6.22,3.2-.17,2.92-2.23,2.92-2.23l-.44-21.58Z"/><path class="cls-2" d="m47.22,137.6l-.74,79.26c-3.17.55-13.5,1.92-24.69-3.99-1.74-.92-10.53-5.73-16.49-16.21-7.09-12.46-5.41-24.57-4.27-29.65.78-3.46,3.7-14.33,13.92-22.19,1.96-1.51,7.5-5.45,15.98-7.17,6.89-1.4,12.77-.72,16.29-.05Z"/><path class="cls-3" d="m46.91,143.08l-.64,68.27c-2.73.47-11.63,1.66-21.26-3.44-1.5-.79-9.07-4.94-14.2-13.96-6.1-10.73-4.66-21.16-3.68-25.54.67-2.98,3.18-12.34,11.99-19.11,1.69-1.3,6.46-4.7,13.76-6.17,5.94-1.2,11-.62,14.03-.04Z"/><path class="cls-1" d="m47.18,147.41l-.56,59.58c-2.38.41-10.15,1.45-18.56-3-1.31-.69-7.92-4.31-12.4-12.18-5.33-9.37-4.07-18.47-3.21-22.29.58-2.6,2.78-10.77,10.46-16.68,1.48-1.14,5.64-4.1,12.01-5.39,5.18-1.05,9.6-.54,12.24-.04Z"/><path class="cls-4" d="m44.49,175.98l-16.66-18.92s-1.56-1.08-2.85,0c-1.29,1.09-6.23,11.13-5.88,14.51.35,3.39,2.51,3.24,2.51,3.24l22.88,1.15Z"/><path class="cls-4" d="m45.66,174.48l.97-24.34s-.4-1.82-2.14-2.01c-1.74-.19-12.58,3.01-14.73,5.5-2.15,2.5-.43,3.93-.43,3.93l16.32,16.91Z"/><path class="cls-4" d="m44.33,177.15l-23.75-1.06s-1.72.38-1.71,2.05c.01,1.68,4.31,12.14,6.97,14.22,2.66,2.08,3.86.43,3.86.43l14.63-15.65Z"/><path class="cls-4" d="m45.98,179.6l-16.91,14.89s-.92,1.43.2,2.7c1.12,1.27,11.02,6.4,14.23,6.22,3.2-.17,2.92-2.23,2.92-2.23l-.44-21.58Z"/></g></svg>