<?xml version="1.0" encoding="UTF-8"?><svg id="Layer_2" xmlns="http://www.w3.org/2000/svg" viewBox="0 0 49.44 216.81"><defs><style>.cls-1{fill:#f9facb;}.cls-1,.cls-2,.cls-3,.cls-4{stroke-width:0px;}.cls-2{fill:#f80;}.cls-3{fill:#ffa200;}.cls-4{fill:#ffb100;}</style></defs><g id="Layer_1-2"><path class="cls-2" d="m1.59,79.94L0,.74C3.15.1,13.43-1.57,24.78,4c1.77.87,10.69,5.42,16.95,15.71,7.45,12.24,6.13,24.39,5.14,29.5-.67,3.48-3.27,14.42-13.25,22.58-1.92,1.57-7.34,5.67-15.75,7.63-6.85,1.6-12.73,1.1-16.27.53Z"/><path class="cls-3" d="m1.75,74.46L.37,6.25c2.72-.55,11.56-2,21.34,2.81,1.52.75,9.21,4.67,14.6,13.53,6.41,10.54,5.28,21,4.43,25.4-.58,3-2.82,12.42-11.41,19.44-1.65,1.35-6.32,4.88-13.57,6.57-5.9,1.38-10.97.94-14.01.45Z"/><path class="cls-1" d="m1.35,70.14L.15,10.61c2.37-.48,10.09-1.74,18.62,2.45,1.33.65,8.04,4.07,12.74,11.81,5.6,9.2,4.61,18.33,3.86,22.17-.51,2.62-2.46,10.84-9.96,16.97-1.44,1.18-5.51,4.26-11.84,5.74-5.15,1.2-9.57.82-12.23.4Z"/><path class="cls-4" d="m3.19,41.52l17.2,18.41s1.59,1.03,2.85-.09c1.26-1.12,5.89-11.3,5.45-14.67-.45-3.37-2.6-3.17-2.6-3.17l-22.89-.48Z"/><path class="cls-4" d="m2.07,43.06l-.25,24.34s.45,1.81,2.2,1.94c1.74.13,12.48-3.37,14.55-5.93,2.07-2.56.31-3.94.31-3.94L2.07,43.06Z"/><path class="cls-4" d="m3.31,40.35l23.76.36s1.71-.43,1.65-2.1c-.06-1.67-4.66-12-7.38-14-2.72-2-3.87-.32-3.87-.32L3.31,40.35Z"/><path class="cls-4" d="m1.6,37.95l16.46-15.37s.88-1.45-.28-2.69c-1.16-1.23-11.2-6.07-14.39-5.8-3.2.27-2.85,2.31-2.85,2.31l1.07,21.55Z"/><path class="cls-2" d="m1.59,105.76L0,26.56c3.15-.64,13.43-2.32,24.78,3.26,1.77.87,10.69,5.42,16.95,15.71,7.45,12.24,6.13,24.39,5.14,29.5-.67,3.48-3.27,14.42-13.25,22.58-1.92,1.57-7.34,5.67-15.75,7.63-6.85,1.6-12.73,1.1-16.27.53Z"/><path class="cls-3" d="m1.75,100.28L.37,32.07c2.72-.55,11.56-2,21.34,2.81,1.52.75,9.21,4.67,14.6,13.53,6.41,10.54,5.28,21,4.43,25.4-.58,3-2.82,12.42-11.41,19.44-1.65,1.35-6.32,4.88-13.57,6.57-5.9,1.38-10.97.94-14.01.45Z"/><path class="cls-1" d="m1.35,95.96L.15,36.43c2.37-.48,10.09-1.74,18.62,2.45,1.33.65,8.04,4.07,12.74,11.81,5.6,9.2,4.61,18.33,3.86,22.17-.51,2.62-2.46,10.84-9.96,16.97-1.44,1.18-5.51,4.26-11.84,5.74-5.15,1.2-9.57.82-12.23.4Z"/><path class="cls-4" d="m3.19,67.34l17.2,18.41s1.59,1.03,2.85-.09c1.26-1.12,5.89-11.3,5.45-14.67-.45-3.37-2.6-3.17-2.6-3.17l-22.89-.48Z"/><path class="cls-4" d="m2.07,68.87l-.25,24.34s.45,1.81,2.2,1.94c1.74.13,12.48-3.37,14.55-5.93,2.07-2.56.31-3.94.31-3.94L2.07,68.87Z"/><path class="cls-4" d="m3.31,66.17l23.76.36s1.71-.43,1.65-2.1c-.06-1.67-4.66-12-7.38-14-2.72-2-3.87-.32-3.87-.32l-14.16,16.07Z"/><path class="cls-4" d="m1.6,63.76l16.46-15.37s.88-1.45-.28-2.69c-1.16-1.23-11.2-6.07-14.39-5.8-3.2.27-2.85,2.31-2.85,2.31l1.07,21.55Z"/><path class="cls-2" d="m2.86,141.53L1.26,62.33c3.15-.64,13.43-2.32,24.78,3.26,1.77.87,10.69,5.42,16.95,15.71,7.45,12.24,6.13,24.39,5.14,29.5-.67,3.48-3.27,14.42-13.25,22.58-1.92,1.57-7.34,5.67-15.75,7.63-6.85,1.6-12.73,1.1-16.27.53Z"/><path class="cls-3" d="m3.01,136.05l-1.37-68.21c2.72-.55,11.56-2,21.34,2.81,1.52.75,9.21,4.67,14.6,13.53,6.41,10.54,5.28,21,4.43,25.4-.58,3-2.82,12.42-11.41,19.44-1.65,1.35-6.32,4.88-13.57,6.57-5.9,1.38-10.97.94-14.01.45Z"/><path class="cls-1" d="m2.61,131.73l-1.2-59.53c2.37-.48,10.09-1.74,18.62,2.45,1.33.65,8.04,4.07,12.74,11.81,5.6,9.2,4.61,18.33,3.86,22.17-.51,2.62-2.46,10.84-9.96,16.97-1.44,1.18-5.51,4.26-11.84,5.74-5.15,1.2-9.57.82-12.23.4Z"/><path class="cls-4" d="m4.46,103.11l17.2,18.41s1.59,1.03,2.85-.09c1.26-1.12,5.89-11.3,5.45-14.67-.45-3.37-2.6-3.17-2.6-3.17l-22.89-.48Z"/><path class="cls-4" d="m3.33,104.65l-.25,24.34s.45,1.81,2.2,1.94c1.74.13,12.48-3.37,14.55-5.93,2.07-2.56.31-3.94.31-3.94L3.33,104.65Z"/><path class="cls-4" d="m4.58,101.94l23.76.36s1.71-.43,1.65-2.1c-.06-1.67-4.66-12-7.38-14-2.72-2-3.87-.32-3.87-.32l-14.16,16.07Z"/><path class="cls-4" d="m2.86,99.54l16.46-15.37s.88-1.45-.28-2.69c-1.16-1.23-11.2-6.07-14.39-5.8-3.2.27-2.85,2.31-2.85,2.31l1.07,21.55Z"/><path class="cls-2" d="m2.91,174.54l-1.59-79.2c3.15-.64,13.43-2.32,24.78,3.26,1.77.87,10.69,5.42,16.95,15.71,7.45,12.24,6.13,24.39,5.14,29.5-.67,3.48-3.27,14.42-13.25,22.58-1.92,1.57-7.34,5.67-15.75,7.63-6.85,1.6-12.73,1.1-16.27.53Z"/><path class="cls-3" d="m3.06,169.06l-1.37-68.21c2.72-.55,11.56-2,21.34,2.81,1.52.75,9.21,4.67,14.6,13.53,6.41,10.54,5.28,21,4.43,25.4-.58,3-2.82,12.42-11.41,19.44-1.65,1.35-6.32,4.88-13.57,6.57-5.9,1.38-10.97.94-14.01.45Z"/><path class="cls-1" d="m2.67,164.75l-1.2-59.53c2.37-.48,10.09-1.74,18.62,2.45,1.33.65,8.04,4.07,12.74,11.81,5.6,9.2,4.61,18.33,3.86,22.17-.51,2.62-2.46,10.84-9.96,16.97-1.44,1.18-5.51,4.26-11.84,5.74-5.15,1.2-9.57.82-12.23.4Z"/><path class="cls-4" d="m4.51,136.12l17.2,18.41s1.59,1.03,2.85-.09c1.26-1.12,5.89-11.3,5.45-14.67-.45-3.37-2.6-3.17-2.6-3.17l-22.89-.48Z"/><path class="cls-4" d="m3.39,137.66l-.25,24.34s.45,1.81,2.2,1.94c1.74.13,12.48-3.37,14.55-5.93,2.07-2.56.31-3.94.31-3.94l-16.8-16.41Z"/><path class="cls-4" d="m4.63,134.95l23.76.36s1.71-.43,1.65-2.1c-.06-1.67-4.66-12-7.38-14-2.72-2-3.87-.32-3.87-.32l-14.16,16.07Z"/><path class="cls-4" d="m2.92,132.55l16.46-15.37s.88-1.45-.28-2.69c-1.16-1.23-11.2-6.07-14.39-5.8-3.2.27-2.85,2.31-2.85,2.31l1.07,21.55Z"/><path class="cls-2" d="m2.22,216.04l.74-79.26c3.17-.55,13.5-1.92,24.69,3.99,1.74.92,10.53,5.73,16.49,16.21,7.09,12.46,5.41,24.57,4.27,29.65-.78,3.46-3.7,14.33-13.92,22.19-1.96,1.51-7.5,5.45-15.98,7.17-6.89,1.4-12.77.72-16.29.05Z"/><path class="cls-3" d="m2.53,210.56l.64-68.27c2.73-.47,11.63-1.66,21.26,3.44,1.5.79,9.07,4.94,14.2,13.96,6.1,10.73,4.66,21.16,3.68,25.54-.67,2.98-3.18,12.34-11.99,19.11-1.69,1.3-6.46,4.7-13.76,6.17-5.94,1.2-11,.62-14.03.04Z"/><path class="cls-1" d="m2.26,206.23l.56-59.58c2.38-.41,10.15-1.45,18.56,3,1.31.69,7.92,4.31,12.4,12.18,5.33,9.37,4.07,18.47,3.21,22.29-.58,2.6-2.78,10.77-10.46,16.68-1.48,1.14-5.64,4.1-12.01,5.39-5.18,1.05-9.6.54-12.24.04Z"/><path class="cls-4" d="m4.95,177.65l16.66,18.92s1.56,1.08,2.85,0c1.29-1.09,6.23-11.13,5.88-14.51-.35-3.39-2.51-3.24-2.51-3.24l-22.88-1.15Z"/><path class="cls-4" d="m3.78,179.16l-.97,24.34s.4,1.82,2.14,2.01c1.74.19,12.58-3.01,14.73-5.5,2.15-2.5.43-3.93.43-3.93l-16.32-16.91Z"/><path class="cls-4" d="m5.11,176.49l23.75,1.06s1.72-.38,1.71-2.05c-.01-1.68-4.31-12.14-6.97-14.22-2.66-2.08-3.86-.43-3.86-.43l-14.63,15.65Z"/><path class="cls-4" d="m3.47,174.03l16.91-14.89s.92-1.43-.2-2.7c-1.12-1.27-11.02-6.4-14.23-6.22-3.2.17-2.92,2.23-2.92,2.23l.44,21.58Z"/></g></svg>