<?xml version="1.0" encoding="UTF-8"?><svg id="Layer_2" xmlns="http://www.w3.org/2000/svg" viewBox="0 0 178.85 229.83"><defs><style>.cls-1{fill:#f9facb;}.cls-1,.cls-2,.cls-3,.cls-4{stroke-width:0px;}.cls-2{fill:#f80;}.cls-3{fill:#ffa200;}.cls-4{fill:#ffb100;}</style></defs><g id="Layer_1-2"><path class="cls-2" d="m132.8,112.92l-1.59-79.2c3.15-.64,13.43-2.32,24.78,3.26,1.77.87,10.69,5.42,16.95,15.71,7.45,12.24,6.13,24.39,5.14,29.5-.67,3.48-3.27,14.42-13.25,22.58-1.92,1.57-7.34,5.67-15.75,7.63-6.85,1.6-12.73,1.1-16.27.53Z"/><path class="cls-3" d="m132.96,107.43l-1.37-68.21c2.72-.55,11.56-2,21.34,2.81,1.52.75,9.21,4.67,14.6,13.53,6.41,10.54,5.28,21,4.43,25.4-.58,3-2.82,12.42-11.41,19.44-1.65,1.35-6.32,4.88-13.57,6.57-5.9,1.38-10.97.94-14.01.45Z"/><path class="cls-1" d="m132.56,103.12l-1.2-59.53c2.37-.48,10.09-1.74,18.62,2.45,1.33.65,8.04,4.07,12.74,11.81,5.6,9.2,4.61,18.33,3.86,22.17-.51,2.62-2.46,10.84-9.96,16.97-1.44,1.18-5.51,4.26-11.84,5.74-5.15,1.2-9.57.82-12.23.4Z"/><path class="cls-4" d="m134.4,74.49l17.2,18.41s1.59,1.03,2.85-.09c1.26-1.12,5.89-11.3,5.45-14.67-.45-3.37-2.6-3.17-2.6-3.17l-22.89-.48Z"/><path class="cls-4" d="m133.28,76.03l-.25,24.34s.45,1.81,2.2,1.94c1.74.13,12.48-3.37,14.55-5.93,2.07-2.56.31-3.94.31-3.94l-16.8-16.41Z"/><path class="cls-4" d="m134.52,73.32l23.76.36s1.71-.43,1.65-2.1c-.06-1.67-4.66-12-7.38-14-2.72-2-3.87-.32-3.87-.32l-14.16,16.07Z"/><path class="cls-4" d="m132.81,70.92l16.46-15.37s.88-1.45-.28-2.69c-1.16-1.23-11.2-6.07-14.39-5.8-3.2.27-2.85,2.31-2.85,2.31l1.07,21.55Z"/><path class="cls-2" d="m85.8,47.49l-80.53,2.58c-.69-3.2-2.52-13.63,3.02-25.24.86-1.81,5.38-10.94,15.77-17.43C36.41-.31,48.79.88,53.99,1.82c3.55.64,14.71,3.15,23.12,13.2,1.62,1.93,5.85,7.39,7.95,15.93,1.71,6.94,1.27,12.94.73,16.54Z"/><path class="cls-3" d="m80.22,47.4l-69.35,2.22c-.6-2.75-2.17-11.74,2.6-21.74.74-1.56,4.63-9.42,13.58-15.01,10.64-6.65,21.3-5.62,25.78-4.81,3.06.55,12.67,2.71,19.91,11.37,1.39,1.66,5.04,6.37,6.85,13.72,1.47,5.98,1.09,11.14.63,14.24Z"/><path class="cls-1" d="m75.84,47.86l-60.53,1.94c-.52-2.4-1.89-10.24,2.27-18.97.65-1.36,4.04-8.22,11.85-13.1,9.29-5.8,18.59-4.91,22.5-4.2,2.67.48,11.05,2.37,17.38,9.92,1.21,1.45,4.4,5.56,5.98,11.97,1.28,5.22.95,9.72.55,12.43Z"/><path class="cls-4" d="m46.7,46.33l18.51-17.71s1.03-1.63-.13-2.89c-1.16-1.26-11.56-5.86-14.99-5.36-3.42.5-3.19,2.69-3.19,2.69l-.21,23.28Z"/><path class="cls-4" d="m48.28,47.46l24.76-.04s1.83-.48,1.95-2.26c.12-1.77-3.58-12.65-6.21-14.72-2.63-2.08-4.01-.27-4.01-.27l-16.49,17.29Z"/><path class="cls-4" d="m45.51,46.22l.07-24.17s-.46-1.73-2.16-1.65c-1.7.08-12.15,4.88-14.15,7.68-2,2.79-.27,3.94-.27,3.94l16.51,14.2Z"/><path class="cls-4" d="m43.09,47.99l-15.83-16.55s-1.49-.88-2.73.32c-1.24,1.19-6.03,11.46-5.72,14.71.31,3.25,2.38,2.88,2.38,2.88l21.9-1.35Z"/><path class="cls-2" d="m125.58,46.36l-80.53,2.58c-.69-3.2-2.52-13.63,3.02-25.24.86-1.81,5.38-10.94,15.77-17.43C76.19-1.45,88.56-.25,93.77.69c3.55.64,14.71,3.15,23.12,13.2,1.62,1.93,5.85,7.39,7.95,15.93,1.71,6.94,1.27,12.94.73,16.54Z"/><path class="cls-3" d="m120,46.27l-69.35,2.22c-.6-2.75-2.17-11.74,2.6-21.74.74-1.56,4.63-9.42,13.58-15.01,10.64-6.65,21.3-5.62,25.78-4.81,3.06.55,12.67,2.71,19.91,11.37,1.39,1.66,5.04,6.37,6.85,13.72,1.47,5.98,1.09,11.14.63,14.24Z"/><path class="cls-1" d="m115.61,46.73l-60.53,1.94c-.52-2.4-1.89-10.24,2.27-18.97.65-1.36,4.04-8.22,11.85-13.1,9.29-5.8,18.59-4.91,22.5-4.2,2.67.48,11.05,2.37,17.38,9.92,1.21,1.45,4.4,5.56,5.98,11.97,1.28,5.22.95,9.72.55,12.43Z"/><path class="cls-4" d="m86.48,45.2l18.51-17.71s1.03-1.63-.13-2.89c-1.16-1.26-11.56-5.86-14.99-5.36-3.42.5-3.19,2.69-3.19,2.69l-.21,23.28Z"/><path class="cls-4" d="m88.06,46.33l24.76-.04s1.83-.48,1.95-2.26c.12-1.77-3.58-12.65-6.21-14.72-2.63-2.08-4.01-.27-4.01-.27l-16.49,17.29Z"/><path class="cls-4" d="m85.29,45.09l.07-24.17s-.46-1.73-2.16-1.65c-1.7.08-12.15,4.88-14.15,7.68-2,2.79-.27,3.94-.27,3.94l16.51,14.2Z"/><path class="cls-4" d="m82.87,46.86l-15.83-16.55s-1.49-.88-2.73.32c-1.24,1.19-6.03,11.46-5.72,14.71.31,3.25,2.38,2.88,2.38,2.88l21.9-1.35Z"/><path class="cls-2" d="m169.39,48.11l-79.26-.86c-.55-3.17-1.9-13.5,4.03-24.68.92-1.74,5.75-10.52,16.23-16.47,12.47-7.07,24.58-5.38,29.66-4.23,3.46.78,14.32,3.72,22.17,13.95,1.51,1.97,5.44,7.51,7.15,15.99,1.39,6.9.7,12.77.02,16.29Z"/><path class="cls-3" d="m163.91,47.79l-68.26-.74c-.47-2.73-1.64-11.63,3.47-21.26.8-1.5,4.95-9.06,13.98-14.18,10.74-6.09,21.17-4.63,25.54-3.64,2.98.67,12.34,3.2,19.09,12.02,1.3,1.69,4.69,6.47,6.15,13.77,1.19,5.94.6,11,.02,14.03Z"/><path class="cls-1" d="m159.58,48.05l-59.58-.65c-.41-2.39-1.43-10.15,3.03-18.55.7-1.31,4.32-7.91,12.2-12.38,9.38-5.31,18.48-4.04,22.29-3.18,2.6.59,10.77,2.8,16.66,10.49,1.13,1.48,4.09,5.65,5.37,12.02,1.04,5.18.53,9.6.02,12.24Z"/><path class="cls-4" d="m131.01,45.32l18.94-16.63s1.08-1.56,0-2.85c-1.09-1.29-11.12-6.24-14.51-5.9-3.39.34-3.25,2.51-3.25,2.51l-1.19,22.88Z"/><path class="cls-4" d="m132.51,46.49l24.34,1.01s1.82-.4,2.01-2.14c.19-1.74-2.99-12.58-5.48-14.73-2.49-2.15-3.93-.43-3.93-.43l-16.93,16.3Z"/><path class="cls-4" d="m129.85,45.16l1.09-23.75s-.38-1.72-2.05-1.72c-1.68,0-12.15,4.29-14.23,6.95-2.09,2.66-.44,3.86-.44,3.86l15.63,14.66Z"/><path class="cls-4" d="m127.39,46.8l-14.86-16.94s-1.43-.93-2.7.2c-1.27,1.12-6.41,11.01-6.24,14.22.17,3.2,2.22,2.93,2.22,2.93l21.58-.4Z"/><path class="cls-2" d="m47.53,93.05l-.86,79.26c-3.17.55-13.5,1.9-24.68-4.03-1.74-.92-10.52-5.75-16.47-16.23C-1.54,139.58.15,127.47,1.3,122.39c.78-3.46,3.72-14.32,13.95-22.17,1.97-1.51,7.51-5.44,15.99-7.15,6.9-1.39,12.77-.7,16.29-.02Z"/><path class="cls-3" d="m47.21,98.53l-.74,68.26c-2.73.47-11.63,1.64-21.26-3.47-1.5-.8-9.06-4.95-14.18-13.98-6.09-10.74-4.63-21.17-3.64-25.54.67-2.98,3.2-12.34,12.02-19.09,1.69-1.3,6.47-4.69,13.77-6.15,5.94-1.19,11-.6,14.03-.02Z"/><path class="cls-1" d="m47.48,102.86l-.65,59.58c-2.39.41-10.15,1.43-18.55-3.03-1.31-.7-7.91-4.32-12.38-12.2-5.31-9.38-4.04-18.48-3.18-22.29.59-2.6,2.8-10.77,10.49-16.66,1.48-1.13,5.65-4.09,12.02-5.37,5.18-1.04,9.6-.53,12.24-.02Z"/><path class="cls-4" d="m44.74,131.43l-16.63-18.94s-1.56-1.08-2.85,0c-1.29,1.09-6.24,11.12-5.9,14.51.34,3.39,2.51,3.25,2.51,3.25l22.88,1.19Z"/><path class="cls-4" d="m45.92,129.93l1.01-24.34s-.4-1.82-2.14-2.01c-1.74-.19-12.58,2.99-14.73,5.48-2.15,2.49-.43,3.93-.43,3.93l16.3,16.93Z"/><path class="cls-4" d="m44.59,132.6l-23.75-1.09s-1.72.38-1.72,2.05c0,1.68,4.29,12.15,6.95,14.23,2.66,2.09,3.86.44,3.86.44l14.66-15.63Z"/><path class="cls-4" d="m46.23,135.06l-16.94,14.86s-.93,1.43.2,2.7c1.12,1.27,11.01,6.41,14.22,6.24,3.2-.17,2.93-2.22,2.93-2.22l-.4-21.58Z"/><path class="cls-2" d="m47.28,143.49l-.86,79.26c-3.17.55-13.5,1.9-24.68-4.03-1.74-.92-10.52-5.75-16.47-16.23-7.07-12.47-5.38-24.58-4.23-29.66.78-3.46,3.72-14.32,13.95-22.17,1.97-1.51,7.51-5.44,15.99-7.15,6.9-1.39,12.77-.7,16.29-.02Z"/><path class="cls-3" d="m46.96,148.97l-.74,68.26c-2.73.47-11.63,1.64-21.26-3.47-1.5-.8-9.06-4.95-14.18-13.98-6.09-10.74-4.63-21.17-3.64-25.54.67-2.98,3.2-12.34,12.02-19.09,1.69-1.3,6.47-4.69,13.77-6.15,5.94-1.19,11-.6,14.03-.02Z"/><path class="cls-1" d="m47.22,153.3l-.65,59.58c-2.39.41-10.15,1.43-18.55-3.03-1.31-.7-7.91-4.32-12.38-12.2-5.31-9.38-4.04-18.48-3.18-22.29.59-2.6,2.8-10.77,10.49-16.66,1.48-1.13,5.65-4.09,12.02-5.37,5.18-1.04,9.6-.53,12.24-.02Z"/><path class="cls-4" d="m44.49,181.87l-16.63-18.94s-1.56-1.08-2.85,0c-1.29,1.09-6.24,11.12-5.9,14.51.34,3.39,2.51,3.25,2.51,3.25l22.88,1.19Z"/><path class="cls-4" d="m45.66,180.37l1.01-24.34s-.4-1.82-2.14-2.01c-1.74-.19-12.58,2.99-14.73,5.48-2.15,2.49-.43,3.93-.43,3.93l16.3,16.93Z"/><path class="cls-4" d="m44.33,183.03l-23.75-1.09s-1.72.38-1.72,2.05c0,1.68,4.29,12.15,6.95,14.23,2.66,2.09,3.86.44,3.86.44l14.66-15.63Z"/><path class="cls-4" d="m45.97,185.49l-16.94,14.86s-.93,1.43.2,2.7c1.12,1.27,11.01,6.41,14.22,6.24,3.2-.17,2.93-2.22,2.93-2.22l-.4-21.58Z"/><path class="cls-2" d="m18.1,182.99l77.93.73c.54,3.12,1.89,13.27-3.93,24.27-.91,1.72-5.64,10.36-15.94,16.21-12.25,6.97-24.16,5.32-29.16,4.2-3.41-.76-14.09-3.64-21.82-13.69-1.48-1.93-5.36-7.38-7.05-15.71-1.37-6.78-.71-12.55-.05-16.01Z"/><path class="cls-3" d="m23.49,183.3l67.12.63c.47,2.69,1.63,11.43-3.38,20.9-.78,1.48-4.86,8.92-13.73,13.96-10.55,6-20.81,4.58-25.11,3.62-2.93-.66-12.13-3.13-18.79-11.79-1.28-1.66-4.62-6.35-6.07-13.53-1.18-5.84-.61-10.81-.04-13.79Z"/><path class="cls-1" d="m27.74,183.03l58.58.55c.41,2.34,1.42,9.98-2.95,18.24-.68,1.29-4.24,7.78-11.98,12.19-9.21,5.24-18.16,4-21.92,3.16-2.56-.57-10.59-2.73-16.4-10.29-1.12-1.45-4.03-5.55-5.3-11.81-1.03-5.1-.53-9.44-.04-12.04Z"/><path class="cls-4" d="m55.84,185.68l-18.6,16.38s-1.06,1.53,0,2.8c1.07,1.27,10.94,6.12,14.27,5.78,3.33-.34,3.19-2.47,3.19-2.47l1.13-22.49Z"/><path class="cls-4" d="m54.36,184.53l-23.93-.96s-1.79.4-1.97,2.11c-.18,1.71,2.96,12.37,5.41,14.48,2.46,2.11,3.86.42,3.86.42l16.63-16.05Z"/><path class="cls-4" d="m56.99,185.83l-1.04,23.35s.37,1.69,2.02,1.68c1.65-.01,11.94-4.23,13.98-6.85,2.05-2.62.42-3.8.42-3.8l-15.39-14.39Z"/><path class="cls-4" d="m59.4,184.21l14.64,16.63s1.4.91,2.65-.2c1.25-1.1,6.29-10.84,6.12-13.99-.17-3.15-2.19-2.87-2.19-2.87l-21.22.43Z"/><path class="cls-2" d="m45.87,183.4l77.93.73c.54,3.12,1.89,13.27-3.93,24.27-.91,1.72-5.64,10.36-15.94,16.21-12.25,6.97-24.16,5.32-29.16,4.2-3.41-.76-14.09-3.64-21.82-13.69-1.48-1.93-5.36-7.38-7.05-15.71-1.37-6.78-.71-12.55-.05-16.01Z"/><path class="cls-3" d="m51.26,183.71l67.12.63c.47,2.69,1.63,11.43-3.38,20.9-.78,1.48-4.86,8.92-13.73,13.96-10.55,6-20.81,4.58-25.11,3.62-2.93-.66-12.13-3.13-18.79-11.79-1.28-1.66-4.62-6.35-6.07-13.53-1.18-5.84-.61-10.81-.04-13.79Z"/><path class="cls-1" d="m55.51,183.44l58.58.55c.41,2.34,1.42,9.98-2.95,18.24-.68,1.29-4.24,7.78-11.98,12.19-9.21,5.24-18.16,4-21.92,3.16-2.56-.57-10.59-2.73-16.4-10.29-1.12-1.45-4.03-5.55-5.3-11.81-1.03-5.1-.53-9.44-.04-12.04Z"/><path class="cls-4" d="m83.61,186.09l-18.6,16.38s-1.06,1.53,0,2.8c1.07,1.27,10.94,6.12,14.27,5.78,3.33-.34,3.19-2.47,3.19-2.47l1.13-22.49Z"/><path class="cls-4" d="m82.13,184.94l-23.93-.96s-1.79.4-1.97,2.11c-.18,1.71,2.96,12.37,5.41,14.48,2.46,2.11,3.86.42,3.86.42l16.63-16.05Z"/><path class="cls-4" d="m84.75,186.24l-1.04,23.35s.37,1.69,2.02,1.68c1.65-.01,11.94-4.23,13.98-6.85,2.05-2.62.42-3.8.42-3.8l-15.39-14.39Z"/><path class="cls-4" d="m87.17,184.63l14.64,16.63s1.4.91,2.65-.2c1.25-1.1,6.29-10.84,6.12-13.99-.17-3.15-2.19-2.87-2.19-2.87l-21.22.43Z"/><path class="cls-2" d="m93.61,183.4l77.93.73c.54,3.12,1.89,13.27-3.93,24.27-.91,1.72-5.64,10.36-15.94,16.21-12.25,6.97-24.16,5.32-29.16,4.2-3.41-.76-14.09-3.64-21.82-13.69-1.48-1.93-5.36-7.38-7.05-15.71-1.37-6.78-.71-12.55-.05-16.01Z"/><path class="cls-3" d="m99,183.71l67.12.63c.47,2.69,1.63,11.43-3.38,20.9-.78,1.48-4.86,8.92-13.73,13.96-10.55,6-20.81,4.58-25.11,3.62-2.93-.66-12.13-3.13-18.79-11.79-1.28-1.66-4.62-6.35-6.07-13.53-1.18-5.84-.61-10.81-.04-13.79Z"/><path class="cls-1" d="m103.25,183.44l58.58.55c.41,2.34,1.42,9.98-2.95,18.24-.68,1.29-4.24,7.78-11.98,12.19-9.21,5.24-18.16,4-21.92,3.16-2.56-.57-10.59-2.73-16.4-10.29-1.12-1.45-4.03-5.55-5.3-11.81-1.03-5.1-.53-9.44-.04-12.04Z"/><path class="cls-4" d="m131.35,186.09l-18.6,16.38s-1.06,1.53,0,2.8c1.07,1.27,10.94,6.12,14.27,5.78,3.33-.34,3.19-2.47,3.19-2.47l1.13-22.49Z"/><path class="cls-4" d="m129.87,184.94l-23.93-.96s-1.79.4-1.97,2.11c-.18,1.71,2.96,12.37,5.41,14.48,2.46,2.11,3.86.42,3.86.42l16.63-16.05Z"/><path class="cls-4" d="m132.5,186.24l-1.04,23.35s.37,1.69,2.02,1.68c1.65-.01,11.94-4.23,13.98-6.85,2.05-2.62.42-3.8.42-3.8l-15.39-14.39Z"/><path class="cls-4" d="m134.91,184.63l14.64,16.63s1.4.91,2.65-.2c1.25-1.1,6.29-10.84,6.12-13.99-.17-3.15-2.19-2.87-2.19-2.87l-21.22.43Z"/><path class="cls-2" d="m16.35,91.13l79.26.86c.55,3.17,1.9,13.5-4.03,24.68-.92,1.74-5.75,10.52-16.23,16.47-12.47,7.07-24.58,5.38-29.66,4.23-3.46-.78-14.32-3.72-22.17-13.95-1.51-1.97-5.44-7.51-7.15-15.99-1.39-6.9-.7-12.77-.02-16.29Z"/><path class="cls-3" d="m21.83,91.45l68.26.74c.47,2.73,1.64,11.63-3.47,21.26-.8,1.5-4.95,9.06-13.98,14.18-10.74,6.09-21.17,4.63-25.54,3.64-2.98-.67-12.34-3.2-19.09-12.02-1.3-1.69-4.69-6.47-6.15-13.77-1.19-5.94-.6-11-.02-14.03Z"/><path class="cls-1" d="m26.16,91.19l59.58.65c.41,2.39,1.43,10.15-3.03,18.55-.7,1.31-4.32,7.91-12.2,12.38-9.38,5.31-18.48,4.04-22.29,3.18-2.6-.59-10.77-2.8-16.66-10.49-1.13-1.48-4.09-5.65-5.37-12.02-1.04-5.18-.53-9.6-.02-12.24Z"/><path class="cls-4" d="m54.73,93.92l-18.94,16.63s-1.08,1.56,0,2.85c1.09,1.29,11.12,6.24,14.51,5.9,3.39-.34,3.25-2.51,3.25-2.51l1.19-22.88Z"/><path class="cls-4" d="m53.23,92.75l-24.34-1.01s-1.82.4-2.01,2.14c-.19,1.74,2.99,12.58,5.48,14.73,2.49,2.15,3.93.43,3.93.43l16.93-16.3Z"/><path class="cls-4" d="m55.89,94.08l-1.09,23.75s.38,1.72,2.05,1.72c1.68,0,12.15-4.29,14.23-6.95,2.09-2.66.44-3.86.44-3.86l-15.63-14.66Z"/><path class="cls-4" d="m58.35,92.44l14.86,16.94s1.43.93,2.7-.2c1.27-1.12,6.41-11.01,6.24-14.22-.17-3.2-2.22-2.93-2.22-2.93l-21.58.4Z"/><path class="cls-2" d="m66.78,91.39l79.26.86c.55,3.17,1.9,13.5-4.03,24.68-.92,1.74-5.75,10.52-16.23,16.47-12.47,7.07-24.58,5.38-29.66,4.23-3.46-.78-14.32-3.72-22.17-13.95-1.51-1.97-5.44-7.51-7.15-15.99-1.39-6.9-.7-12.77-.02-16.29Z"/><path class="cls-3" d="m72.26,91.71l68.26.74c.47,2.73,1.64,11.63-3.47,21.26-.8,1.5-4.95,9.06-13.98,14.18-10.74,6.09-21.17,4.63-25.54,3.64-2.98-.67-12.34-3.2-19.09-12.02-1.3-1.69-4.69-6.47-6.15-13.77-1.19-5.94-.6-11-.02-14.03Z"/><path class="cls-1" d="m76.59,91.44l59.58.65c.41,2.39,1.43,10.15-3.03,18.55-.7,1.31-4.32,7.91-12.2,12.38-9.38,5.31-18.48,4.04-22.29,3.18-2.6-.59-10.77-2.8-16.66-10.49-1.13-1.48-4.09-5.65-5.37-12.02-1.04-5.18-.53-9.6-.02-12.24Z"/><path class="cls-4" d="m105.16,94.18l-18.94,16.63s-1.08,1.56,0,2.85c1.09,1.29,11.12,6.24,14.51,5.9,3.39-.34,3.25-2.51,3.25-2.51l1.19-22.88Z"/><path class="cls-4" d="m103.66,93l-24.34-1.01s-1.82.4-2.01,2.14c-.19,1.74,2.99,12.58,5.48,14.73,2.49,2.15,3.93.43,3.93.43l16.93-16.3Z"/><path class="cls-4" d="m106.33,94.33l-1.09,23.75s.38,1.72,2.05,1.72c1.68,0,12.15-4.29,14.23-6.95,2.09-2.66.44-3.86.44-3.86l-15.63-14.66Z"/><path class="cls-4" d="m108.79,92.69l14.86,16.94s1.43.93,2.7-.2c1.27-1.12,6.41-11.01,6.24-14.22-.17-3.2-2.22-2.93-2.22-2.93l-21.58.4Z"/></g></svg>