<?xml version="1.0" encoding="UTF-8"?><svg id="Layer_2" xmlns="http://www.w3.org/2000/svg" viewBox="0 0 175.99 230.27"><defs><style>.cls-1{fill:#f9facb;}.cls-1,.cls-2,.cls-3,.cls-4{stroke-width:0px;}.cls-2{fill:#f80;}.cls-3{fill:#ffa200;}.cls-4{fill:#ffb100;}</style></defs><g id="Layer_1-2"><path class="cls-2" d="m126.9,85.18l-2.04-79.19c3.15-.66,13.41-2.39,24.79,3.12,1.77.86,10.72,5.36,17.04,15.61,7.52,12.2,6.27,24.35,5.31,29.47-.65,3.49-3.19,14.44-13.13,22.65-1.91,1.58-7.3,5.71-15.71,7.72-6.84,1.64-12.73,1.17-16.27.62Z"/><path class="cls-3" d="m127.03,79.7l-1.76-68.2c2.71-.57,11.55-2.06,21.35,2.69,1.53.74,9.23,4.61,14.67,13.45,6.47,10.51,5.4,20.97,4.57,25.38-.56,3-2.75,12.44-11.3,19.51-1.64,1.36-6.29,4.92-13.53,6.65-5.89,1.41-10.96,1-14.01.53Z"/><path class="cls-1" d="m126.6,75.38l-1.53-59.52c2.37-.5,10.08-1.8,18.64,2.35,1.33.65,8.06,4.03,12.81,11.73,5.65,9.17,4.71,18.31,3.99,22.15-.49,2.62-2.4,10.85-9.87,17.03-1.43,1.19-5.49,4.29-11.81,5.8-5.14,1.23-9.57.88-12.23.47Z"/><path class="cls-4" d="m128.29,46.75l17.3,18.31s1.6,1.02,2.85-.11c1.25-1.13,5.83-11.33,5.36-14.7-.47-3.37-2.62-3.15-2.62-3.15l-22.89-.35Z"/><path class="cls-4" d="m127.17,48.29l-.12,24.34s.47,1.8,2.21,1.93c1.74.13,12.46-3.44,14.51-6.01,2.06-2.57.29-3.94.29-3.94l-16.89-16.32Z"/><path class="cls-4" d="m128.4,45.58l23.76.22s1.71-.44,1.64-2.11c-.07-1.67-4.73-11.97-7.46-13.96-2.73-1.99-3.87-.29-3.87-.29l-14.07,16.14Z"/><path class="cls-4" d="m126.68,43.19l16.37-15.46s.87-1.46-.29-2.69c-1.17-1.23-11.23-6-14.43-5.72-3.19.29-2.84,2.33-2.84,2.33l1.19,21.54Z"/><path class="cls-2" d="m127.9,133.37l-2.04-79.19c3.15-.66,13.41-2.39,24.79,3.12,1.77.86,10.72,5.36,17.04,15.61,7.52,12.2,6.27,24.35,5.31,29.47-.65,3.49-3.19,14.44-13.13,22.65-1.91,1.58-7.3,5.71-15.71,7.72-6.84,1.64-12.73,1.17-16.27.62Z"/><path class="cls-3" d="m128.03,127.88l-1.76-68.2c2.71-.57,11.55-2.06,21.35,2.69,1.53.74,9.23,4.61,14.67,13.45,6.47,10.51,5.4,20.97,4.57,25.38-.56,3-2.75,12.44-11.3,19.51-1.64,1.36-6.29,4.92-13.53,6.65-5.89,1.41-10.96,1-14.01.53Z"/><path class="cls-1" d="m127.6,123.57l-1.53-59.52c2.37-.5,10.08-1.8,18.64,2.35,1.33.65,8.06,4.03,12.81,11.73,5.65,9.17,4.71,18.31,3.99,22.15-.49,2.62-2.4,10.85-9.87,17.03-1.43,1.19-5.49,4.29-11.81,5.8-5.14,1.23-9.57.88-12.23.47Z"/><path class="cls-4" d="m129.29,94.93l17.3,18.31s1.6,1.02,2.85-.11c1.25-1.13,5.83-11.33,5.36-14.7-.47-3.37-2.62-3.15-2.62-3.15l-22.89-.35Z"/><path class="cls-4" d="m128.17,96.48l-.12,24.34s.47,1.8,2.21,1.93c1.74.13,12.46-3.44,14.51-6.01,2.06-2.57.29-3.94.29-3.94l-16.89-16.32Z"/><path class="cls-4" d="m129.4,93.76l23.76.22s1.71-.44,1.64-2.11c-.07-1.67-4.73-11.97-7.46-13.96-2.73-1.99-3.87-.29-3.87-.29l-14.07,16.14Z"/><path class="cls-4" d="m127.68,91.37l16.37-15.46s.87-1.46-.29-2.69c-1.17-1.23-11.23-6-14.43-5.72-3.19.29-2.84,2.33-2.84,2.33l1.19,21.54Z"/><path class="cls-2" d="m81.99,47.26L1.45,49.33c-.67-3.2-2.43-13.64,3.17-25.22.87-1.8,5.45-10.9,15.88-17.33C32.91-.86,45.27.41,50.47,1.39c3.55.67,14.69,3.24,23.04,13.35,1.6,1.94,5.81,7.43,7.85,15.98,1.66,6.95,1.19,12.94.63,16.54Z"/><path class="cls-3" d="m76.41,47.13l-69.37,1.79c-.58-2.76-2.1-11.75,2.73-21.72.75-1.55,4.69-9.39,13.67-14.92,10.68-6.58,21.33-5.49,25.81-4.65,3.05.57,12.65,2.79,19.84,11.5,1.38,1.67,5,6.4,6.76,13.76,1.43,5.99,1.02,11.15.54,14.25Z"/><path class="cls-1" d="m72.03,47.56l-60.54,1.56c-.51-2.41-1.83-10.26,2.39-18.96.66-1.36,4.1-8.2,11.93-13.03,9.33-5.75,18.62-4.79,22.53-4.06,2.67.5,11.04,2.44,17.32,10.03,1.21,1.46,4.36,5.58,5.9,12.01,1.25,5.23.89,9.73.47,12.43Z"/><path class="cls-4" d="m42.9,45.85l18.62-17.6s1.04-1.62-.11-2.89c-1.15-1.27-11.53-5.93-14.95-5.45-3.43.47-3.21,2.67-3.21,2.67l-.35,23.28Z"/><path class="cls-4" d="m44.47,46.99l24.76.12s1.83-.47,1.96-2.25c.13-1.77-3.5-12.67-6.12-14.76-2.61-2.09-4.01-.29-4.01-.29l-16.59,17.18Z"/><path class="cls-4" d="m41.71,45.73l.23-24.17s-.45-1.74-2.15-1.67c-1.7.07-12.18,4.81-14.2,7.59-2.02,2.78-.3,3.94-.3,3.94l16.42,14.31Z"/><path class="cls-4" d="m39.28,47.49l-15.73-16.65s-1.48-.89-2.73.3c-1.25,1.19-6.1,11.43-5.81,14.67.29,3.25,2.37,2.89,2.37,2.89l21.91-1.21Z"/><path class="cls-2" d="m116.17,47.26l-80.54,2.07c-.67-3.2-2.43-13.64,3.17-25.22.87-1.8,5.45-10.9,15.88-17.33C67.09-.86,79.45.41,84.65,1.39c3.55.67,14.69,3.24,23.04,13.35,1.6,1.94,5.81,7.43,7.85,15.98,1.66,6.95,1.19,12.94.63,16.54Z"/><path class="cls-3" d="m110.59,47.13l-69.37,1.79c-.58-2.76-2.1-11.75,2.73-21.72.75-1.55,4.69-9.39,13.67-14.92,10.68-6.58,21.33-5.49,25.81-4.65,3.05.57,12.65,2.79,19.84,11.5,1.38,1.67,5,6.4,6.76,13.76,1.43,5.99,1.02,11.15.54,14.25Z"/><path class="cls-1" d="m106.21,47.56l-60.54,1.56c-.51-2.41-1.83-10.26,2.39-18.96.66-1.36,4.1-8.2,11.93-13.03,9.33-5.75,18.62-4.79,22.53-4.06,2.67.5,11.04,2.44,17.32,10.03,1.21,1.46,4.36,5.58,5.9,12.01,1.25,5.23.89,9.73.47,12.43Z"/><path class="cls-4" d="m77.08,45.85l18.62-17.6s1.04-1.62-.11-2.89c-1.15-1.27-11.53-5.93-14.95-5.45-3.43.47-3.21,2.67-3.21,2.67l-.35,23.28Z"/><path class="cls-4" d="m78.65,46.99l24.76.12s1.83-.47,1.96-2.25c.13-1.77-3.5-12.67-6.12-14.76-2.61-2.09-4.01-.29-4.01-.29l-16.59,17.18Z"/><path class="cls-4" d="m75.89,45.73l.23-24.17s-.45-1.74-2.15-1.67c-1.7.07-12.18,4.81-14.2,7.59-2.02,2.78-.3,3.94-.3,3.94l16.42,14.31Z"/><path class="cls-4" d="m73.46,47.49l-15.73-16.65s-1.48-.89-2.73.3c-1.25,1.19-6.1,11.43-5.81,14.67.29,3.25,2.37,2.89,2.37,2.89l21.91-1.21Z"/><path class="cls-2" d="m163.85,46.36l-80.53,2.58c-.69-3.2-2.52-13.63,3.02-25.24.86-1.81,5.38-10.94,15.77-17.43C114.46-1.45,126.83-.25,132.04.69c3.55.64,14.71,3.15,23.12,13.2,1.62,1.93,5.85,7.39,7.95,15.93,1.71,6.94,1.27,12.94.73,16.54Z"/><path class="cls-3" d="m158.27,46.27l-69.35,2.22c-.6-2.75-2.17-11.74,2.6-21.74.74-1.56,4.63-9.42,13.58-15.01,10.64-6.65,21.3-5.62,25.78-4.81,3.06.55,12.67,2.71,19.91,11.37,1.39,1.66,5.04,6.37,6.85,13.72,1.47,5.98,1.09,11.14.63,14.24Z"/><path class="cls-1" d="m153.88,46.73l-60.53,1.94c-.52-2.4-1.89-10.24,2.27-18.97.65-1.36,4.04-8.22,11.85-13.1,9.29-5.8,18.59-4.91,22.5-4.2,2.67.48,11.05,2.37,17.38,9.92,1.21,1.45,4.4,5.56,5.98,11.97,1.28,5.22.95,9.72.55,12.43Z"/><path class="cls-4" d="m124.75,45.2l18.51-17.71s1.03-1.63-.13-2.89c-1.16-1.26-11.56-5.86-14.99-5.36-3.42.5-3.19,2.69-3.19,2.69l-.21,23.28Z"/><path class="cls-4" d="m126.33,46.33l24.76-.04s1.83-.48,1.95-2.26c.12-1.77-3.58-12.65-6.21-14.72-2.63-2.08-4.01-.27-4.01-.27l-16.49,17.29Z"/><path class="cls-4" d="m123.56,45.09l.07-24.17s-.46-1.73-2.16-1.65c-1.7.08-12.15,4.88-14.15,7.68-2,2.79-.27,3.94-.27,3.94l16.51,14.2Z"/><path class="cls-4" d="m121.14,46.86l-15.83-16.55s-1.49-.88-2.73.32c-1.24,1.19-6.03,11.46-5.72,14.71.31,3.25,2.38,2.88,2.38,2.88l21.9-1.35Z"/><path class="cls-2" d="m129.16,167.72l-2.04-79.19c3.15-.66,13.41-2.39,24.79,3.12,1.77.86,10.72,5.36,17.04,15.61,7.52,12.2,6.27,24.35,5.31,29.47-.65,3.49-3.19,14.44-13.13,22.65-1.91,1.58-7.3,5.71-15.71,7.72-6.84,1.64-12.73,1.17-16.27.62Z"/><path class="cls-3" d="m129.28,162.24l-1.76-68.2c2.71-.57,11.55-2.06,21.35,2.69,1.53.74,9.23,4.61,14.67,13.45,6.47,10.51,5.4,20.97,4.57,25.38-.56,3-2.75,12.44-11.3,19.51-1.64,1.36-6.29,4.92-13.53,6.65-5.89,1.41-10.96,1-14.01.53Z"/><path class="cls-1" d="m128.86,157.93l-1.53-59.52c2.37-.5,10.08-1.8,18.64,2.35,1.33.65,8.06,4.03,12.81,11.73,5.65,9.17,4.71,18.31,3.99,22.15-.49,2.62-2.4,10.85-9.87,17.03-1.43,1.19-5.49,4.29-11.81,5.8-5.14,1.23-9.57.88-12.23.47Z"/><path class="cls-4" d="m130.54,129.29l17.3,18.31s1.6,1.02,2.85-.11c1.25-1.13,5.83-11.33,5.36-14.7-.47-3.37-2.62-3.15-2.62-3.15l-22.89-.35Z"/><path class="cls-4" d="m129.43,130.84l-.12,24.34s.47,1.8,2.21,1.93c1.74.13,12.46-3.44,14.51-6.01,2.06-2.57.29-3.94.29-3.94l-16.89-16.32Z"/><path class="cls-4" d="m130.66,128.12l23.76.22s1.71-.44,1.64-2.11c-.07-1.67-4.73-11.97-7.46-13.96-2.73-1.99-3.87-.29-3.87-.29l-14.07,16.14Z"/><path class="cls-4" d="m128.93,125.73l16.37-15.46s.87-1.46-.29-2.69c-1.17-1.23-11.23-6-14.43-5.72-3.19.29-2.84,2.33-2.84,2.33l1.19,21.54Z"/><path class="cls-2" d="m130.16,225.91l-2.04-79.19c3.15-.66,13.41-2.39,24.79,3.12,1.77.86,10.72,5.36,17.04,15.61,7.52,12.2,6.27,24.35,5.31,29.47-.65,3.49-3.19,14.44-13.13,22.65-1.91,1.58-7.3,5.71-15.71,7.72-6.84,1.64-12.73,1.17-16.27.62Z"/><path class="cls-3" d="m130.28,220.42l-1.76-68.2c2.71-.57,11.55-2.06,21.35,2.69,1.53.74,9.23,4.61,14.67,13.45,6.47,10.51,5.4,20.97,4.57,25.38-.56,3-2.75,12.44-11.3,19.51-1.64,1.36-6.29,4.92-13.53,6.65-5.89,1.41-10.96,1-14.01.53Z"/><path class="cls-1" d="m129.86,216.11l-1.53-59.52c2.37-.5,10.08-1.8,18.64,2.35,1.33.65,8.06,4.03,12.81,11.73,5.65,9.17,4.71,18.31,3.99,22.15-.49,2.62-2.4,10.85-9.87,17.03-1.43,1.19-5.49,4.29-11.81,5.8-5.14,1.23-9.57.88-12.23.47Z"/><path class="cls-4" d="m131.54,187.48l17.3,18.31s1.6,1.02,2.85-.11c1.25-1.13,5.83-11.33,5.36-14.7-.47-3.37-2.62-3.15-2.62-3.15l-22.89-.35Z"/><path class="cls-4" d="m130.43,189.02l-.12,24.34s.47,1.8,2.21,1.93c1.74.13,12.46-3.44,14.51-6.01,2.06-2.57.29-3.94.29-3.94l-16.89-16.32Z"/><path class="cls-4" d="m131.66,186.31l23.76.22s1.71-.44,1.64-2.11c-.07-1.67-4.73-11.97-7.46-13.96-2.73-1.99-3.87-.29-3.87-.29l-14.07,16.14Z"/><path class="cls-4" d="m129.93,183.91l16.37-15.46s.87-1.46-.29-2.69c-1.17-1.23-11.23-6-14.43-5.72-3.19.29-2.84,2.33-2.84,2.33l1.19,21.54Z"/><path class="cls-2" d="m90.01,183.79l77.93.84c.54,3.12,1.87,13.27-3.96,24.27-.91,1.71-5.65,10.35-15.96,16.19-12.26,6.95-24.17,5.28-29.16,4.16-3.4-.77-14.08-3.66-21.8-13.72-1.48-1.93-5.35-7.39-7.03-15.72-1.36-6.78-.69-12.56-.02-16.01Z"/><path class="cls-3" d="m95.4,184.11l67.12.73c.46,2.69,1.61,11.43-3.41,20.9-.78,1.48-4.87,8.91-13.75,13.94-10.56,5.99-20.82,4.55-25.12,3.58-2.93-.66-12.13-3.15-18.77-11.82-1.28-1.66-4.61-6.36-6.05-13.54-1.17-5.84-.59-10.81-.02-13.79Z"/><path class="cls-1" d="m99.66,183.85l58.58.64c.4,2.35,1.41,9.98-2.98,18.24-.68,1.29-4.25,7.78-12,12.17-9.22,5.22-18.17,3.97-21.92,3.13-2.56-.58-10.59-2.75-16.38-10.31-1.11-1.45-4.02-5.55-5.28-11.82-1.02-5.1-.52-9.44-.02-12.04Z"/><path class="cls-4" d="m127.75,186.53l-18.63,16.35s-1.06,1.53,0,2.8c1.07,1.27,10.93,6.14,14.26,5.8,3.33-.34,3.19-2.46,3.19-2.46l1.17-22.49Z"/><path class="cls-4" d="m126.27,185.38l-23.93-.99s-1.79.39-1.98,2.1c-.19,1.71,2.94,12.37,5.39,14.49,2.45,2.12,3.86.42,3.86.42l16.65-16.02Z"/><path class="cls-4" d="m128.89,186.69l-1.07,23.35s.37,1.69,2.02,1.69c1.65,0,11.94-4.22,13.99-6.83,2.05-2.61.43-3.8.43-3.8l-15.37-14.41Z"/><path class="cls-4" d="m131.31,185.08l14.62,16.65s1.4.91,2.65-.19c1.25-1.1,6.31-10.83,6.14-13.98-.17-3.15-2.18-2.88-2.18-2.88l-21.22.4Z"/><path class="cls-2" d="m43.71,182.97l77.93.84c.54,3.12,1.87,13.27-3.96,24.27-.91,1.71-5.65,10.35-15.96,16.19-12.26,6.95-24.17,5.28-29.16,4.16-3.4-.77-14.08-3.66-21.8-13.72-1.48-1.93-5.35-7.39-7.03-15.72-1.36-6.78-.69-12.56-.02-16.01Z"/><path class="cls-3" d="m49.1,183.29l67.12.73c.46,2.69,1.61,11.43-3.41,20.9-.78,1.48-4.87,8.91-13.75,13.94-10.56,5.99-20.82,4.55-25.12,3.58-2.93-.66-12.13-3.15-18.77-11.82-1.28-1.66-4.61-6.36-6.05-13.54-1.17-5.84-.59-10.81-.02-13.79Z"/><path class="cls-1" d="m53.35,183.03l58.58.64c.4,2.35,1.41,9.98-2.98,18.24-.68,1.29-4.25,7.78-12,12.17-9.22,5.22-18.17,3.97-21.92,3.13-2.56-.58-10.59-2.75-16.38-10.31-1.11-1.45-4.02-5.55-5.28-11.82-1.02-5.1-.52-9.44-.02-12.04Z"/><path class="cls-4" d="m81.44,185.72l-18.63,16.35s-1.06,1.53,0,2.8c1.07,1.27,10.93,6.14,14.26,5.8,3.33-.34,3.19-2.46,3.19-2.46l1.17-22.49Z"/><path class="cls-4" d="m79.97,184.56l-23.93-.99s-1.79.39-1.98,2.1c-.19,1.71,2.94,12.37,5.39,14.49,2.45,2.12,3.86.42,3.86.42l16.65-16.02Z"/><path class="cls-4" d="m82.59,185.87l-1.07,23.35s.37,1.69,2.02,1.69c1.65,0,11.94-4.22,13.99-6.83,2.05-2.61.43-3.8.43-3.8l-15.37-14.41Z"/><path class="cls-4" d="m85,184.26l14.62,16.65s1.4.91,2.65-.19c1.25-1.1,6.31-10.83,6.14-13.98-.17-3.15-2.18-2.88-2.18-2.88l-21.22.4Z"/><path class="cls-2" d="m1.51,182.79l77.93.84c.54,3.12,1.87,13.27-3.96,24.27-.91,1.71-5.65,10.35-15.96,16.19-12.26,6.95-24.17,5.28-29.16,4.16-3.4-.77-14.08-3.66-21.8-13.72-1.48-1.93-5.35-7.39-7.03-15.72-1.36-6.78-.69-12.56-.02-16.01Z"/><path class="cls-3" d="m6.9,183.11l67.12.73c.46,2.69,1.61,11.43-3.41,20.9-.78,1.48-4.87,8.91-13.75,13.94-10.56,5.99-20.82,4.55-25.12,3.58-2.93-.66-12.13-3.15-18.77-11.82-1.28-1.66-4.61-6.36-6.05-13.54-1.17-5.84-.59-10.81-.02-13.79Z"/><path class="cls-1" d="m11.16,182.85l58.58.64c.4,2.35,1.41,9.98-2.98,18.24-.68,1.29-4.25,7.78-12,12.17-9.22,5.22-18.17,3.97-21.92,3.13-2.56-.58-10.59-2.75-16.38-10.31-1.11-1.45-4.02-5.55-5.28-11.82-1.02-5.1-.52-9.44-.02-12.04Z"/><path class="cls-4" d="m39.25,185.53l-18.63,16.35s-1.06,1.53,0,2.8c1.07,1.27,10.93,6.14,14.26,5.8,3.33-.34,3.19-2.46,3.19-2.46l1.17-22.49Z"/><path class="cls-4" d="m37.77,184.38l-23.93-.99s-1.79.39-1.98,2.1c-.19,1.71,2.94,12.37,5.39,14.49,2.45,2.12,3.86.42,3.86.42l16.65-16.02Z"/><path class="cls-4" d="m40.4,185.69l-1.07,23.35s.37,1.69,2.02,1.69c1.65,0,11.94-4.22,13.99-6.83,2.05-2.61.43-3.8.43-3.8l-15.37-14.41Z"/><path class="cls-4" d="m42.81,184.08l14.62,16.65s1.4.91,2.65-.19c1.25-1.1,6.31-10.83,6.14-13.98-.17-3.15-2.18-2.88-2.18-2.88l-21.22.4Z"/><path class="cls-2" d="m89.27,103.93l77.93.84c.54,3.12,1.87,13.27-3.96,24.27-.91,1.71-5.65,10.35-15.96,16.19-12.26,6.95-24.17,5.28-29.16,4.16-3.4-.77-14.08-3.66-21.8-13.72-1.48-1.93-5.35-7.39-7.03-15.72-1.36-6.78-.69-12.56-.02-16.01Z"/><path class="cls-3" d="m94.65,104.24l67.12.73c.46,2.69,1.61,11.43-3.41,20.9-.78,1.48-4.87,8.91-13.75,13.94-10.56,5.99-20.82,4.55-25.12,3.58-2.93-.66-12.13-3.15-18.77-11.82-1.28-1.66-4.61-6.36-6.05-13.54-1.17-5.84-.59-10.81-.02-13.79Z"/><path class="cls-1" d="m98.91,103.98l58.58.64c.4,2.35,1.41,9.98-2.98,18.24-.68,1.29-4.25,7.78-12,12.17-9.22,5.22-18.17,3.97-21.92,3.13-2.56-.58-10.59-2.75-16.38-10.31-1.11-1.45-4.02-5.55-5.28-11.82-1.02-5.1-.52-9.44-.02-12.04Z"/><path class="cls-4" d="m127,106.67l-18.63,16.35s-1.06,1.53,0,2.8c1.07,1.27,10.93,6.14,14.26,5.8,3.33-.34,3.19-2.46,3.19-2.46l1.17-22.49Z"/><path class="cls-4" d="m125.52,105.52l-23.93-.99s-1.79.39-1.98,2.1c-.19,1.71,2.94,12.37,5.39,14.49,2.45,2.12,3.86.42,3.86.42l16.65-16.02Z"/><path class="cls-4" d="m128.15,106.82l-1.07,23.35s.37,1.69,2.02,1.69c1.65,0,11.94-4.22,13.99-6.83,2.05-2.61.43-3.8.43-3.8l-15.37-14.41Z"/><path class="cls-4" d="m130.56,105.21l14.62,16.65s1.4.91,2.65-.19c1.25-1.1,6.31-10.83,6.14-13.98-.17-3.15-2.18-2.88-2.18-2.88l-21.22.4Z"/><path class="cls-2" d="m42.96,103.11l77.93.84c.54,3.12,1.87,13.27-3.96,24.27-.91,1.71-5.65,10.35-15.96,16.19-12.26,6.95-24.17,5.28-29.16,4.16-3.4-.77-14.08-3.66-21.8-13.72-1.48-1.93-5.35-7.39-7.03-15.72-1.36-6.78-.69-12.56-.02-16.01Z"/><path class="cls-3" d="m48.35,103.43l67.12.73c.46,2.69,1.61,11.43-3.41,20.9-.78,1.48-4.87,8.91-13.75,13.94-10.56,5.99-20.82,4.55-25.12,3.58-2.93-.66-12.13-3.15-18.77-11.82-1.28-1.66-4.61-6.36-6.05-13.54-1.17-5.84-.59-10.81-.02-13.79Z"/><path class="cls-1" d="m52.6,103.17l58.58.64c.4,2.35,1.41,9.98-2.98,18.24-.68,1.29-4.25,7.78-12,12.17-9.22,5.22-18.17,3.97-21.92,3.13-2.56-.58-10.59-2.75-16.38-10.31-1.11-1.45-4.02-5.55-5.28-11.82-1.02-5.1-.52-9.44-.02-12.04Z"/><path class="cls-4" d="m80.7,105.85l-18.63,16.35s-1.06,1.53,0,2.8c1.07,1.27,10.93,6.14,14.26,5.8,3.33-.34,3.19-2.46,3.19-2.46l1.17-22.49Z"/><path class="cls-4" d="m79.22,104.7l-23.93-.99s-1.79.39-1.98,2.1c-.19,1.71,2.94,12.37,5.39,14.49,2.45,2.12,3.86.42,3.86.42l16.65-16.02Z"/><path class="cls-4" d="m81.84,106.01l-1.07,23.35s.37,1.69,2.02,1.69c1.65,0,11.94-4.22,13.99-6.83,2.05-2.61.43-3.8.43-3.8l-15.37-14.41Z"/><path class="cls-4" d="m84.26,104.39l14.62,16.65s1.4.91,2.65-.19c1.25-1.1,6.31-10.83,6.14-13.98-.17-3.15-2.18-2.88-2.18-2.88l-21.22.4Z"/><path class="cls-2" d="m.77,102.93l77.93.84c.54,3.12,1.87,13.27-3.96,24.27-.91,1.71-5.65,10.35-15.96,16.19-12.26,6.95-24.17,5.28-29.16,4.16-3.4-.77-14.08-3.66-21.8-13.72-1.48-1.93-5.35-7.39-7.03-15.72-1.36-6.78-.69-12.56-.02-16.01Z"/><path class="cls-3" d="m6.16,103.24l67.12.73c.46,2.69,1.61,11.43-3.41,20.9-.78,1.48-4.87,8.91-13.75,13.94-10.56,5.99-20.82,4.55-25.12,3.58-2.93-.66-12.13-3.15-18.77-11.82-1.28-1.66-4.61-6.36-6.05-13.54-1.17-5.84-.59-10.81-.02-13.79Z"/><path class="cls-1" d="m10.41,102.98l58.58.64c.4,2.35,1.41,9.98-2.98,18.24-.68,1.29-4.25,7.78-12,12.17-9.22,5.22-18.17,3.97-21.92,3.13-2.56-.58-10.59-2.75-16.38-10.31-1.11-1.45-4.02-5.55-5.28-11.82-1.02-5.1-.52-9.44-.02-12.04Z"/><path class="cls-4" d="m38.5,105.67l-18.63,16.35s-1.06,1.53,0,2.8c1.07,1.27,10.93,6.14,14.26,5.8,3.33-.34,3.19-2.46,3.19-2.46l1.17-22.49Z"/><path class="cls-4" d="m37.03,104.52l-23.93-.99s-1.79.39-1.98,2.1c-.19,1.71,2.94,12.37,5.39,14.49,2.45,2.12,3.86.42,3.86.42l16.65-16.02Z"/><path class="cls-4" d="m39.65,105.82l-1.07,23.35s.37,1.69,2.02,1.69c1.65,0,11.94-4.22,13.99-6.83,2.05-2.61.43-3.8.43-3.8l-15.37-14.41Z"/><path class="cls-4" d="m42.06,104.21l14.62,16.65s1.4.91,2.65-.19c1.25-1.1,6.31-10.83,6.14-13.98-.17-3.15-2.18-2.88-2.18-2.88l-21.22.4Z"/></g></svg>