<?xml version="1.0" encoding="UTF-8"?><svg id="Layer_2" xmlns="http://www.w3.org/2000/svg" viewBox="0 0 151.69 224.69"><defs><style>.cls-1{fill:#f9facb;}.cls-1,.cls-2,.cls-3,.cls-4{stroke-width:0px;}.cls-2{fill:#f80;}.cls-3{fill:#ffa200;}.cls-4{fill:#ffb100;}</style></defs><g id="Layer_1-2"><path class="cls-2" d="m105.64,224.14l-1.59-79.2c3.15-.64,13.43-2.32,24.78,3.26,1.77.87,10.69,5.42,16.95,15.71,7.45,12.24,6.13,24.39,5.14,29.5-.67,3.48-3.27,14.42-13.25,22.58-1.92,1.57-7.34,5.67-15.75,7.63-6.85,1.6-12.73,1.1-16.27.53Z"/><path class="cls-3" d="m105.79,218.66l-1.37-68.21c2.72-.55,11.56-2,21.34,2.81,1.52.75,9.21,4.67,14.6,13.53,6.41,10.54,5.28,21,4.43,25.4-.58,3-2.82,12.42-11.41,19.44-1.65,1.35-6.32,4.88-13.57,6.57-5.9,1.38-10.97.94-14.01.45Z"/><path class="cls-1" d="m105.39,214.34l-1.2-59.53c2.37-.48,10.09-1.74,18.62,2.45,1.33.65,8.04,4.07,12.74,11.81,5.6,9.2,4.61,18.33,3.86,22.17-.51,2.62-2.46,10.84-9.96,16.97-1.44,1.18-5.51,4.26-11.84,5.74-5.15,1.2-9.57.82-12.23.4Z"/><path class="cls-4" d="m107.24,185.72l17.2,18.41s1.59,1.03,2.85-.09c1.26-1.12,5.89-11.3,5.45-14.67-.45-3.37-2.6-3.17-2.6-3.17l-22.89-.48Z"/><path class="cls-4" d="m106.11,187.25l-.25,24.34s.45,1.81,2.2,1.94c1.74.13,12.48-3.37,14.55-5.93,2.07-2.56.31-3.94.31-3.94l-16.8-16.41Z"/><path class="cls-4" d="m107.36,184.55l23.76.36s1.71-.43,1.65-2.1c-.06-1.67-4.66-12-7.38-14-2.72-2-3.87-.32-3.87-.32l-14.16,16.07Z"/><path class="cls-4" d="m105.65,182.15l16.46-15.37s.88-1.45-.28-2.69c-1.16-1.23-11.2-6.07-14.39-5.8-3.2.27-2.85,2.31-2.85,2.31l1.07,21.55Z"/><path class="cls-2" d="m105.64,191.17l-1.59-79.2c3.15-.64,13.43-2.32,24.78,3.26,1.77.87,10.69,5.42,16.95,15.71,7.45,12.24,6.13,24.39,5.14,29.5-.67,3.48-3.27,14.42-13.25,22.58-1.92,1.57-7.34,5.67-15.75,7.63-6.85,1.6-12.73,1.1-16.27.53Z"/><path class="cls-3" d="m105.79,185.69l-1.37-68.21c2.72-.55,11.56-2,21.34,2.81,1.52.75,9.21,4.67,14.6,13.53,6.41,10.54,5.28,21,4.43,25.4-.58,3-2.82,12.42-11.41,19.44-1.65,1.35-6.32,4.88-13.57,6.57-5.9,1.38-10.97.94-14.01.45Z"/><path class="cls-1" d="m105.39,181.37l-1.2-59.53c2.37-.48,10.09-1.74,18.62,2.45,1.33.65,8.04,4.07,12.74,11.81,5.6,9.2,4.61,18.33,3.86,22.17-.51,2.62-2.46,10.84-9.96,16.97-1.44,1.18-5.51,4.26-11.84,5.74-5.15,1.2-9.57.82-12.23.4Z"/><path class="cls-4" d="m107.24,152.75l17.2,18.41s1.59,1.03,2.85-.09c1.26-1.12,5.89-11.3,5.45-14.67-.45-3.37-2.6-3.17-2.6-3.17l-22.89-.48Z"/><path class="cls-4" d="m106.11,154.29l-.25,24.34s.45,1.81,2.2,1.94c1.74.13,12.48-3.37,14.55-5.93,2.07-2.56.31-3.94.31-3.94l-16.8-16.41Z"/><path class="cls-4" d="m107.36,151.58l23.76.36s1.71-.43,1.65-2.1c-.06-1.67-4.66-12-7.38-14-2.72-2-3.87-.32-3.87-.32l-14.16,16.07Z"/><path class="cls-4" d="m105.65,149.18l16.46-15.37s.88-1.45-.28-2.69c-1.16-1.23-11.2-6.07-14.39-5.8-3.2.27-2.85,2.31-2.85,2.31l1.07,21.55Z"/><path class="cls-2" d="m105.64,129.47l-1.59-79.2c3.15-.64,13.43-2.32,24.78,3.26,1.77.87,10.69,5.42,16.95,15.71,7.45,12.24,6.13,24.39,5.14,29.5-.67,3.48-3.27,14.42-13.25,22.58-1.92,1.57-7.34,5.67-15.75,7.63-6.85,1.6-12.73,1.1-16.27.53Z"/><path class="cls-3" d="m105.79,123.98l-1.37-68.21c2.72-.55,11.56-2,21.34,2.81,1.52.75,9.21,4.67,14.6,13.53,6.41,10.54,5.28,21,4.43,25.4-.58,3-2.82,12.42-11.41,19.44-1.65,1.35-6.32,4.88-13.57,6.57-5.9,1.38-10.97.94-14.01.45Z"/><path class="cls-1" d="m105.39,119.67l-1.2-59.53c2.37-.48,10.09-1.74,18.62,2.45,1.33.65,8.04,4.07,12.74,11.81,5.6,9.2,4.61,18.33,3.86,22.17-.51,2.62-2.46,10.84-9.96,16.97-1.44,1.18-5.51,4.26-11.84,5.74-5.15,1.2-9.57.82-12.23.4Z"/><path class="cls-4" d="m107.24,91.04l17.2,18.41s1.59,1.03,2.85-.09c1.26-1.12,5.89-11.3,5.45-14.67-.45-3.37-2.6-3.17-2.6-3.17l-22.89-.48Z"/><path class="cls-4" d="m106.11,92.58l-.25,24.34s.45,1.81,2.2,1.94c1.74.13,12.48-3.37,14.55-5.93,2.07-2.56.31-3.94.31-3.94l-16.8-16.41Z"/><path class="cls-4" d="m107.36,89.87l23.76.36s1.71-.43,1.65-2.1c-.06-1.67-4.66-12-7.38-14-2.72-2-3.87-.32-3.87-.32l-14.16,16.07Z"/><path class="cls-4" d="m105.65,87.47l16.46-15.37s.88-1.45-.28-2.69c-1.16-1.23-11.2-6.07-14.39-5.8-3.2.27-2.85,2.31-2.85,2.31l1.07,21.55Z"/><path class="cls-2" d="m33.65,90.88l77.93.73c.54,3.12,1.89,13.27-3.93,24.27-.91,1.72-5.64,10.36-15.94,16.21-12.25,6.97-24.16,5.32-29.16,4.2-3.41-.76-14.09-3.64-21.82-13.69-1.48-1.93-5.36-7.38-7.05-15.71-1.37-6.78-.71-12.55-.05-16.01Z"/><path class="cls-3" d="m39.04,91.19l67.12.63c.47,2.69,1.63,11.43-3.38,20.9-.78,1.48-4.86,8.92-13.73,13.96-10.55,6-20.81,4.58-25.11,3.62-2.93-.66-12.13-3.13-18.79-11.79-1.28-1.66-4.62-6.35-6.07-13.53-1.18-5.84-.61-10.81-.04-13.79Z"/><path class="cls-1" d="m43.3,90.92l58.58.55c.41,2.34,1.42,9.98-2.95,18.24-.68,1.29-4.24,7.78-11.98,12.19-9.21,5.24-18.16,4-21.92,3.16-2.56-.57-10.59-2.73-16.4-10.29-1.12-1.45-4.03-5.55-5.3-11.81-1.03-5.1-.53-9.44-.04-12.04Z"/><path class="cls-4" d="m71.39,93.57l-18.6,16.38s-1.06,1.53,0,2.8c1.07,1.27,10.94,6.12,14.27,5.78,3.33-.34,3.19-2.47,3.19-2.47l1.13-22.49Z"/><path class="cls-4" d="m69.91,92.42l-23.93-.96s-1.79.4-1.97,2.11c-.18,1.71,2.96,12.37,5.41,14.48,2.46,2.11,3.86.42,3.86.42l16.63-16.05Z"/><path class="cls-4" d="m72.54,93.72l-1.04,23.35s.37,1.69,2.02,1.68c1.65-.01,11.94-4.23,13.98-6.85,2.05-2.62.42-3.8.42-3.8l-15.39-14.39Z"/><path class="cls-4" d="m74.95,92.1l14.64,16.63s1.4.91,2.65-.2c1.25-1.1,6.29-10.84,6.12-13.99-.17-3.15-2.19-2.87-2.19-2.87l-21.22.43Z"/><path class="cls-2" d="m104.64,79.94L103.05.74c3.15-.64,13.43-2.32,24.78,3.26,1.77.87,10.69,5.42,16.95,15.71,7.45,12.24,6.13,24.39,5.14,29.5-.67,3.48-3.27,14.42-13.25,22.58-1.92,1.57-7.34,5.67-15.75,7.63-6.85,1.6-12.73,1.1-16.27.53Z"/><path class="cls-3" d="m104.79,74.46l-1.37-68.21c2.72-.55,11.56-2,21.34,2.81,1.52.75,9.21,4.67,14.6,13.53,6.41,10.54,5.28,21,4.43,25.4-.58,3-2.82,12.42-11.41,19.44-1.65,1.35-6.32,4.88-13.57,6.57-5.9,1.38-10.97.94-14.01.45Z"/><path class="cls-1" d="m104.39,70.14l-1.2-59.53c2.37-.48,10.09-1.74,18.62,2.45,1.33.65,8.04,4.07,12.74,11.81,5.6,9.2,4.61,18.33,3.86,22.17-.51,2.62-2.46,10.84-9.96,16.97-1.44,1.18-5.51,4.26-11.84,5.74-5.15,1.2-9.57.82-12.23.4Z"/><path class="cls-4" d="m106.24,41.52l17.2,18.41s1.59,1.03,2.85-.09c1.26-1.12,5.89-11.3,5.45-14.67-.45-3.37-2.6-3.17-2.6-3.17l-22.89-.48Z"/><path class="cls-4" d="m105.11,43.06l-.25,24.34s.45,1.81,2.2,1.94c1.74.13,12.48-3.37,14.55-5.93,2.07-2.56.31-3.94.31-3.94l-16.8-16.41Z"/><path class="cls-4" d="m106.36,40.35l23.76.36s1.71-.43,1.65-2.1c-.06-1.67-4.66-12-7.38-14-2.72-2-3.87-.32-3.87-.32l-14.16,16.07Z"/><path class="cls-4" d="m104.65,37.95l16.46-15.37s.88-1.45-.28-2.69c-1.16-1.23-11.2-6.07-14.39-5.8-3.2.27-2.85,2.31-2.85,2.31l1.07,21.55Z"/><path class="cls-2" d="m46.05,1.45l1.59,79.2c-3.15.64-13.43,2.32-24.78-3.26-1.77-.87-10.69-5.42-16.95-15.71C-1.53,49.44-.22,37.29.77,32.18c.67-3.48,3.27-14.42,13.25-22.58,1.92-1.57,7.34-5.67,15.75-7.63,6.85-1.6,12.73-1.1,16.27-.53Z"/><path class="cls-3" d="m45.89,6.93l1.37,68.21c-2.72.55-11.56,2-21.34-2.81-1.52-.75-9.21-4.67-14.6-13.53-6.41-10.54-5.28-21-4.43-25.4.58-3,2.82-12.42,11.41-19.44,1.65-1.35,6.32-4.88,13.57-6.57,5.9-1.38,10.97-.94,14.01-.45Z"/><path class="cls-1" d="m46.29,11.25l1.2,59.53c-2.37.48-10.09,1.74-18.62-2.45-1.33-.65-8.04-4.07-12.74-11.81-5.6-9.2-4.61-18.33-3.86-22.17.51-2.62,2.46-10.84,9.96-16.97,1.44-1.18,5.51-4.26,11.84-5.74,5.15-1.2,9.57-.82,12.23-.4Z"/><path class="cls-4" d="m44.45,39.87l-17.2-18.41s-1.59-1.03-2.85.09c-1.26,1.12-5.89,11.3-5.45,14.67.45,3.37,2.6,3.17,2.6,3.17l22.89.48Z"/><path class="cls-4" d="m45.57,38.33l.25-24.34s-.45-1.81-2.2-1.94c-1.74-.13-12.48,3.37-14.55,5.93-2.07,2.56-.31,3.94-.31,3.94l16.8,16.41Z"/><path class="cls-4" d="m44.33,41.04l-23.76-.36s-1.71.43-1.65,2.1c.06,1.67,4.66,12,7.38,14,2.72,2,3.87.32,3.87.32l14.16-16.07Z"/><path class="cls-4" d="m46.04,43.44l-16.46,15.37s-.88,1.45.28,2.69c1.16,1.23,11.2,6.07,14.39,5.8,3.2-.27,2.85-2.31,2.85-2.31l-1.07-21.55Z"/><path class="cls-2" d="m47.05,46.97l1.59,79.2c-3.15.64-13.43,2.32-24.78-3.26-1.77-.87-10.69-5.42-16.95-15.71C-.53,94.96.78,82.81,1.77,77.71c.67-3.48,3.27-14.42,13.25-22.58,1.92-1.57,7.34-5.67,15.75-7.63,6.85-1.6,12.73-1.1,16.27-.53Z"/><path class="cls-3" d="m46.89,52.45l1.37,68.21c-2.72.55-11.56,2-21.34-2.81-1.52-.75-9.21-4.67-14.6-13.53-6.41-10.54-5.28-21-4.43-25.4.58-3,2.82-12.42,11.41-19.44,1.65-1.35,6.32-4.88,13.57-6.57,5.9-1.38,10.97-.94,14.01-.45Z"/><path class="cls-1" d="m47.29,56.77l1.2,59.53c-2.37.48-10.09,1.74-18.62-2.45-1.33-.65-8.04-4.07-12.74-11.81-5.6-9.2-4.61-18.33-3.86-22.17.51-2.62,2.46-10.84,9.96-16.97,1.44-1.18,5.51-4.26,11.84-5.74,5.15-1.2,9.57-.82,12.23-.4Z"/><path class="cls-4" d="m45.45,85.39l-17.2-18.41s-1.59-1.03-2.85.09c-1.26,1.12-5.89,11.3-5.45,14.67.45,3.37,2.6,3.17,2.6,3.17l22.89.48Z"/><path class="cls-4" d="m46.57,83.86l.25-24.34s-.45-1.81-2.2-1.94c-1.74-.13-12.48,3.37-14.55,5.93-2.07,2.56-.31,3.94-.31,3.94l16.8,16.41Z"/><path class="cls-4" d="m45.33,86.56l-23.76-.36s-1.71.43-1.65,2.1c.06,1.67,4.66,12,7.38,14,2.72,2,3.87.32,3.87.32l14.16-16.07Z"/><path class="cls-4" d="m47.04,88.96l-16.46,15.37s-.88,1.45.28,2.69c1.16,1.23,11.2,6.07,14.39,5.8,3.2-.27,2.85-2.31,2.85-2.31l-1.07-21.55Z"/></g></svg>