<?xml version="1.0" encoding="UTF-8"?><svg id="Layer_2" xmlns="http://www.w3.org/2000/svg" viewBox="0 0 175.34 222.78"><defs><style>.cls-1{fill:#f9facb;}.cls-1,.cls-2,.cls-3,.cls-4{stroke-width:0px;}.cls-2{fill:#f80;}.cls-3{fill:#ffa200;}.cls-4{fill:#ffb100;}</style></defs><g id="Layer_1-2"><path class="cls-2" d="m154.14,47.43l-77.93-.84c-.54-3.12-1.87-13.27,3.96-24.27.91-1.71,5.65-10.35,15.96-16.19C108.39-.82,120.3.84,125.29,1.97c3.4.77,14.08,3.66,21.8,13.72,1.48,1.93,5.35,7.39,7.03,15.72,1.36,6.78.69,12.56.02,16.01Z"/><path class="cls-3" d="m148.75,47.11l-67.12-.73c-.46-2.69-1.61-11.43,3.41-20.9.78-1.48,4.87-8.91,13.75-13.94,10.56-5.99,20.82-4.55,25.12-3.58,2.93.66,12.13,3.15,18.77,11.82,1.28,1.66,4.61,6.36,6.05,13.54,1.17,5.84.59,10.81.02,13.79Z"/><path class="cls-1" d="m144.5,47.37l-58.58-.64c-.4-2.35-1.41-9.98,2.98-18.24.68-1.29,4.25-7.78,12-12.17,9.22-5.22,18.17-3.97,21.92-3.13,2.56.58,10.59,2.75,16.38,10.31,1.11,1.45,4.02,5.55,5.28,11.82,1.02,5.1.52,9.44.02,12.04Z"/><path class="cls-4" d="m116.4,44.68l18.63-16.35s1.06-1.53,0-2.8c-1.07-1.27-10.93-6.14-14.26-5.8-3.33.34-3.19,2.46-3.19,2.46l-1.17,22.49Z"/><path class="cls-4" d="m117.88,45.84l23.93.99s1.79-.39,1.98-2.1c.19-1.71-2.94-12.37-5.39-14.49-2.45-2.12-3.86-.42-3.86-.42l-16.65,16.02Z"/><path class="cls-4" d="m115.26,44.53l1.07-23.35s-.37-1.69-2.02-1.69c-1.65,0-11.94,4.22-13.99,6.83-2.05,2.61-.43,3.8-.43,3.8l15.37,14.41Z"/><path class="cls-4" d="m112.84,46.14l-14.62-16.65s-1.4-.91-2.65.19c-1.25,1.1-6.31,10.83-6.14,13.98.17,3.15,2.18,2.88,2.18,2.88l21.22-.4Z"/><path class="cls-2" d="m105.6,45.58l-79.17,2.54c-.68-3.14-2.48-13.4,2.96-24.81.85-1.78,5.29-10.75,15.5-17.14C57.04-1.42,69.2-.25,74.32.68c3.49.63,14.46,3.1,22.73,12.98,1.59,1.9,5.75,7.27,7.82,15.66,1.68,6.83,1.25,12.72.72,16.26Z"/><path class="cls-3" d="m100.11,45.5l-68.19,2.19c-.59-2.71-2.13-11.54,2.55-21.37.73-1.53,4.56-9.26,13.35-14.76,10.46-6.54,20.94-5.53,25.35-4.73,3.01.54,12.45,2.67,19.58,11.18,1.37,1.63,4.96,6.26,6.73,13.49,1.45,5.88,1.07,10.95.62,14Z"/><path class="cls-1" d="m95.8,45.94l-59.51,1.91c-.51-2.36-1.86-10.07,2.23-18.65.64-1.34,3.98-8.08,11.65-12.88,9.13-5.71,18.28-4.83,22.12-4.13,2.62.48,10.87,2.33,17.09,9.76,1.19,1.43,4.33,5.46,5.88,11.77,1.26,5.13.94,9.56.54,12.22Z"/><path class="cls-4" d="m67.16,44.44l18.2-17.42s1.01-1.6-.13-2.85c-1.14-1.24-11.37-5.76-14.74-5.27-3.37.49-3.14,2.64-3.14,2.64l-.2,22.89Z"/><path class="cls-4" d="m68.71,45.55l24.34-.04s1.8-.48,1.91-2.22c.11-1.74-3.52-12.44-6.11-14.48-2.58-2.04-3.94-.26-3.94-.26l-16.21,17Z"/><path class="cls-4" d="m65.99,44.33l.07-23.76s-.45-1.7-2.12-1.63c-1.67.08-11.94,4.8-13.91,7.55-1.97,2.74-.27,3.88-.27,3.88l16.23,13.96Z"/><path class="cls-4" d="m63.61,46.08l-15.57-16.27s-1.46-.86-2.68.31c-1.22,1.17-5.93,11.27-5.62,14.46.31,3.19,2.34,2.83,2.34,2.83l21.53-1.33Z"/><path class="cls-2" d="m46.58,7.46l-.73,77.93c-3.12.54-13.27,1.89-24.27-3.93-1.72-.91-10.36-5.64-16.21-15.94C-1.6,53.28.05,41.37,1.17,36.38c.76-3.41,3.64-14.09,13.69-21.82,1.93-1.48,7.38-5.36,15.71-7.05,6.78-1.37,12.55-.71,16.01-.05Z"/><path class="cls-3" d="m46.27,12.85l-.63,67.12c-2.69.47-11.43,1.63-20.9-3.38-1.48-.78-8.92-4.86-13.96-13.73-6-10.55-4.58-20.81-3.62-25.11.66-2.93,3.13-12.13,11.79-18.79,1.66-1.28,6.35-4.62,13.53-6.07,5.84-1.18,10.81-.61,13.79-.04Z"/><path class="cls-1" d="m46.54,17.11l-.55,58.58c-2.34.41-9.98,1.42-18.24-2.95-1.29-.68-7.78-4.24-12.19-11.98-5.24-9.21-4-18.16-3.16-21.92.57-2.56,2.73-10.59,10.29-16.4,1.45-1.12,5.55-4.03,11.81-5.3,5.1-1.03,9.44-.53,12.04-.04Z"/><path class="cls-4" d="m43.89,45.2l-16.38-18.6s-1.53-1.06-2.8,0c-1.27,1.07-6.12,10.94-5.78,14.27.34,3.33,2.47,3.19,2.47,3.19l22.49,1.13Z"/><path class="cls-4" d="m45.04,43.72l.96-23.93s-.4-1.79-2.11-1.97c-1.71-.18-12.37,2.96-14.48,5.41-2.11,2.46-.42,3.86-.42,3.86l16.05,16.63Z"/><path class="cls-4" d="m43.74,46.35l-23.35-1.04s-1.69.37-1.68,2.02c.01,1.65,4.23,11.94,6.85,13.98,2.62,2.05,3.8.42,3.8.42l14.39-15.39Z"/><path class="cls-4" d="m45.36,48.76l-16.63,14.64s-.91,1.4.2,2.65c1.1,1.25,10.84,6.29,13.99,6.12,3.15-.17,2.87-2.19,2.87-2.19l-.43-21.22Z"/><path class="cls-2" d="m46.43,47.2l-.73,77.93c-3.12.54-13.27,1.89-24.27-3.93-1.72-.91-10.36-5.64-16.21-15.94C-1.75,93.02-.11,81.11,1.01,76.12c.76-3.41,3.64-14.09,13.69-21.82,1.93-1.48,7.38-5.36,15.71-7.05,6.78-1.37,12.55-.71,16.01-.05Z"/><path class="cls-3" d="m46.12,52.59l-.63,67.12c-2.69.47-11.43,1.63-20.9-3.38-1.48-.78-8.92-4.86-13.96-13.73-6-10.55-4.58-20.81-3.62-25.11.66-2.93,3.13-12.13,11.79-18.79,1.66-1.28,6.35-4.62,13.53-6.07,5.84-1.18,10.81-.61,13.79-.04Z"/><path class="cls-1" d="m46.39,56.85l-.55,58.58c-2.34.41-9.98,1.42-18.24-2.95-1.29-.68-7.78-4.24-12.19-11.98-5.24-9.21-4-18.16-3.16-21.92.57-2.56,2.73-10.59,10.29-16.4,1.45-1.12,5.55-4.03,11.81-5.3,5.1-1.03,9.44-.53,12.04-.04Z"/><path class="cls-4" d="m43.74,84.94l-16.38-18.6s-1.53-1.06-2.8,0c-1.27,1.07-6.12,10.94-5.78,14.27.34,3.33,2.47,3.19,2.47,3.19l22.49,1.13Z"/><path class="cls-4" d="m44.89,83.46l.96-23.93s-.4-1.79-2.11-1.97c-1.71-.18-12.37,2.96-14.48,5.41-2.11,2.46-.42,3.86-.42,3.86l16.05,16.63Z"/><path class="cls-4" d="m43.59,86.09l-23.35-1.04s-1.69.37-1.68,2.02c.01,1.65,4.23,11.94,6.85,13.98,2.62,2.05,3.8.42,3.8.42l14.39-15.39Z"/><path class="cls-4" d="m45.2,88.5l-16.63,14.64s-.91,1.4.2,2.65c1.1,1.25,10.84,6.29,13.99,6.12,3.15-.17,2.87-2.19,2.87-2.19l-.43-21.22Z"/><path class="cls-2" d="m65.03,176.37l79.17-2.54c.68,3.14,2.48,13.4-2.96,24.81-.85,1.78-5.29,10.75-15.5,17.14-12.15,7.59-24.31,6.42-29.43,5.49-3.49-.63-14.46-3.1-22.73-12.98-1.59-1.9-5.75-7.27-7.82-15.66-1.68-6.83-1.25-12.72-.72-16.26Z"/><path class="cls-3" d="m70.52,176.46l68.19-2.19c.59,2.71,2.13,11.54-2.55,21.37-.73,1.53-4.56,9.26-13.35,14.76-10.46,6.54-20.94,5.53-25.35,4.73-3.01-.54-12.45-2.67-19.58-11.18-1.37-1.63-4.96-6.26-6.73-13.49-1.45-5.88-1.07-10.95-.62-14Z"/><path class="cls-1" d="m74.83,176.01l59.51-1.91c.51,2.36,1.86,10.07-2.23,18.65-.64,1.34-3.98,8.08-11.65,12.88-9.13,5.71-18.28,4.83-22.12,4.13-2.62-.48-10.87-2.33-17.09-9.76-1.19-1.43-4.33-5.46-5.88-11.77-1.26-5.13-.94-9.56-.54-12.22Z"/><path class="cls-4" d="m103.47,177.51l-18.2,17.42s-1.01,1.6.13,2.85c1.14,1.24,11.37,5.76,14.74,5.27,3.37-.49,3.14-2.64,3.14-2.64l.2-22.89Z"/><path class="cls-4" d="m101.92,176.4l-24.34.04s-1.8.48-1.91,2.22c-.11,1.74,3.52,12.44,6.11,14.48,2.58,2.04,3.94.26,3.94.26l16.21-17Z"/><path class="cls-4" d="m104.64,177.62l-.07,23.76s.45,1.7,2.12,1.63c1.67-.08,11.94-4.8,13.91-7.55,1.97-2.74.27-3.88.27-3.88l-16.23-13.96Z"/><path class="cls-4" d="m107.03,175.87l15.57,16.27s1.46.86,2.68-.31c1.22-1.17,5.93-11.27,5.62-14.46-.31-3.19-2.34-2.83-2.34-2.83l-21.53,1.33Z"/><path class="cls-2" d="m26.07,85.49l77.93.84c.54,3.12,1.87,13.27-3.96,24.27-.91,1.71-5.65,10.35-15.96,16.19-12.26,6.95-24.17,5.28-29.16,4.16-3.4-.77-14.08-3.66-21.8-13.72-1.48-1.93-5.35-7.39-7.03-15.72-1.36-6.78-.69-12.56-.02-16.01Z"/><path class="cls-3" d="m31.46,85.81l67.12.73c.46,2.69,1.61,11.43-3.41,20.9-.78,1.48-4.87,8.91-13.75,13.94-10.56,5.99-20.82,4.55-25.12,3.58-2.93-.66-12.13-3.15-18.77-11.82-1.28-1.66-4.61-6.36-6.05-13.54-1.17-5.84-.59-10.81-.02-13.79Z"/><path class="cls-1" d="m35.72,85.55l58.58.64c.4,2.35,1.41,9.98-2.98,18.24-.68,1.29-4.25,7.78-12,12.17-9.22,5.22-18.17,3.97-21.92,3.13-2.56-.58-10.59-2.75-16.38-10.31-1.11-1.45-4.02-5.55-5.28-11.82-1.02-5.1-.52-9.44-.02-12.04Z"/><path class="cls-4" d="m63.81,88.24l-18.63,16.35s-1.06,1.53,0,2.8c1.07,1.27,10.93,6.14,14.26,5.8,3.33-.34,3.19-2.46,3.19-2.46l1.17-22.49Z"/><path class="cls-4" d="m62.33,87.08l-23.93-.99s-1.79.39-1.98,2.1c-.19,1.71,2.94,12.37,5.39,14.49,2.45,2.12,3.86.42,3.86.42l16.65-16.02Z"/><path class="cls-4" d="m64.96,88.39l-1.07,23.35s.37,1.69,2.02,1.69c1.65,0,11.94-4.22,13.99-6.83,2.05-2.61.43-3.8.43-3.8l-15.37-14.41Z"/><path class="cls-4" d="m67.37,86.78l14.62,16.65s1.4.91,2.65-.19c1.25-1.1,6.31-10.83,6.14-13.98-.17-3.15-2.18-2.88-2.18-2.88l-21.22.4Z"/><path class="cls-2" d="m72.62,85.34l79.17-2.54c.68,3.14,2.48,13.4-2.96,24.81-.85,1.78-5.29,10.75-15.5,17.14-12.15,7.59-24.31,6.42-29.43,5.49-3.49-.63-14.46-3.1-22.73-12.98-1.59-1.9-5.75-7.27-7.82-15.66-1.68-6.83-1.25-12.72-.72-16.26Z"/><path class="cls-3" d="m78.1,85.42l68.19-2.19c.59,2.71,2.13,11.54-2.55,21.37-.73,1.53-4.56,9.26-13.35,14.76-10.46,6.54-20.94,5.53-25.35,4.73-3.01-.54-12.45-2.67-19.58-11.18-1.37-1.63-4.96-6.26-6.73-13.49-1.45-5.88-1.07-10.95-.62-14Z"/><path class="cls-1" d="m82.41,84.98l59.51-1.91c.51,2.36,1.86,10.07-2.23,18.65-.64,1.34-3.98,8.08-11.65,12.88-9.13,5.71-18.28,4.83-22.12,4.13-2.62-.48-10.87-2.33-17.09-9.76-1.19-1.43-4.33-5.46-5.88-11.77-1.26-5.13-.94-9.56-.54-12.22Z"/><path class="cls-4" d="m111.06,86.48l-18.2,17.42s-1.01,1.6.13,2.85c1.14,1.24,11.37,5.76,14.74,5.27,3.37-.49,3.14-2.64,3.14-2.64l.2-22.89Z"/><path class="cls-4" d="m109.5,85.37l-24.34.04s-1.8.48-1.91,2.22c-.11,1.74,3.52,12.44,6.11,14.48,2.58,2.04,3.94.26,3.94.26l16.21-17Z"/><path class="cls-4" d="m112.23,86.59l-.07,23.76s.45,1.7,2.12,1.63c1.67-.08,11.94-4.8,13.91-7.55,1.97-2.74.27-3.88.27-3.88l-16.23-13.96Z"/><path class="cls-4" d="m114.61,84.84l15.57,16.27s1.46.86,2.68-.31c1.22-1.17,5.93-11.27,5.62-14.46-.31-3.19-2.34-2.83-2.34-2.83l-21.53,1.33Z"/><path class="cls-2" d="m129.52,159.16l-2.04-79.19c3.15-.66,13.41-2.39,24.79,3.12,1.77.86,10.72,5.36,17.04,15.61,7.52,12.2,6.27,24.35,5.31,29.47-.65,3.49-3.19,14.44-13.13,22.65-1.91,1.58-7.3,5.71-15.71,7.72-6.84,1.64-12.73,1.17-16.27.62Z"/><path class="cls-3" d="m129.64,153.68l-1.76-68.2c2.71-.57,11.55-2.06,21.35,2.69,1.53.74,9.23,4.61,14.67,13.45,6.47,10.51,5.4,20.97,4.57,25.38-.56,3-2.75,12.44-11.3,19.51-1.64,1.36-6.29,4.92-13.53,6.65-5.89,1.41-10.96,1-14.01.53Z"/><path class="cls-1" d="m129.21,149.36l-1.53-59.52c2.37-.5,10.08-1.8,18.64,2.35,1.33.65,8.06,4.03,12.81,11.73,5.65,9.17,4.71,18.31,3.99,22.15-.49,2.62-2.4,10.85-9.87,17.03-1.43,1.19-5.49,4.29-11.81,5.8-5.14,1.23-9.57.88-12.23.47Z"/><path class="cls-4" d="m130.9,120.73l17.3,18.31s1.6,1.02,2.85-.11c1.25-1.13,5.83-11.33,5.36-14.7-.47-3.37-2.62-3.15-2.62-3.15l-22.89-.35Z"/><path class="cls-4" d="m129.78,122.27l-.12,24.34s.47,1.8,2.21,1.93c1.74.13,12.46-3.44,14.51-6.01,2.06-2.57.29-3.94.29-3.94l-16.89-16.32Z"/><path class="cls-4" d="m131.01,119.56l23.76.22s1.71-.44,1.64-2.11c-.07-1.67-4.73-11.97-7.46-13.96-2.73-1.99-3.87-.29-3.87-.29l-14.07,16.14Z"/><path class="cls-4" d="m129.29,117.17l16.37-15.46s.87-1.46-.29-2.69c-1.17-1.23-11.23-6-14.43-5.72-3.19.29-2.84,2.33-2.84,2.33l1.19,21.54Z"/><path class="cls-2" d="m14.8,177.2l79.17-2.54c.68,3.14,2.48,13.4-2.96,24.81-.85,1.78-5.29,10.75-15.5,17.14-12.15,7.59-24.31,6.42-29.43,5.49-3.49-.63-14.46-3.1-22.73-12.98-1.59-1.9-5.75-7.27-7.82-15.66-1.68-6.83-1.25-12.72-.72-16.26Z"/><path class="cls-3" d="m20.28,177.28l68.19-2.19c.59,2.71,2.13,11.54-2.55,21.37-.73,1.53-4.56,9.26-13.35,14.76-10.46,6.54-20.94,5.53-25.35,4.73-3.01-.54-12.45-2.67-19.58-11.18-1.37-1.63-4.96-6.26-6.73-13.49-1.45-5.88-1.07-10.95-.62-14Z"/><path class="cls-1" d="m24.59,176.83l59.51-1.91c.51,2.36,1.86,10.07-2.23,18.65-.64,1.34-3.98,8.08-11.65,12.88-9.13,5.71-18.28,4.83-22.12,4.13-2.62-.48-10.87-2.33-17.09-9.76-1.19-1.43-4.33-5.46-5.88-11.77-1.26-5.13-.94-9.56-.54-12.22Z"/><path class="cls-4" d="m53.24,178.34l-18.2,17.42s-1.01,1.6.13,2.85c1.14,1.24,11.37,5.76,14.74,5.27,3.37-.49,3.14-2.64,3.14-2.64l.2-22.89Z"/><path class="cls-4" d="m51.68,177.23l-24.34.04s-1.8.48-1.91,2.22c-.11,1.74,3.52,12.44,6.11,14.48,2.58,2.04,3.94.26,3.94.26l16.21-17Z"/><path class="cls-4" d="m54.41,178.44l-.07,23.76s.45,1.7,2.12,1.63c1.67-.08,11.94-4.8,13.91-7.55,1.97-2.74.27-3.88.27-3.88l-16.23-13.96Z"/><path class="cls-4" d="m56.79,176.7l15.57,16.27s1.46.86,2.68-.31c1.22-1.17,5.93-11.27,5.62-14.46-.31-3.19-2.34-2.83-2.34-2.83l-21.53,1.33Z"/><path class="cls-2" d="m129.52,217.35l-2.04-79.19c3.15-.66,13.41-2.39,24.79,3.12,1.77.86,10.72,5.36,17.04,15.61,7.52,12.2,6.27,24.35,5.31,29.47-.65,3.49-3.19,14.44-13.13,22.65-1.91,1.58-7.3,5.71-15.71,7.72-6.84,1.64-12.73,1.17-16.27.62Z"/><path class="cls-3" d="m129.64,211.86l-1.76-68.2c2.71-.57,11.55-2.06,21.35,2.69,1.53.74,9.23,4.61,14.67,13.45,6.47,10.51,5.4,20.97,4.57,25.38-.56,3-2.75,12.44-11.3,19.51-1.64,1.36-6.29,4.92-13.53,6.65-5.89,1.41-10.96,1-14.01.53Z"/><path class="cls-1" d="m129.21,207.55l-1.53-59.52c2.37-.5,10.08-1.8,18.64,2.35,1.33.65,8.06,4.03,12.81,11.73,5.65,9.17,4.71,18.31,3.99,22.15-.49,2.62-2.4,10.85-9.87,17.03-1.43,1.19-5.49,4.29-11.81,5.8-5.14,1.23-9.57.88-12.23.47Z"/><path class="cls-4" d="m130.9,178.91l17.3,18.31s1.6,1.02,2.85-.11c1.25-1.13,5.83-11.33,5.36-14.7-.47-3.37-2.62-3.15-2.62-3.15l-22.89-.35Z"/><path class="cls-4" d="m129.78,180.46l-.12,24.34s.47,1.8,2.21,1.93c1.74.13,12.46-3.44,14.51-6.01,2.06-2.57.29-3.94.29-3.94l-16.89-16.32Z"/><path class="cls-4" d="m131.01,177.74l23.76.22s1.71-.44,1.64-2.11c-.07-1.67-4.73-11.97-7.46-13.96-2.73-1.99-3.87-.29-3.87-.29l-14.07,16.14Z"/><path class="cls-4" d="m129.29,175.35l16.37-15.46s.87-1.46-.29-2.69c-1.17-1.23-11.23-6-14.43-5.72-3.19.29-2.84,2.33-2.84,2.33l1.19,21.54Z"/></g></svg>