<?xml version="1.0" encoding="UTF-8"?><svg id="Layer_2" xmlns="http://www.w3.org/2000/svg" viewBox="0 0 182.58 235.09"><defs><style>.cls-1{fill:#f9facb;}.cls-1,.cls-2,.cls-3,.cls-4{stroke-width:0px;}.cls-2{fill:#f80;}.cls-3{fill:#ffa200;}.cls-4{fill:#ffb100;}</style></defs><g id="Layer_1-2"><path class="cls-2" d="m162.48,45.58l-79.17,2.54c-.68-3.14-2.48-13.4,2.96-24.81.85-1.78,5.29-10.75,15.5-17.14C113.93-1.42,126.09-.25,131.21.68c3.49.63,14.46,3.1,22.73,12.98,1.59,1.9,5.75,7.27,7.82,15.66,1.68,6.83,1.25,12.72.72,16.26Z"/><path class="cls-3" d="m157,45.5l-68.19,2.19c-.59-2.71-2.13-11.54,2.55-21.37.73-1.53,4.56-9.26,13.35-14.76,10.46-6.54,20.94-5.53,25.35-4.73,3.01.54,12.45,2.67,19.58,11.18,1.37,1.63,4.96,6.26,6.73,13.49,1.45,5.88,1.07,10.95.62,14Z"/><path class="cls-1" d="m152.69,45.94l-59.51,1.91c-.51-2.36-1.86-10.07,2.23-18.65.64-1.34,3.98-8.08,11.65-12.88,9.13-5.71,18.28-4.83,22.12-4.13,2.62.48,10.87,2.33,17.09,9.76,1.19,1.43,4.33,5.46,5.88,11.77,1.26,5.13.94,9.56.54,12.22Z"/><path class="cls-4" d="m124.04,44.44l18.2-17.42s1.01-1.6-.13-2.85c-1.14-1.24-11.37-5.76-14.74-5.27-3.37.49-3.14,2.64-3.14,2.64l-.2,22.89Z"/><path class="cls-4" d="m125.59,45.55l24.34-.04s1.8-.48,1.91-2.22c.11-1.74-3.52-12.44-6.11-14.48-2.58-2.04-3.94-.26-3.94-.26l-16.21,17Z"/><path class="cls-4" d="m122.87,44.33l.07-23.76s-.45-1.7-2.12-1.63c-1.67.08-11.94,4.8-13.91,7.55-1.97,2.74-.27,3.88-.27,3.88l16.23,13.96Z"/><path class="cls-4" d="m120.49,46.08l-15.57-16.27s-1.46-.86-2.68.31c-1.22,1.17-5.93,11.27-5.62,14.46.31,3.19,2.34,2.83,2.34,2.83l21.53-1.33Z"/><path class="cls-2" d="m102.8,46.84l-79.17,2.54c-.68-3.14-2.48-13.4,2.96-24.81.85-1.78,5.29-10.75,15.5-17.14C54.25-.17,66.41,1.01,71.53,1.93c3.49.63,14.46,3.1,22.73,12.98,1.59,1.9,5.75,7.27,7.82,15.66,1.68,6.83,1.25,12.72.72,16.26Z"/><path class="cls-3" d="m97.32,46.75l-68.19,2.19c-.59-2.71-2.13-11.54,2.55-21.37.73-1.53,4.56-9.26,13.35-14.76,10.46-6.54,20.94-5.53,25.35-4.73,3.01.54,12.45,2.67,19.58,11.18,1.37,1.63,4.96,6.26,6.73,13.49,1.45,5.88,1.07,10.95.62,14Z"/><path class="cls-1" d="m93.01,47.2l-59.51,1.91c-.51-2.36-1.86-10.07,2.23-18.65.64-1.34,3.98-8.08,11.65-12.88,9.13-5.71,18.28-4.83,22.12-4.13,2.62.48,10.87,2.33,17.09,9.76,1.19,1.43,4.33,5.46,5.88,11.77,1.26,5.13.94,9.56.54,12.22Z"/><path class="cls-4" d="m64.36,45.7l18.2-17.42s1.01-1.6-.13-2.85c-1.14-1.24-11.37-5.76-14.74-5.27-3.37.49-3.14,2.64-3.14,2.64l-.2,22.89Z"/><path class="cls-4" d="m65.92,46.8l24.34-.04s1.8-.48,1.91-2.22c.11-1.74-3.52-12.44-6.11-14.48-2.58-2.04-3.94-.26-3.94-.26l-16.21,17Z"/><path class="cls-4" d="m63.19,45.59l.07-23.76s-.45-1.7-2.12-1.63c-1.67.08-11.94,4.8-13.91,7.55-1.97,2.74-.27,3.88-.27,3.88l16.23,13.96Z"/><path class="cls-4" d="m60.81,47.33l-15.57-16.27s-1.46-.86-2.68.31c-1.22,1.17-5.93,11.27-5.62,14.46.31,3.19,2.34,2.83,2.34,2.83l21.53-1.33Z"/><path class="cls-2" d="m46.58,32.05l-.73,77.93c-3.12.54-13.27,1.89-24.27-3.93-1.72-.91-10.36-5.64-16.21-15.94C-1.6,77.87.05,65.96,1.17,60.97c.76-3.41,3.64-14.09,13.69-21.82,1.93-1.48,7.38-5.36,15.71-7.05,6.78-1.37,12.55-.71,16.01-.05Z"/><path class="cls-3" d="m46.27,37.44l-.63,67.12c-2.69.47-11.43,1.63-20.9-3.38-1.48-.78-8.92-4.86-13.96-13.73-6-10.55-4.58-20.81-3.62-25.11.66-2.93,3.13-12.13,11.79-18.79,1.66-1.28,6.35-4.62,13.53-6.07,5.84-1.18,10.81-.61,13.79-.04Z"/><path class="cls-1" d="m46.54,41.7l-.55,58.58c-2.34.41-9.98,1.42-18.24-2.95-1.29-.68-7.78-4.24-12.19-11.98-5.24-9.21-4-18.16-3.16-21.92.57-2.56,2.73-10.59,10.29-16.4,1.45-1.12,5.55-4.03,11.81-5.3,5.1-1.03,9.44-.53,12.04-.04Z"/><path class="cls-4" d="m43.89,69.79l-16.38-18.6s-1.53-1.06-2.8,0c-1.27,1.07-6.12,10.94-5.78,14.27.34,3.33,2.47,3.19,2.47,3.19l22.49,1.13Z"/><path class="cls-4" d="m45.04,68.31l.96-23.93s-.4-1.79-2.11-1.97c-1.71-.18-12.37,2.96-14.48,5.41-2.11,2.46-.42,3.86-.42,3.86l16.05,16.63Z"/><path class="cls-4" d="m43.74,70.94l-23.35-1.04s-1.69.37-1.68,2.02c.01,1.65,4.23,11.94,6.85,13.98,2.62,2.05,3.8.42,3.8.42l14.39-15.39Z"/><path class="cls-4" d="m45.36,73.35l-16.63,14.64s-.91,1.4.2,2.65c1.1,1.25,10.84,6.29,13.99,6.12,3.15-.17,2.87-2.19,2.87-2.19l-.43-21.22Z"/><path class="cls-2" d="m46.43,71.79l-.73,77.93c-3.12.54-13.27,1.89-24.27-3.93-1.72-.91-10.36-5.64-16.21-15.94C-1.75,117.61-.11,105.7,1.01,100.71c.76-3.41,3.64-14.09,13.69-21.82,1.93-1.48,7.38-5.36,15.71-7.05,6.78-1.37,12.55-.71,16.01-.05Z"/><path class="cls-3" d="m46.12,77.18l-.63,67.12c-2.69.47-11.43,1.63-20.9-3.38-1.48-.78-8.92-4.86-13.96-13.73-6-10.55-4.58-20.81-3.62-25.11.66-2.93,3.13-12.13,11.79-18.79,1.66-1.28,6.35-4.62,13.53-6.07,5.84-1.18,10.81-.61,13.79-.04Z"/><path class="cls-1" d="m46.39,81.44l-.55,58.58c-2.34.41-9.98,1.42-18.24-2.95-1.29-.68-7.78-4.24-12.19-11.98-5.24-9.21-4-18.16-3.16-21.92.57-2.56,2.73-10.59,10.29-16.4,1.45-1.12,5.55-4.03,11.81-5.3,5.1-1.03,9.44-.53,12.04-.04Z"/><path class="cls-4" d="m43.74,109.53l-16.38-18.6s-1.53-1.06-2.8,0c-1.27,1.07-6.12,10.94-5.78,14.27.34,3.33,2.47,3.19,2.47,3.19l22.49,1.13Z"/><path class="cls-4" d="m44.89,108.05l.96-23.93s-.4-1.79-2.11-1.97c-1.71-.18-12.37,2.96-14.48,5.41-2.11,2.46-.42,3.86-.42,3.86l16.05,16.63Z"/><path class="cls-4" d="m43.59,110.68l-23.35-1.04s-1.69.37-1.68,2.02c.01,1.65,4.23,11.94,6.85,13.98,2.62,2.05,3.8.42,3.8.42l14.39-15.39Z"/><path class="cls-4" d="m45.2,113.09l-16.63,14.64s-.91,1.4.2,2.65c1.1,1.25,10.84,6.29,13.99,6.12,3.15-.17,2.87-2.19,2.87-2.19l-.43-21.22Z"/><path class="cls-2" d="m47.62,107.95l-.73,77.93c-3.12.54-13.27,1.89-24.27-3.93-1.72-.91-10.36-5.64-16.21-15.94-6.97-12.25-5.32-24.16-4.2-29.16.76-3.41,3.64-14.09,13.69-21.82,1.93-1.48,7.38-5.36,15.71-7.05,6.78-1.37,12.55-.71,16.01-.05Z"/><path class="cls-3" d="m47.31,113.34l-.63,67.12c-2.69.47-11.43,1.63-20.9-3.38-1.48-.78-8.92-4.86-13.96-13.73-6-10.55-4.58-20.81-3.62-25.11.66-2.93,3.13-12.13,11.79-18.79,1.66-1.28,6.35-4.62,13.53-6.07,5.84-1.18,10.81-.61,13.79-.04Z"/><path class="cls-1" d="m47.58,117.6l-.55,58.58c-2.34.41-9.98,1.42-18.24-2.95-1.29-.68-7.78-4.24-12.19-11.98-5.24-9.21-4-18.16-3.16-21.92.57-2.56,2.73-10.59,10.29-16.4,1.45-1.12,5.55-4.03,11.81-5.3,5.1-1.03,9.44-.53,12.04-.04Z"/><path class="cls-4" d="m44.93,145.69l-16.38-18.6s-1.53-1.06-2.8,0c-1.27,1.07-6.12,10.94-5.78,14.27.34,3.33,2.47,3.19,2.47,3.19l22.49,1.13Z"/><path class="cls-4" d="m46.09,144.21l.96-23.93s-.4-1.79-2.11-1.97c-1.71-.18-12.37,2.96-14.48,5.41-2.11,2.46-.42,3.86-.42,3.86l16.05,16.63Z"/><path class="cls-4" d="m44.78,146.84l-23.35-1.04s-1.69.37-1.68,2.02c.01,1.65,4.23,11.94,6.85,13.98,2.62,2.05,3.8.42,3.8.42l14.39-15.39Z"/><path class="cls-4" d="m46.4,149.25l-16.63,14.64s-.91,1.4.2,2.65c1.1,1.25,10.84,6.29,13.99,6.12,3.15-.17,2.87-2.19,2.87-2.19l-.43-21.22Z"/><path class="cls-2" d="m47.62,153.63l-.73,77.93c-3.12.54-13.27,1.89-24.27-3.93-1.72-.91-10.36-5.64-16.21-15.94-6.97-12.25-5.32-24.16-4.2-29.16.76-3.41,3.64-14.09,13.69-21.82,1.93-1.48,7.38-5.36,15.71-7.05,6.78-1.37,12.55-.71,16.01-.05Z"/><path class="cls-3" d="m47.31,159.02l-.63,67.12c-2.69.47-11.43,1.63-20.9-3.38-1.48-.78-8.92-4.86-13.96-13.73-6-10.55-4.58-20.81-3.62-25.11.66-2.93,3.13-12.13,11.79-18.79,1.66-1.28,6.35-4.62,13.53-6.07,5.84-1.18,10.81-.61,13.79-.04Z"/><path class="cls-1" d="m47.58,163.27l-.55,58.58c-2.34.41-9.98,1.42-18.24-2.95-1.29-.68-7.78-4.24-12.19-11.98-5.24-9.21-4-18.16-3.16-21.92.57-2.56,2.73-10.59,10.29-16.4,1.45-1.12,5.55-4.03,11.81-5.3,5.1-1.03,9.44-.53,12.04-.04Z"/><path class="cls-4" d="m44.93,191.37l-16.38-18.6s-1.53-1.06-2.8,0c-1.27,1.07-6.12,10.94-5.78,14.27.34,3.33,2.47,3.19,2.47,3.19l22.49,1.13Z"/><path class="cls-4" d="m46.09,189.89l.96-23.93s-.4-1.79-2.11-1.97c-1.71-.18-12.37,2.96-14.48,5.41-2.11,2.46-.42,3.86-.42,3.86l16.05,16.63Z"/><path class="cls-4" d="m44.78,192.52l-23.35-1.04s-1.69.37-1.68,2.02c.01,1.65,4.23,11.94,6.85,13.98,2.62,2.05,3.8.42,3.8.42l14.39-15.39Z"/><path class="cls-4" d="m46.4,194.93l-16.63,14.64s-.91,1.4.2,2.65c1.1,1.25,10.84,6.29,13.99,6.12,3.15-.17,2.87-2.19,2.87-2.19l-.43-21.22Z"/><path class="cls-2" d="m167.33,126.32l-79.17,2.54c-.68-3.14-2.48-13.4,2.96-24.81.85-1.78,5.29-10.75,15.5-17.14,12.15-7.59,24.31-6.42,29.43-5.49,3.49.63,14.46,3.1,22.73,12.98,1.59,1.9,5.75,7.27,7.82,15.66,1.68,6.83,1.25,12.72.72,16.26Z"/><path class="cls-3" d="m161.85,126.24l-68.19,2.19c-.59-2.71-2.13-11.54,2.55-21.37.73-1.53,4.56-9.26,13.35-14.76,10.46-6.54,20.94-5.53,25.35-4.73,3.01.54,12.45,2.67,19.58,11.18,1.37,1.63,4.96,6.26,6.73,13.49,1.45,5.88,1.07,10.95.62,14Z"/><path class="cls-1" d="m157.54,126.69l-59.51,1.91c-.51-2.36-1.86-10.07,2.23-18.65.64-1.34,3.98-8.08,11.65-12.88,9.13-5.71,18.28-4.83,22.12-4.13,2.62.48,10.87,2.33,17.09,9.76,1.19,1.43,4.33,5.46,5.88,11.77,1.26,5.13.94,9.56.54,12.22Z"/><path class="cls-4" d="m128.89,125.18l18.2-17.42s1.01-1.6-.13-2.85c-1.14-1.24-11.37-5.76-14.74-5.27-3.37.49-3.14,2.64-3.14,2.64l-.2,22.89Z"/><path class="cls-4" d="m130.44,126.29l24.34-.04s1.8-.48,1.91-2.22c.11-1.74-3.52-12.44-6.11-14.48-2.58-2.04-3.94-.26-3.94-.26l-16.21,17Z"/><path class="cls-4" d="m127.72,125.08l.07-23.76s-.45-1.7-2.12-1.63c-1.67.08-11.94,4.8-13.91,7.55-1.97,2.74-.27,3.88-.27,3.88l16.23,13.96Z"/><path class="cls-4" d="m125.34,126.82l-15.57-16.27s-1.46-.86-2.68.31c-1.22,1.17-5.93,11.27-5.62,14.46.31,3.19,2.34,2.83,2.34,2.83l21.53-1.33Z"/><path class="cls-2" d="m107.65,127.58l-79.17,2.54c-.68-3.14-2.48-13.4,2.96-24.81.85-1.78,5.29-10.75,15.5-17.14,12.15-7.59,24.31-6.42,29.43-5.49,3.49.63,14.46,3.1,22.73,12.98,1.59,1.9,5.75,7.27,7.82,15.66,1.68,6.83,1.25,12.72.72,16.26Z"/><path class="cls-3" d="m102.17,127.49l-68.19,2.19c-.59-2.71-2.13-11.54,2.55-21.37.73-1.53,4.56-9.26,13.35-14.76,10.46-6.54,20.94-5.53,25.35-4.73,3.01.54,12.45,2.67,19.58,11.18,1.37,1.63,4.96,6.26,6.73,13.49,1.45,5.88,1.07,10.95.62,14Z"/><path class="cls-1" d="m97.86,127.94l-59.51,1.91c-.51-2.36-1.86-10.07,2.23-18.65.64-1.34,3.98-8.08,11.65-12.88,9.13-5.71,18.28-4.83,22.12-4.13,2.62.48,10.87,2.33,17.09,9.76,1.19,1.43,4.33,5.46,5.88,11.77,1.26,5.13.94,9.56.54,12.22Z"/><path class="cls-4" d="m69.21,126.44l18.2-17.42s1.01-1.6-.13-2.85c-1.14-1.24-11.37-5.76-14.74-5.27-3.37.49-3.14,2.64-3.14,2.64l-.2,22.89Z"/><path class="cls-4" d="m70.77,127.55l24.34-.04s1.8-.48,1.91-2.22c.11-1.74-3.52-12.44-6.11-14.48-2.58-2.04-3.94-.26-3.94-.26l-16.21,17Z"/><path class="cls-4" d="m68.04,126.33l.07-23.76s-.45-1.7-2.12-1.63c-1.67.08-11.94,4.8-13.91,7.55-1.97,2.74-.27,3.88-.27,3.88l16.23,13.96Z"/><path class="cls-4" d="m65.66,128.07l-15.57-16.27s-1.46-.86-2.68.31c-1.22,1.17-5.93,11.27-5.62,14.46.31,3.19,2.34,2.83,2.34,2.83l21.53-1.33Z"/><path class="cls-2" d="m30.49,189.51l79.17-2.54c.68,3.14,2.48,13.4-2.96,24.81-.85,1.78-5.29,10.75-15.5,17.14-12.15,7.59-24.31,6.42-29.43,5.49-3.49-.63-14.46-3.1-22.73-12.98-1.59-1.9-5.75-7.27-7.82-15.66-1.68-6.83-1.25-12.72-.72-16.26Z"/><path class="cls-3" d="m35.97,189.59l68.19-2.19c.59,2.71,2.13,11.54-2.55,21.37-.73,1.53-4.56,9.26-13.35,14.76-10.46,6.54-20.94,5.53-25.35,4.73-3.01-.54-12.45-2.67-19.58-11.18-1.37-1.63-4.96-6.26-6.73-13.49-1.45-5.88-1.07-10.95-.62-14Z"/><path class="cls-1" d="m40.28,189.14l59.51-1.91c.51,2.36,1.86,10.07-2.23,18.65-.64,1.34-3.98,8.08-11.65,12.88-9.13,5.71-18.28,4.83-22.12,4.13-2.62-.48-10.87-2.33-17.09-9.76-1.19-1.43-4.33-5.46-5.88-11.77-1.26-5.13-.94-9.56-.54-12.22Z"/><path class="cls-4" d="m68.93,190.65l-18.2,17.42s-1.01,1.6.13,2.85c1.14,1.24,11.37,5.76,14.74,5.27,3.37-.49,3.14-2.64,3.14-2.64l.2-22.89Z"/><path class="cls-4" d="m67.38,189.54l-24.34.04s-1.8.48-1.91,2.22c-.11,1.74,3.52,12.44,6.11,14.48,2.58,2.04,3.94.26,3.94.26l16.21-17Z"/><path class="cls-4" d="m70.1,190.75l-.07,23.76s.45,1.7,2.12,1.63c1.67-.08,11.94-4.8,13.91-7.55,1.97-2.74.27-3.88.27-3.88l-16.23-13.96Z"/><path class="cls-4" d="m72.48,189.01l15.57,16.27s1.46.86,2.68-.31c1.22-1.17,5.93-11.27,5.62-14.46-.31-3.19-2.34-2.83-2.34-2.83l-21.53,1.33Z"/><path class="cls-2" d="m90.16,188.25l79.17-2.54c.68,3.14,2.48,13.4-2.96,24.81-.85,1.78-5.29,10.75-15.5,17.14-12.15,7.59-24.31,6.42-29.43,5.49-3.49-.63-14.46-3.1-22.73-12.98-1.59-1.9-5.75-7.27-7.82-15.66-1.68-6.83-1.25-12.72-.72-16.26Z"/><path class="cls-3" d="m95.65,188.34l68.19-2.19c.59,2.71,2.13,11.54-2.55,21.37-.73,1.53-4.56,9.26-13.35,14.76-10.46,6.54-20.94,5.53-25.35,4.73-3.01-.54-12.45-2.67-19.58-11.18-1.37-1.63-4.96-6.26-6.73-13.49-1.45-5.88-1.07-10.95-.62-14Z"/><path class="cls-1" d="m99.96,187.89l59.51-1.91c.51,2.36,1.86,10.07-2.23,18.65-.64,1.34-3.98,8.08-11.65,12.88-9.13,5.71-18.28,4.83-22.12,4.13-2.62-.48-10.87-2.33-17.09-9.76-1.19-1.43-4.33-5.46-5.88-11.77-1.26-5.13-.94-9.56-.54-12.22Z"/><path class="cls-4" d="m128.6,189.39l-18.2,17.42s-1.01,1.6.13,2.85c1.14,1.24,11.37,5.76,14.74,5.27,3.37-.49,3.14-2.64,3.14-2.64l.2-22.89Z"/><path class="cls-4" d="m127.05,188.28l-24.34.04s-1.8.48-1.91,2.22c-.11,1.74,3.52,12.44,6.11,14.48,2.58,2.04,3.94.26,3.94.26l16.21-17Z"/><path class="cls-4" d="m129.77,189.5l-.07,23.76s.45,1.7,2.12,1.63c1.67-.08,11.94-4.8,13.91-7.55,1.97-2.74.27-3.88.27-3.88l-16.23-13.96Z"/><path class="cls-4" d="m132.16,187.76l15.57,16.27s1.46.86,2.68-.31c1.22-1.17,5.93-11.27,5.62-14.46-.31-3.19-2.34-2.83-2.34-2.83l-21.53,1.33Z"/><path class="cls-2" d="m136.99,193.41l-2.54-79.17c3.14-.68,13.4-2.48,24.81,2.96,1.78.85,10.75,5.29,17.14,15.5,7.59,12.15,6.42,24.31,5.49,29.43-.63,3.49-3.1,14.46-12.98,22.73-1.9,1.59-7.27,5.75-15.66,7.82-6.83,1.68-12.72,1.25-16.26.72Z"/><path class="cls-3" d="m137.08,187.92l-2.19-68.19c2.71-.59,11.54-2.13,21.37,2.55,1.53.73,9.26,4.56,14.76,13.35,6.54,10.46,5.53,20.94,4.73,25.35-.54,3.01-2.67,12.45-11.18,19.58-1.63,1.37-6.26,4.96-13.49,6.73-5.88,1.45-10.95,1.07-14,.62Z"/><path class="cls-1" d="m136.63,183.61l-1.91-59.51c2.36-.51,10.07-1.86,18.65,2.23,1.34.64,8.08,3.98,12.88,11.65,5.71,9.13,4.83,18.28,4.13,22.12-.48,2.62-2.33,10.87-9.76,17.09-1.43,1.19-5.46,4.33-11.77,5.88-5.13,1.26-9.56.94-12.22.54Z"/><path class="cls-4" d="m138.13,154.97l17.42,18.2s1.6,1.01,2.85-.13c1.24-1.14,5.76-11.37,5.27-14.74-.49-3.37-2.64-3.14-2.64-3.14l-22.89-.2Z"/><path class="cls-4" d="m137.03,156.52l.04,24.34s.48,1.8,2.22,1.91c1.74.11,12.44-3.52,14.48-6.11,2.04-2.58.26-3.94.26-3.94l-17-16.21Z"/><path class="cls-4" d="m138.24,153.8l23.76.07s1.7-.45,1.63-2.12c-.08-1.67-4.8-11.94-7.55-13.91-2.74-1.97-3.88-.27-3.88-.27l-13.96,16.23Z"/><path class="cls-4" d="m136.5,151.41l16.27-15.57s.86-1.46-.31-2.68c-1.17-1.22-11.27-5.93-14.46-5.62-3.19.31-2.83,2.34-2.83,2.34l1.33,21.53Z"/></g></svg>