<?xml version="1.0" encoding="UTF-8"?><svg id="Layer_2" xmlns="http://www.w3.org/2000/svg" viewBox="0 0 167.58 225.21"><defs><style>.cls-1{fill:#f9facb;}.cls-1,.cls-2,.cls-3,.cls-4{stroke-width:0px;}.cls-2{fill:#f80;}.cls-3{fill:#ffa200;}.cls-4{fill:#ffb100;}</style></defs><g id="Layer_1-2"><path class="cls-2" d="m78.45,46.48L.52,45.64c-.54-3.12-1.87-13.27,3.96-24.27.91-1.71,5.65-10.35,15.96-16.19C32.71-1.77,44.61-.1,49.6,1.03c3.4.77,14.08,3.66,21.8,13.72,1.48,1.93,5.35,7.39,7.03,15.72,1.36,6.78.69,12.56.02,16.01Z"/><path class="cls-3" d="m73.06,46.17l-67.12-.73c-.46-2.69-1.61-11.43,3.41-20.9.78-1.48,4.87-8.91,13.75-13.94,10.56-5.99,20.82-4.55,25.12-3.58,2.93.66,12.13,3.15,18.77,11.82,1.28,1.66,4.61,6.36,6.05,13.54,1.17,5.84.59,10.81.02,13.79Z"/><path class="cls-1" d="m68.81,46.43l-58.58-.64c-.4-2.35-1.41-9.98,2.98-18.24.68-1.29,4.25-7.78,12-12.17,9.22-5.22,18.17-3.97,21.92-3.13,2.56.58,10.59,2.75,16.38,10.31,1.11,1.45,4.02,5.55,5.28,11.82,1.02,5.1.52,9.44.02,12.04Z"/><path class="cls-4" d="m40.72,43.74l18.63-16.35s1.06-1.53,0-2.8c-1.07-1.27-10.93-6.14-14.26-5.8-3.33.34-3.19,2.46-3.19,2.46l-1.17,22.49Z"/><path class="cls-4" d="m42.19,44.9l23.93.99s1.79-.39,1.98-2.1c.19-1.71-2.94-12.37-5.39-14.49-2.45-2.12-3.86-.42-3.86-.42l-16.65,16.02Z"/><path class="cls-4" d="m39.57,43.59l1.07-23.35s-.37-1.69-2.02-1.69c-1.65,0-11.94,4.22-13.99,6.83-2.05,2.61-.43,3.8-.43,3.8l15.37,14.41Z"/><path class="cls-4" d="m37.15,45.2l-14.62-16.65s-1.4-.91-2.65.19c-1.25,1.1-6.31,10.83-6.14,13.98.17,3.15,2.18,2.88,2.18,2.88l21.22-.4Z"/><path class="cls-2" d="m124.87,47.12l-77.93-.84c-.54-3.12-1.87-13.27,3.96-24.27.91-1.71,5.65-10.35,15.96-16.19,12.26-6.95,24.17-5.28,29.16-4.16,3.4.77,14.08,3.66,21.8,13.72,1.48,1.93,5.35,7.39,7.03,15.72,1.36,6.78.69,12.56.02,16.01Z"/><path class="cls-3" d="m119.49,46.81l-67.12-.73c-.46-2.69-1.61-11.43,3.41-20.9.78-1.48,4.87-8.91,13.75-13.94,10.56-5.99,20.82-4.55,25.12-3.58,2.93.66,12.13,3.15,18.77,11.82,1.28,1.66,4.61,6.36,6.05,13.54,1.17,5.84.59,10.81.02,13.79Z"/><path class="cls-1" d="m115.23,47.07l-58.58-.64c-.4-2.35-1.41-9.98,2.98-18.24.68-1.29,4.25-7.78,12-12.17,9.22-5.22,18.17-3.97,21.92-3.13,2.56.58,10.59,2.75,16.38,10.31,1.11,1.45,4.02,5.55,5.28,11.82,1.02,5.1.52,9.44.02,12.04Z"/><path class="cls-4" d="m87.14,44.38l18.63-16.35s1.06-1.53,0-2.8c-1.07-1.27-10.93-6.14-14.26-5.8-3.33.34-3.19,2.46-3.19,2.46l-1.17,22.49Z"/><path class="cls-4" d="m88.62,45.53l23.93.99s1.79-.39,1.98-2.1c.19-1.71-2.94-12.37-5.39-14.49-2.45-2.12-3.86-.42-3.86-.42l-16.65,16.02Z"/><path class="cls-4" d="m85.99,44.23l1.07-23.35s-.37-1.69-2.02-1.69c-1.65,0-11.94,4.22-13.99,6.83-2.05,2.61-.43,3.8-.43,3.8l15.37,14.41Z"/><path class="cls-4" d="m83.58,45.84l-14.62-16.65s-1.4-.91-2.65.19c-1.25,1.1-6.31,10.83-6.14,13.98.17,3.15,2.18,2.88,2.18,2.88l21.22-.4Z"/><path class="cls-2" d="m164.48,47.48l-77.93-.84c-.54-3.12-1.87-13.27,3.96-24.27.91-1.71,5.65-10.35,15.96-16.19,12.26-6.95,24.17-5.28,29.16-4.16,3.4.77,14.08,3.66,21.8,13.72,1.48,1.93,5.35,7.39,7.03,15.72,1.36,6.78.69,12.56.02,16.01Z"/><path class="cls-3" d="m159.09,47.17l-67.12-.73c-.46-2.69-1.61-11.43,3.41-20.9.78-1.48,4.87-8.91,13.75-13.94,10.56-5.99,20.82-4.55,25.12-3.58,2.93.66,12.13,3.15,18.77,11.82,1.28,1.66,4.61,6.36,6.05,13.54,1.17,5.84.59,10.81.02,13.79Z"/><path class="cls-1" d="m154.84,47.43l-58.58-.64c-.4-2.35-1.41-9.98,2.98-18.24.68-1.29,4.25-7.78,12-12.17,9.22-5.22,18.17-3.97,21.92-3.13,2.56.58,10.59,2.75,16.38,10.31,1.11,1.45,4.02,5.55,5.28,11.82,1.02,5.1.52,9.44.02,12.04Z"/><path class="cls-4" d="m126.75,44.74l18.63-16.35s1.06-1.53,0-2.8c-1.07-1.27-10.93-6.14-14.26-5.8-3.33.34-3.19,2.46-3.19,2.46l-1.17,22.49Z"/><path class="cls-4" d="m128.23,45.9l23.93.99s1.79-.39,1.98-2.1c.19-1.71-2.94-12.37-5.39-14.49-2.45-2.12-3.86-.42-3.86-.42l-16.65,16.02Z"/><path class="cls-4" d="m125.6,44.59l1.07-23.35s-.37-1.69-2.02-1.69c-1.65,0-11.94,4.22-13.99,6.83-2.05,2.61-.43,3.8-.43,3.8l15.37,14.41Z"/><path class="cls-4" d="m123.19,46.2l-14.62-16.65s-1.4-.91-2.65.19c-1.25,1.1-6.31,10.83-6.14,13.98.17,3.15,2.18,2.88,2.18,2.88l21.22-.4Z"/><path class="cls-2" d="m110.52,95.41l22.86-74.51c3.14.37,13.26,1.96,22.15,10.67,1.39,1.36,8.32,8.35,11.01,19.89,3.2,13.73-1.77,24.68-4.26,29.15-1.7,3.05-7.49,12.47-19.33,17.02-2.27.87-8.6,3.04-17.07,2.29-6.89-.61-12.24-2.89-15.37-4.51Z"/><path class="cls-3" d="m112.34,90.33l19.69-64.17c2.71.32,11.42,1.69,19.08,9.19,1.19,1.17,7.17,7.19,9.48,17.13,2.75,11.82-1.52,21.25-3.67,25.1-1.46,2.62-6.45,10.74-16.65,14.66-1.96.75-7.4,2.62-14.7,1.97-5.93-.53-10.54-2.49-13.23-3.88Z"/><path class="cls-1" d="m113.3,86.18l17.19-56c2.36.28,9.97,1.48,16.65,8.02,1.04,1.02,6.26,6.28,8.28,14.95,2.4,10.32-1.33,18.55-3.21,21.91-1.28,2.29-5.63,9.38-14.53,12.8-1.71.66-6.46,2.29-12.83,1.72-5.18-.46-9.2-2.17-11.55-3.39Z"/><path class="cls-4" d="m123.83,59.99l10.41,22.49s1.17,1.45,2.69.79c1.52-.66,8.98-8.75,9.6-12.04.62-3.29-1.46-3.76-1.46-3.76l-21.24-7.48Z"/><path class="cls-4" d="m122.3,61.08l-7.72,22.67s-.13,1.83,1.46,2.49c1.59.66,12.7.68,15.42-1.07,2.72-1.75,1.5-3.58,1.5-3.58l-10.66-20.5Z"/><path class="cls-4" d="m124.3,58.94l22.09,7.64s1.73.13,2.19-1.46c.46-1.58-.66-12.65-2.59-15.36-1.93-2.71-3.52-1.49-3.52-1.49l-18.17,10.66Z"/><path class="cls-4" d="m123.44,56.17l20.11-9.31s1.27-1.09.57-2.6c-.7-1.51-8.6-9.11-11.67-9.84-3.07-.73-3.38,1.28-3.38,1.28l-5.62,20.47Z"/><path class="cls-2" d="m96.73,140.04l22.86-74.51c3.14.37,13.26,1.96,22.15,10.67,1.39,1.36,8.32,8.35,11.01,19.89,3.2,13.73-1.77,24.68-4.26,29.15-1.7,3.05-7.49,12.47-19.33,17.02-2.27.87-8.6,3.04-17.07,2.29-6.89-.61-12.24-2.89-15.37-4.51Z"/><path class="cls-3" d="m98.56,134.96l19.69-64.17c2.71.32,11.42,1.69,19.08,9.19,1.19,1.17,7.17,7.19,9.48,17.13,2.75,11.82-1.52,21.25-3.67,25.1-1.46,2.62-6.45,10.74-16.65,14.66-1.96.75-7.4,2.62-14.7,1.97-5.93-.53-10.54-2.49-13.23-3.88Z"/><path class="cls-1" d="m99.51,130.8l17.19-56c2.36.28,9.97,1.48,16.65,8.02,1.04,1.02,6.26,6.28,8.28,14.95,2.4,10.32-1.33,18.55-3.21,21.91-1.28,2.29-5.63,9.38-14.53,12.8-1.71.66-6.46,2.29-12.83,1.72-5.18-.46-9.2-2.17-11.55-3.39Z"/><path class="cls-4" d="m110.04,104.62l10.41,22.49s1.17,1.45,2.69.79c1.52-.66,8.98-8.75,9.6-12.04.62-3.29-1.46-3.76-1.46-3.76l-21.24-7.48Z"/><path class="cls-4" d="m108.51,105.71l-7.72,22.67s-.13,1.83,1.46,2.49c1.59.66,12.7.68,15.42-1.07,2.72-1.75,1.5-3.58,1.5-3.58l-10.66-20.5Z"/><path class="cls-4" d="m110.51,103.57l22.09,7.64s1.73.13,2.19-1.46c.46-1.58-.66-12.65-2.59-15.36-1.93-2.71-3.52-1.49-3.52-1.49l-18.17,10.66Z"/><path class="cls-4" d="m109.65,100.79l20.11-9.31s1.27-1.09.57-2.6c-.7-1.51-8.6-9.11-11.67-9.84-3.07-.73-3.38,1.28-3.38,1.28l-5.62,20.47Z"/><path class="cls-2" d="m85.17,177.93l22.86-74.51c3.14.37,13.26,1.96,22.15,10.67,1.39,1.36,8.32,8.35,11.01,19.89,3.2,13.73-1.77,24.68-4.26,29.15-1.7,3.05-7.49,12.47-19.33,17.02-2.27.87-8.6,3.04-17.07,2.29-6.89-.61-12.24-2.89-15.37-4.51Z"/><path class="cls-3" d="m87,172.85l19.69-64.17c2.71.32,11.42,1.69,19.08,9.19,1.19,1.17,7.17,7.19,9.48,17.13,2.75,11.82-1.52,21.25-3.67,25.1-1.46,2.62-6.45,10.74-16.65,14.66-1.96.75-7.4,2.62-14.7,1.97-5.93-.53-10.54-2.49-13.23-3.88Z"/><path class="cls-1" d="m87.95,168.69l17.19-56c2.36.28,9.97,1.48,16.65,8.02,1.04,1.02,6.26,6.28,8.28,14.95,2.4,10.32-1.33,18.55-3.21,21.91-1.28,2.29-5.63,9.38-14.53,12.8-1.71.66-6.46,2.29-12.83,1.72-5.18-.46-9.2-2.17-11.55-3.39Z"/><path class="cls-4" d="m98.48,142.51l10.41,22.49s1.17,1.45,2.69.79c1.52-.66,8.98-8.75,9.6-12.04.62-3.29-1.46-3.76-1.46-3.76l-21.24-7.48Z"/><path class="cls-4" d="m96.96,143.6l-7.72,22.67s-.13,1.83,1.46,2.49c1.59.66,12.7.68,15.42-1.07,2.72-1.75,1.5-3.58,1.5-3.58l-10.66-20.5Z"/><path class="cls-4" d="m98.95,141.45l22.09,7.64s1.73.13,2.19-1.46c.46-1.58-.66-12.65-2.59-15.36-1.93-2.71-3.52-1.49-3.52-1.49l-18.17,10.66Z"/><path class="cls-4" d="m98.09,138.68l20.11-9.31s1.27-1.09.57-2.6c-.7-1.51-8.6-9.11-11.67-9.84-3.07-.73-3.38,1.28-3.38,1.28l-5.62,20.47Z"/><path class="cls-2" d="m71.41,220.54l22.86-74.51c3.14.37,13.26,1.96,22.15,10.67,1.39,1.36,8.32,8.35,11.01,19.89,3.2,13.73-1.77,24.68-4.26,29.15-1.7,3.05-7.49,12.47-19.33,17.02-2.27.87-8.6,3.04-17.07,2.29-6.89-.61-12.24-2.89-15.37-4.51Z"/><path class="cls-3" d="m73.24,215.46l19.69-64.17c2.71.32,11.42,1.69,19.08,9.19,1.19,1.17,7.17,7.19,9.48,17.13,2.75,11.82-1.52,21.25-3.67,25.1-1.46,2.62-6.45,10.74-16.65,14.66-1.96.75-7.4,2.62-14.7,1.97-5.93-.53-10.54-2.49-13.23-3.88Z"/><path class="cls-1" d="m74.19,211.31l17.19-56c2.36.28,9.97,1.48,16.65,8.02,1.04,1.02,6.26,6.28,8.28,14.95,2.4,10.32-1.33,18.55-3.21,21.91-1.28,2.29-5.63,9.38-14.53,12.8-1.71.66-6.46,2.29-12.83,1.72-5.18-.46-9.2-2.17-11.55-3.39Z"/><path class="cls-4" d="m84.72,185.12l10.41,22.49s1.17,1.45,2.69.79c1.52-.66,8.98-8.75,9.6-12.04.62-3.29-1.46-3.76-1.46-3.76l-21.24-7.48Z"/><path class="cls-4" d="m83.19,186.22l-7.72,22.67s-.13,1.83,1.46,2.49c1.59.66,12.7.68,15.42-1.07,2.72-1.75,1.5-3.58,1.5-3.58l-10.66-20.5Z"/><path class="cls-4" d="m85.19,184.07l22.09,7.64s1.73.13,2.19-1.46c.46-1.58-.66-12.65-2.59-15.36-1.93-2.71-3.52-1.49-3.52-1.49l-18.17,10.66Z"/><path class="cls-4" d="m84.33,181.3l20.11-9.31s1.27-1.09.57-2.6c-.7-1.51-8.6-9.11-11.67-9.84-3.07-.73-3.38,1.28-3.38,1.28l-5.62,20.47Z"/></g></svg>