<?xml version="1.0" encoding="UTF-8"?><svg id="Layer_2" xmlns="http://www.w3.org/2000/svg" viewBox="0 0 148.48 228.72"><defs><style>.cls-1{fill:#f9facb;}.cls-1,.cls-2,.cls-3,.cls-4{stroke-width:0px;}.cls-2{fill:#f80;}.cls-3{fill:#ffa200;}.cls-4{fill:#ffb100;}</style></defs><g id="Layer_1-2"><path class="cls-2" d="m102.43,198.76l-1.59-79.2c3.15-.64,13.43-2.32,24.78,3.26,1.77.87,10.69,5.42,16.95,15.71,7.45,12.24,6.13,24.39,5.14,29.5-.67,3.48-3.27,14.42-13.25,22.58-1.92,1.57-7.34,5.67-15.75,7.63-6.85,1.6-12.73,1.1-16.27.53Z"/><path class="cls-3" d="m102.59,193.27l-1.37-68.21c2.72-.55,11.56-2,21.34,2.81,1.52.75,9.21,4.67,14.6,13.53,6.41,10.54,5.28,21,4.43,25.4-.58,3-2.82,12.42-11.41,19.44-1.65,1.35-6.32,4.88-13.57,6.57-5.9,1.38-10.97.94-14.01.45Z"/><path class="cls-1" d="m102.19,188.96l-1.2-59.53c2.37-.48,10.09-1.74,18.62,2.45,1.33.65,8.04,4.07,12.74,11.81,5.6,9.2,4.61,18.33,3.86,22.17-.51,2.62-2.46,10.84-9.96,16.97-1.44,1.18-5.51,4.26-11.84,5.74-5.15,1.2-9.57.82-12.23.4Z"/><path class="cls-4" d="m104.03,160.33l17.2,18.41s1.59,1.03,2.85-.09c1.26-1.12,5.89-11.3,5.45-14.67-.45-3.37-2.6-3.17-2.6-3.17l-22.89-.48Z"/><path class="cls-4" d="m102.91,161.87l-.25,24.34s.45,1.81,2.2,1.94c1.74.13,12.48-3.37,14.55-5.93,2.07-2.56.31-3.94.31-3.94l-16.8-16.41Z"/><path class="cls-4" d="m104.15,159.17l23.76.36s1.71-.43,1.65-2.1c-.06-1.67-4.66-12-7.38-14-2.72-2-3.87-.32-3.87-.32l-14.16,16.07Z"/><path class="cls-4" d="m102.44,156.76l16.46-15.37s.88-1.45-.28-2.69c-1.16-1.23-11.2-6.07-14.39-5.8-3.2.27-2.85,2.31-2.85,2.31l1.07,21.55Z"/><path class="cls-2" d="m46.29,121.88l2.54,79.17c-3.14.68-13.4,2.48-24.81-2.96-1.78-.85-10.75-5.29-17.14-15.5-7.59-12.15-6.42-24.31-5.49-29.43.63-3.49,3.1-14.46,12.98-22.73,1.9-1.59,7.27-5.75,15.66-7.82,6.83-1.68,12.72-1.25,16.26-.72Z"/><path class="cls-3" d="m46.21,127.36l2.19,68.19c-2.71.59-11.54,2.13-21.37-2.55-1.53-.73-9.26-4.56-14.76-13.35-6.54-10.46-5.53-20.94-4.73-25.35.54-3.01,2.67-12.45,11.18-19.58,1.63-1.37,6.26-4.96,13.49-6.73,5.88-1.45,10.95-1.07,14-.62Z"/><path class="cls-1" d="m46.66,131.67l1.91,59.51c-2.36.51-10.07,1.86-18.65-2.23-1.34-.64-8.08-3.98-12.88-11.65-5.71-9.13-4.83-18.28-4.13-22.12.48-2.62,2.33-10.87,9.76-17.09,1.43-1.19,5.46-4.33,11.77-5.88,5.13-1.26,9.56-.94,12.22-.54Z"/><path class="cls-4" d="m45.15,160.32l-17.42-18.2s-1.6-1.01-2.85.13c-1.24,1.14-5.76,11.37-5.27,14.74.49,3.37,2.64,3.14,2.64,3.14l22.89.2Z"/><path class="cls-4" d="m46.26,158.77l-.04-24.34s-.48-1.8-2.22-1.91c-1.74-.11-12.44,3.52-14.48,6.11-2.04,2.58-.26,3.94-.26,3.94l17,16.21Z"/><path class="cls-4" d="m45.04,161.49l-23.76-.07s-1.7.45-1.63,2.12c.08,1.67,4.8,11.94,7.55,13.91,2.74,1.97,3.88.27,3.88.27l13.96-16.23Z"/><path class="cls-4" d="m46.79,163.87l-16.27,15.57s-.86,1.46.31,2.68c1.17,1.22,11.27,5.93,14.46,5.62,3.19-.31,2.83-2.34,2.83-2.34l-1.33-21.53Z"/><path class="cls-2" d="m101.72,114.09l-1.59-79.2c3.15-.64,13.43-2.32,24.78,3.26,1.77.87,10.69,5.42,16.95,15.71,7.45,12.24,6.13,24.39,5.14,29.5-.67,3.48-3.27,14.42-13.25,22.58-1.92,1.57-7.34,5.67-15.75,7.63-6.85,1.6-12.73,1.1-16.27.53Z"/><path class="cls-3" d="m101.88,108.6l-1.37-68.21c2.72-.55,11.56-2,21.34,2.81,1.52.75,9.21,4.67,14.6,13.53,6.41,10.54,5.28,21,4.43,25.4-.58,3-2.82,12.42-11.41,19.44-1.65,1.35-6.32,4.88-13.57,6.57-5.9,1.38-10.97.94-14.01.45Z"/><path class="cls-1" d="m101.48,104.29l-1.2-59.53c2.37-.48,10.09-1.74,18.62,2.45,1.33.65,8.04,4.07,12.74,11.81,5.6,9.2,4.61,18.33,3.86,22.17-.51,2.62-2.46,10.84-9.96,16.97-1.44,1.18-5.51,4.26-11.84,5.74-5.15,1.2-9.57.82-12.23.4Z"/><path class="cls-4" d="m103.32,75.66l17.2,18.41s1.59,1.03,2.85-.09c1.26-1.12,5.89-11.3,5.45-14.67-.45-3.37-2.6-3.17-2.6-3.17l-22.89-.48Z"/><path class="cls-4" d="m102.2,77.2l-.25,24.34s.45,1.81,2.2,1.94c1.74.13,12.48-3.37,14.55-5.93,2.07-2.56.31-3.94.31-3.94l-16.8-16.41Z"/><path class="cls-4" d="m103.44,74.5l23.76.36s1.71-.43,1.65-2.1c-.06-1.67-4.66-12-7.38-14-2.72-2-3.87-.32-3.87-.32l-14.16,16.07Z"/><path class="cls-4" d="m101.73,72.09l16.46-15.37s.88-1.45-.28-2.69c-1.16-1.23-11.2-6.07-14.39-5.8-3.2.27-2.85,2.31-2.85,2.31l1.07,21.55Z"/><path class="cls-2" d="m45.58,37.21l2.54,79.17c-3.14.68-13.4,2.48-24.81-2.96-1.78-.85-10.75-5.29-17.14-15.5C-1.42,85.77-.25,73.6.68,68.48c.63-3.49,3.1-14.46,12.98-22.73,1.9-1.59,7.27-5.75,15.66-7.82,6.83-1.68,12.72-1.25,16.26-.72Z"/><path class="cls-3" d="m45.5,42.69l2.19,68.19c-2.71.59-11.54,2.13-21.37-2.55-1.53-.73-9.26-4.56-14.76-13.35-6.54-10.46-5.53-20.94-4.73-25.35.54-3.01,2.67-12.45,11.18-19.58,1.63-1.37,6.26-4.96,13.49-6.73,5.88-1.45,10.95-1.07,14-.62Z"/><path class="cls-1" d="m45.94,47l1.91,59.51c-2.36.51-10.07,1.86-18.65-2.23-1.34-.64-8.08-3.98-12.88-11.65-5.71-9.13-4.83-18.28-4.13-22.12.48-2.62,2.33-10.87,9.76-17.09,1.43-1.19,5.46-4.33,11.77-5.88,5.13-1.26,9.56-.94,12.22-.54Z"/><path class="cls-4" d="m44.44,75.65l-17.42-18.2s-1.6-1.01-2.85.13c-1.24,1.14-5.76,11.37-5.27,14.74.49,3.37,2.64,3.14,2.64,3.14l22.89.2Z"/><path class="cls-4" d="m45.55,74.1l-.04-24.34s-.48-1.8-2.22-1.91c-1.74-.11-12.44,3.52-14.48,6.11-2.04,2.58-.26,3.94-.26,3.94l17,16.21Z"/><path class="cls-4" d="m44.33,76.82l-23.76-.07s-1.7.45-1.63,2.12c.08,1.67,4.8,11.94,7.55,13.91,2.74,1.97,3.88.27,3.88.27l13.96-16.23Z"/><path class="cls-4" d="m46.08,79.2l-16.27,15.57s-.86,1.46.31,2.68c1.17,1.22,11.27,5.93,14.46,5.62,3.19-.31,2.83-2.34,2.83-2.34l-1.33-21.53Z"/><path class="cls-2" d="m92.95,46.55l-77.93-.84c-.54-3.12-1.87-13.27,3.96-24.27.91-1.71,5.65-10.35,15.96-16.19C47.21-1.7,59.11-.04,64.11,1.09c3.4.77,14.08,3.66,21.8,13.72,1.48,1.93,5.35,7.39,7.03,15.72,1.36,6.78.69,12.56.02,16.01Z"/><path class="cls-3" d="m87.56,46.23l-67.12-.73c-.46-2.69-1.61-11.43,3.41-20.9.78-1.48,4.87-8.91,13.75-13.94,10.56-5.99,20.82-4.55,25.12-3.58,2.93.66,12.13,3.15,18.77,11.82,1.28,1.66,4.61,6.36,6.05,13.54,1.17,5.84.59,10.81.02,13.79Z"/><path class="cls-1" d="m83.31,46.49l-58.58-.64c-.4-2.35-1.41-9.98,2.98-18.24.68-1.29,4.25-7.78,12-12.17,9.22-5.22,18.17-3.97,21.92-3.13,2.56.58,10.59,2.75,16.38,10.31,1.11,1.45,4.02,5.55,5.28,11.82,1.02,5.1.52,9.44.02,12.04Z"/><path class="cls-4" d="m55.22,43.81l18.63-16.35s1.06-1.53,0-2.8c-1.07-1.27-10.93-6.14-14.26-5.8-3.33.34-3.19,2.46-3.19,2.46l-1.17,22.49Z"/><path class="cls-4" d="m56.7,44.96l23.93.99s1.79-.39,1.98-2.1c.19-1.71-2.94-12.37-5.39-14.49-2.45-2.12-3.86-.42-3.86-.42l-16.65,16.02Z"/><path class="cls-4" d="m54.07,43.65l1.07-23.35s-.37-1.69-2.02-1.69c-1.65,0-11.94,4.22-13.99,6.83-2.05,2.61-.43,3.8-.43,3.8l15.37,14.41Z"/><path class="cls-4" d="m51.66,45.26l-14.62-16.65s-1.4-.91-2.65.19c-1.25,1.1-6.31,10.83-6.14,13.98.17,3.15,2.18,2.88,2.18,2.88l21.22-.4Z"/><path class="cls-2" d="m132.12,46.48l-77.93-.84c-.54-3.12-1.87-13.27,3.96-24.27.91-1.71,5.65-10.35,15.96-16.19C86.37-1.77,98.28-.1,103.27,1.03c3.4.77,14.08,3.66,21.8,13.72,1.48,1.93,5.35,7.39,7.03,15.72,1.36,6.78.69,12.56.02,16.01Z"/><path class="cls-3" d="m126.73,46.17l-67.12-.73c-.46-2.69-1.61-11.43,3.41-20.9.78-1.48,4.87-8.91,13.75-13.94,10.56-5.99,20.82-4.55,25.12-3.58,2.93.66,12.13,3.15,18.77,11.82,1.28,1.66,4.61,6.36,6.05,13.54,1.17,5.84.59,10.81.02,13.79Z"/><path class="cls-1" d="m122.48,46.43l-58.58-.64c-.4-2.35-1.41-9.98,2.98-18.24.68-1.29,4.25-7.78,12-12.17,9.22-5.22,18.17-3.97,21.92-3.13,2.56.58,10.59,2.75,16.38,10.31,1.11,1.45,4.02,5.55,5.28,11.82,1.02,5.1.52,9.44.02,12.04Z"/><path class="cls-4" d="m94.38,43.74l18.63-16.35s1.06-1.53,0-2.8c-1.07-1.27-10.93-6.14-14.26-5.8-3.33.34-3.19,2.46-3.19,2.46l-1.17,22.49Z"/><path class="cls-4" d="m95.86,44.9l23.93.99s1.79-.39,1.98-2.1c.19-1.71-2.94-12.37-5.39-14.49-2.45-2.12-3.86-.42-3.86-.42l-16.65,16.02Z"/><path class="cls-4" d="m93.24,43.59l1.07-23.35s-.37-1.69-2.02-1.69c-1.65,0-11.94,4.22-13.99,6.83-2.05,2.61-.43,3.8-.43,3.8l15.37,14.41Z"/><path class="cls-4" d="m90.82,45.2l-14.62-16.65s-1.4-.91-2.65.19c-1.25,1.1-6.31,10.83-6.14,13.98.17,3.15,2.18,2.88,2.18,2.88l21.22-.4Z"/><path class="cls-2" d="m91.05,135.01l-77.93-.84c-.54-3.12-1.87-13.27,3.96-24.27.91-1.71,5.65-10.35,15.96-16.19,12.26-6.95,24.17-5.28,29.16-4.16,3.4.77,14.08,3.66,21.8,13.72,1.48,1.93,5.35,7.39,7.03,15.72,1.36,6.78.69,12.56.02,16.01Z"/><path class="cls-3" d="m85.66,134.69l-67.12-.73c-.46-2.69-1.61-11.43,3.41-20.9.78-1.48,4.87-8.91,13.75-13.94,10.56-5.99,20.82-4.55,25.12-3.58,2.93.66,12.13,3.15,18.77,11.82,1.28,1.66,4.61,6.36,6.05,13.54,1.17,5.84.59,10.81.02,13.79Z"/><path class="cls-1" d="m81.41,134.95l-58.58-.64c-.4-2.35-1.41-9.98,2.98-18.24.68-1.29,4.25-7.78,12-12.17,9.22-5.22,18.17-3.97,21.92-3.13,2.56.58,10.59,2.75,16.38,10.31,1.11,1.45,4.02,5.55,5.28,11.82,1.02,5.1.52,9.44.02,12.04Z"/><path class="cls-4" d="m53.32,132.26l18.63-16.35s1.06-1.53,0-2.8c-1.07-1.27-10.93-6.14-14.26-5.8-3.33.34-3.19,2.46-3.19,2.46l-1.17,22.49Z"/><path class="cls-4" d="m54.79,133.42l23.93.99s1.79-.39,1.98-2.1c.19-1.71-2.94-12.37-5.39-14.49-2.45-2.12-3.86-.42-3.86-.42l-16.65,16.02Z"/><path class="cls-4" d="m52.17,132.11l1.07-23.35s-.37-1.69-2.02-1.69c-1.65,0-11.94,4.22-13.99,6.83-2.05,2.61-.43,3.8-.43,3.8l15.37,14.41Z"/><path class="cls-4" d="m49.76,133.72l-14.62-16.65s-1.4-.91-2.65.19c-1.25,1.1-6.31,10.83-6.14,13.98.17,3.15,2.18,2.88,2.18,2.88l21.22-.4Z"/><path class="cls-2" d="m130.22,134.94l-77.93-.84c-.54-3.12-1.87-13.27,3.96-24.27.91-1.71,5.65-10.35,15.96-16.19,12.26-6.95,24.17-5.28,29.16-4.16,3.4.77,14.08,3.66,21.8,13.72,1.48,1.93,5.35,7.39,7.03,15.72,1.36,6.78.69,12.56.02,16.01Z"/><path class="cls-3" d="m124.83,134.63l-67.12-.73c-.46-2.69-1.61-11.43,3.41-20.9.78-1.48,4.87-8.91,13.75-13.94,10.56-5.99,20.82-4.55,25.12-3.58,2.93.66,12.13,3.15,18.77,11.82,1.28,1.66,4.61,6.36,6.05,13.54,1.17,5.84.59,10.81.02,13.79Z"/><path class="cls-1" d="m120.58,134.89l-58.58-.64c-.4-2.35-1.41-9.98,2.98-18.24.68-1.29,4.25-7.78,12-12.17,9.22-5.22,18.17-3.97,21.92-3.13,2.56.58,10.59,2.75,16.38,10.31,1.11,1.45,4.02,5.55,5.28,11.82,1.02,5.1.52,9.44.02,12.04Z"/><path class="cls-4" d="m92.48,132.2l18.63-16.35s1.06-1.53,0-2.8c-1.07-1.27-10.93-6.14-14.26-5.8-3.33.34-3.19,2.46-3.19,2.46l-1.17,22.49Z"/><path class="cls-4" d="m93.96,133.35l23.93.99s1.79-.39,1.98-2.1c.19-1.71-2.94-12.37-5.39-14.49-2.45-2.12-3.86-.42-3.86-.42l-16.65,16.02Z"/><path class="cls-4" d="m91.34,132.05l1.07-23.35s-.37-1.69-2.02-1.69c-1.65,0-11.94,4.22-13.99,6.83-2.05,2.61-.43,3.8-.43,3.8l15.37,14.41Z"/><path class="cls-4" d="m88.92,133.66l-14.62-16.65s-1.4-.91-2.65.19c-1.25,1.1-6.31,10.83-6.14,13.98.17,3.15,2.18,2.88,2.18,2.88l21.22-.4Z"/><path class="cls-2" d="m55.05,182.23l77.93.84c.54,3.12,1.87,13.27-3.96,24.27-.91,1.71-5.65,10.35-15.96,16.19-12.26,6.95-24.17,5.28-29.16,4.16-3.4-.77-14.08-3.66-21.8-13.72-1.48-1.93-5.35-7.39-7.03-15.72-1.36-6.78-.69-12.56-.02-16.01Z"/><path class="cls-3" d="m60.44,182.55l67.12.73c.46,2.69,1.61,11.43-3.41,20.9-.78,1.48-4.87,8.91-13.75,13.94-10.56,5.99-20.82,4.55-25.12,3.58-2.93-.66-12.13-3.15-18.77-11.82-1.28-1.66-4.61-6.36-6.05-13.54-1.17-5.84-.59-10.81-.02-13.79Z"/><path class="cls-1" d="m64.7,182.29l58.58.64c.4,2.35,1.41,9.98-2.98,18.24-.68,1.29-4.25,7.78-12,12.17-9.22,5.22-18.17,3.97-21.92,3.13-2.56-.58-10.59-2.75-16.38-10.31-1.11-1.45-4.02-5.55-5.28-11.82-1.02-5.1-.52-9.44-.02-12.04Z"/><path class="cls-4" d="m92.79,184.98l-18.63,16.35s-1.06,1.53,0,2.8c1.07,1.27,10.93,6.14,14.26,5.8,3.33-.34,3.19-2.46,3.19-2.46l1.17-22.49Z"/><path class="cls-4" d="m91.31,183.82l-23.93-.99s-1.79.39-1.98,2.1c-.19,1.71,2.94,12.37,5.39,14.49,2.45,2.12,3.86.42,3.86.42l16.65-16.02Z"/><path class="cls-4" d="m93.94,185.13l-1.07,23.35s.37,1.69,2.02,1.69c1.65,0,11.94-4.22,13.99-6.83,2.05-2.61.43-3.8.43-3.8l-15.37-14.41Z"/><path class="cls-4" d="m96.35,183.52l14.62,16.65s1.4.91,2.65-.19c1.25-1.1,6.31-10.83,6.14-13.98-.17-3.15-2.18-2.88-2.18-2.88l-21.22.4Z"/><path class="cls-2" d="m15.89,181.3l77.93.84c.54,3.12,1.87,13.27-3.96,24.27-.91,1.71-5.65,10.35-15.96,16.19-12.26,6.95-24.17,5.28-29.16,4.16-3.4-.77-14.08-3.66-21.8-13.72-1.48-1.93-5.35-7.39-7.03-15.72-1.36-6.78-.69-12.56-.02-16.01Z"/><path class="cls-3" d="m21.28,181.61l67.12.73c.46,2.69,1.61,11.43-3.41,20.9-.78,1.48-4.87,8.91-13.75,13.94-10.56,5.99-20.82,4.55-25.12,3.58-2.93-.66-12.13-3.15-18.77-11.82-1.28-1.66-4.61-6.36-6.05-13.54-1.17-5.84-.59-10.81-.02-13.79Z"/><path class="cls-1" d="m25.53,181.35l58.58.64c.4,2.35,1.41,9.98-2.98,18.24-.68,1.29-4.25,7.78-12,12.17-9.22,5.22-18.17,3.97-21.92,3.13-2.56-.58-10.59-2.75-16.38-10.31-1.11-1.45-4.02-5.55-5.28-11.82-1.02-5.1-.52-9.44-.02-12.04Z"/><path class="cls-4" d="m53.63,184.04l-18.63,16.35s-1.06,1.53,0,2.8c1.07,1.27,10.93,6.14,14.26,5.8,3.33-.34,3.19-2.46,3.19-2.46l1.17-22.49Z"/><path class="cls-4" d="m52.15,182.89l-23.93-.99s-1.79.39-1.98,2.1c-.19,1.71,2.94,12.37,5.39,14.49,2.45,2.12,3.86.42,3.86.42l16.65-16.02Z"/><path class="cls-4" d="m54.77,184.19l-1.07,23.35s.37,1.69,2.02,1.69c1.65,0,11.94-4.22,13.99-6.83,2.05-2.61.43-3.8.43-3.8l-15.37-14.41Z"/><path class="cls-4" d="m57.19,182.58l14.62,16.65s1.4.91,2.65-.19c1.25-1.1,6.31-10.83,6.14-13.98-.17-3.15-2.18-2.88-2.18-2.88l-21.22.4Z"/></g></svg>