<?xml version="1.0" encoding="UTF-8"?><svg id="Layer_2" xmlns="http://www.w3.org/2000/svg" viewBox="0 0 158.78 235.09"><defs><style>.cls-1{fill:#f9facb;}.cls-1,.cls-2,.cls-3,.cls-4{stroke-width:0px;}.cls-2{fill:#f80;}.cls-3{fill:#ffa200;}.cls-4{fill:#ffb100;}</style></defs><g id="Layer_1-2"><path class="cls-2" d="m112.73,225.71l-1.59-79.2c3.15-.64,13.43-2.32,24.78,3.26,1.77.87,10.69,5.42,16.95,15.71,7.45,12.24,6.13,24.39,5.14,29.5-.67,3.48-3.27,14.42-13.25,22.58-1.92,1.57-7.34,5.67-15.75,7.63-6.85,1.6-12.73,1.1-16.27.53Z"/><path class="cls-3" d="m112.88,220.23l-1.37-68.21c2.72-.55,11.56-2,21.34,2.81,1.52.75,9.21,4.67,14.6,13.53,6.41,10.54,5.28,21,4.43,25.4-.58,3-2.82,12.42-11.41,19.44-1.65,1.35-6.32,4.88-13.57,6.57-5.9,1.38-10.97.94-14.01.45Z"/><path class="cls-1" d="m112.48,215.91l-1.2-59.53c2.37-.48,10.09-1.74,18.62,2.45,1.33.65,8.04,4.07,12.74,11.81,5.6,9.2,4.61,18.33,3.86,22.17-.51,2.62-2.46,10.84-9.96,16.97-1.44,1.18-5.51,4.26-11.84,5.74-5.15,1.2-9.57.82-12.23.4Z"/><path class="cls-4" d="m114.33,187.29l17.2,18.41s1.59,1.03,2.85-.09c1.26-1.12,5.89-11.3,5.45-14.67-.45-3.37-2.6-3.17-2.6-3.17l-22.89-.48Z"/><path class="cls-4" d="m113.2,188.83l-.25,24.34s.45,1.81,2.2,1.94c1.74.13,12.48-3.37,14.55-5.93,2.07-2.56.31-3.94.31-3.94l-16.8-16.41Z"/><path class="cls-4" d="m114.45,186.12l23.76.36s1.71-.43,1.65-2.1c-.06-1.67-4.66-12-7.38-14-2.72-2-3.87-.32-3.87-.32l-14.16,16.07Z"/><path class="cls-4" d="m112.74,183.72l16.46-15.37s.88-1.45-.28-2.69c-1.16-1.23-11.2-6.07-14.39-5.8-3.2.27-2.85,2.31-2.85,2.31l1.07,21.55Z"/><path class="cls-2" d="m111.73,179.86l-1.59-79.2c3.15-.64,13.43-2.32,24.78,3.26,1.77.87,10.69,5.42,16.95,15.71,7.45,12.24,6.13,24.39,5.14,29.5-.67,3.48-3.27,14.42-13.25,22.58-1.92,1.57-7.34,5.67-15.75,7.63-6.85,1.6-12.73,1.1-16.27.53Z"/><path class="cls-3" d="m111.88,174.38l-1.37-68.21c2.72-.55,11.56-2,21.34,2.81,1.52.75,9.21,4.67,14.6,13.53,6.41,10.54,5.28,21,4.43,25.4-.58,3-2.82,12.42-11.41,19.44-1.65,1.35-6.32,4.88-13.57,6.57-5.9,1.38-10.97.94-14.01.45Z"/><path class="cls-1" d="m111.48,170.06l-1.2-59.53c2.37-.48,10.09-1.74,18.62,2.45,1.33.65,8.04,4.07,12.74,11.81,5.6,9.2,4.61,18.33,3.86,22.17-.51,2.62-2.46,10.84-9.96,16.97-1.44,1.18-5.51,4.26-11.84,5.74-5.15,1.2-9.57.82-12.23.4Z"/><path class="cls-4" d="m113.33,141.44l17.2,18.41s1.59,1.03,2.85-.09c1.26-1.12,5.89-11.3,5.45-14.67-.45-3.37-2.6-3.17-2.6-3.17l-22.89-.48Z"/><path class="cls-4" d="m112.2,142.98l-.25,24.34s.45,1.81,2.2,1.94c1.74.13,12.48-3.37,14.55-5.93,2.07-2.56.31-3.94.31-3.94l-16.8-16.41Z"/><path class="cls-4" d="m113.45,140.27l23.76.36s1.71-.43,1.65-2.1c-.06-1.67-4.66-12-7.38-14-2.72-2-3.87-.32-3.87-.32l-14.16,16.07Z"/><path class="cls-4" d="m111.74,137.87l16.46-15.37s.88-1.45-.28-2.69c-1.16-1.23-11.2-6.07-14.39-5.8-3.2.27-2.85,2.31-2.85,2.31l1.07,21.55Z"/><path class="cls-2" d="m111.23,138.26l-1.59-79.2c3.15-.64,13.43-2.32,24.78,3.26,1.77.87,10.69,5.42,16.95,15.71,7.45,12.24,6.13,24.39,5.14,29.5-.67,3.48-3.27,14.42-13.25,22.58-1.92,1.57-7.34,5.67-15.75,7.63-6.85,1.6-12.73,1.1-16.27.53Z"/><path class="cls-3" d="m111.38,132.78l-1.37-68.21c2.72-.55,11.56-2,21.34,2.81,1.52.75,9.21,4.67,14.6,13.53,6.41,10.54,5.28,21,4.43,25.4-.58,3-2.82,12.42-11.41,19.44-1.65,1.35-6.32,4.88-13.57,6.57-5.9,1.38-10.97.94-14.01.45Z"/><path class="cls-1" d="m110.98,128.46l-1.2-59.53c2.37-.48,10.09-1.74,18.62,2.45,1.33.65,8.04,4.07,12.74,11.81,5.6,9.2,4.61,18.33,3.86,22.17-.51,2.62-2.46,10.84-9.96,16.97-1.44,1.18-5.51,4.26-11.84,5.74-5.15,1.2-9.57.82-12.23.4Z"/><path class="cls-4" d="m112.83,99.84l17.2,18.41s1.59,1.03,2.85-.09c1.26-1.12,5.89-11.3,5.45-14.67-.45-3.37-2.6-3.17-2.6-3.17l-22.89-.48Z"/><path class="cls-4" d="m111.7,101.38l-.25,24.34s.45,1.81,2.2,1.94c1.74.13,12.48-3.37,14.55-5.93,2.07-2.56.31-3.94.31-3.94l-16.8-16.41Z"/><path class="cls-4" d="m112.95,98.67l23.76.36s1.71-.43,1.65-2.1c-.06-1.67-4.66-12-7.38-14-2.72-2-3.87-.32-3.87-.32l-14.16,16.07Z"/><path class="cls-4" d="m111.24,96.27l16.46-15.37s.88-1.45-.28-2.69c-1.16-1.23-11.2-6.07-14.39-5.8-3.2.27-2.85,2.31-2.85,2.31l1.07,21.55Z"/><path class="cls-2" d="m110.23,92.41l-1.59-79.2c3.15-.64,13.43-2.32,24.78,3.26,1.77.87,10.69,5.42,16.95,15.71,7.45,12.24,6.13,24.39,5.14,29.5-.67,3.48-3.27,14.42-13.25,22.58-1.92,1.57-7.34,5.67-15.75,7.63-6.85,1.6-12.73,1.1-16.27.53Z"/><path class="cls-3" d="m110.38,86.93l-1.37-68.21c2.72-.55,11.56-2,21.34,2.81,1.52.75,9.21,4.67,14.6,13.53,6.41,10.54,5.28,21,4.43,25.4-.58,3-2.82,12.42-11.41,19.44-1.65,1.35-6.32,4.88-13.57,6.57-5.9,1.38-10.97.94-14.01.45Z"/><path class="cls-1" d="m109.98,82.61l-1.2-59.53c2.37-.48,10.09-1.74,18.62,2.45,1.33.65,8.04,4.07,12.74,11.81,5.6,9.2,4.61,18.33,3.86,22.17-.51,2.62-2.46,10.84-9.96,16.97-1.44,1.18-5.51,4.26-11.84,5.74-5.15,1.2-9.57.82-12.23.4Z"/><path class="cls-4" d="m111.83,53.99l17.2,18.41s1.59,1.03,2.85-.09c1.26-1.12,5.89-11.3,5.45-14.67-.45-3.37-2.6-3.17-2.6-3.17l-22.89-.48Z"/><path class="cls-4" d="m110.7,55.53l-.25,24.34s.45,1.81,2.2,1.94c1.74.13,12.48-3.37,14.55-5.93,2.07-2.56.31-3.94.31-3.94l-16.8-16.41Z"/><path class="cls-4" d="m111.95,52.82l23.76.36s1.71-.43,1.65-2.1c-.06-1.67-4.66-12-7.38-14-2.72-2-3.87-.32-3.87-.32l-14.16,16.07Z"/><path class="cls-4" d="m110.24,50.42l16.46-15.37s.88-1.45-.28-2.69c-1.16-1.23-11.2-6.07-14.39-5.8-3.2.27-2.85,2.31-2.85,2.31l1.07,21.55Z"/><path class="cls-2" d="m19.09,189.51l79.17-2.54c.68,3.14,2.48,13.4-2.96,24.81-.85,1.78-5.29,10.75-15.5,17.14-12.15,7.59-24.31,6.42-29.43,5.49-3.49-.63-14.46-3.1-22.73-12.98-1.59-1.9-5.75-7.27-7.82-15.66-1.68-6.83-1.25-12.72-.72-16.26Z"/><path class="cls-3" d="m24.58,189.59l68.19-2.19c.59,2.71,2.13,11.54-2.55,21.37-.73,1.53-4.56,9.26-13.35,14.76-10.46,6.54-20.94,5.53-25.35,4.73-3.01-.54-12.45-2.67-19.58-11.18-1.37-1.63-4.96-6.26-6.73-13.49-1.45-5.88-1.07-10.95-.62-14Z"/><path class="cls-1" d="m28.89,189.14l59.51-1.91c.51,2.36,1.86,10.07-2.23,18.65-.64,1.34-3.98,8.08-11.65,12.88-9.13,5.71-18.28,4.83-22.12,4.13-2.62-.48-10.87-2.33-17.09-9.76-1.19-1.43-4.33-5.46-5.88-11.77-1.26-5.13-.94-9.56-.54-12.22Z"/><path class="cls-4" d="m57.53,190.65l-18.2,17.42s-1.01,1.6.13,2.85c1.14,1.24,11.37,5.76,14.74,5.27,3.37-.49,3.14-2.64,3.14-2.64l.2-22.89Z"/><path class="cls-4" d="m55.98,189.54l-24.34.04s-1.8.48-1.91,2.22c-.11,1.74,3.52,12.44,6.11,14.48,2.58,2.04,3.94.26,3.94.26l16.21-17Z"/><path class="cls-4" d="m58.7,190.75l-.07,23.76s.45,1.7,2.12,1.63c1.67-.08,11.94-4.8,13.91-7.55,1.97-2.74.27-3.88.27-3.88l-16.23-13.96Z"/><path class="cls-4" d="m61.09,189.01l15.57,16.27s1.46.86,2.68-.31c1.22-1.17,5.93-11.27,5.62-14.46-.31-3.19-2.34-2.83-2.34-2.83l-21.53,1.33Z"/><path class="cls-2" d="m78.77,188.25l79.17-2.54c.68,3.14,2.48,13.4-2.96,24.81-.85,1.78-5.29,10.75-15.5,17.14-12.15,7.59-24.31,6.42-29.43,5.49-3.49-.63-14.46-3.1-22.73-12.98-1.59-1.9-5.75-7.27-7.82-15.66-1.68-6.83-1.25-12.72-.72-16.26Z"/><path class="cls-3" d="m84.26,188.34l68.19-2.19c.59,2.71,2.13,11.54-2.55,21.37-.73,1.53-4.56,9.26-13.35,14.76-10.46,6.54-20.94,5.53-25.35,4.73-3.01-.54-12.45-2.67-19.58-11.18-1.37-1.63-4.96-6.26-6.73-13.49-1.45-5.88-1.07-10.95-.62-14Z"/><path class="cls-1" d="m88.57,187.89l59.51-1.91c.51,2.36,1.86,10.07-2.23,18.65-.64,1.34-3.98,8.08-11.65,12.88-9.13,5.71-18.28,4.83-22.12,4.13-2.62-.48-10.87-2.33-17.09-9.76-1.19-1.43-4.33-5.46-5.88-11.77-1.26-5.13-.94-9.56-.54-12.22Z"/><path class="cls-4" d="m117.21,189.39l-18.2,17.42s-1.01,1.6.13,2.85c1.14,1.24,11.37,5.76,14.74,5.27,3.37-.49,3.14-2.64,3.14-2.64l.2-22.89Z"/><path class="cls-4" d="m115.66,188.28l-24.34.04s-1.8.48-1.91,2.22c-.11,1.74,3.52,12.44,6.11,14.48,2.58,2.04,3.94.26,3.94.26l16.21-17Z"/><path class="cls-4" d="m118.38,189.5l-.07,23.76s.45,1.7,2.12,1.63c1.67-.08,11.94-4.8,13.91-7.55,1.97-2.74.27-3.88.27-3.88l-16.23-13.96Z"/><path class="cls-4" d="m120.76,187.76l15.57,16.27s1.46.86,2.68-.31c1.22-1.17,5.93-11.27,5.62-14.46-.31-3.19-2.34-2.83-2.34-2.83l-21.53,1.33Z"/><path class="cls-2" d="m13.24,109.76l79.17-2.54c.68,3.14,2.48,13.4-2.96,24.81-.85,1.78-5.29,10.75-15.5,17.14-12.15,7.59-24.31,6.42-29.43,5.49-3.49-.63-14.46-3.1-22.73-12.98-1.59-1.9-5.75-7.27-7.82-15.66-1.68-6.83-1.25-12.72-.72-16.26Z"/><path class="cls-3" d="m18.73,109.85l68.19-2.19c.59,2.71,2.13,11.54-2.55,21.37-.73,1.53-4.56,9.26-13.35,14.76-10.46,6.54-20.94,5.53-25.35,4.73-3.01-.54-12.45-2.67-19.58-11.18-1.37-1.63-4.96-6.26-6.73-13.49-1.45-5.88-1.07-10.95-.62-14Z"/><path class="cls-1" d="m23.04,109.4l59.51-1.91c.51,2.36,1.86,10.07-2.23,18.65-.64,1.34-3.98,8.08-11.65,12.88-9.13,5.71-18.28,4.83-22.12,4.13-2.62-.48-10.87-2.33-17.09-9.76-1.19-1.43-4.33-5.46-5.88-11.77-1.26-5.13-.94-9.56-.54-12.22Z"/><path class="cls-4" d="m51.68,110.9l-18.2,17.42s-1.01,1.6.13,2.85c1.14,1.24,11.37,5.76,14.74,5.27,3.37-.49,3.14-2.64,3.14-2.64l.2-22.89Z"/><path class="cls-4" d="m50.13,109.8l-24.34.04s-1.8.48-1.91,2.22c-.11,1.74,3.52,12.44,6.11,14.48,2.58,2.04,3.94.26,3.94.26l16.21-17Z"/><path class="cls-4" d="m52.85,111.01l-.07,23.76s.45,1.7,2.12,1.63c1.67-.08,11.94-4.8,13.91-7.55,1.97-2.74.27-3.88.27-3.88l-16.23-13.96Z"/><path class="cls-4" d="m55.24,109.27l15.57,16.27s1.46.86,2.68-.31c1.22-1.17,5.93-11.27,5.62-14.46-.31-3.19-2.34-2.83-2.34-2.83l-21.53,1.33Z"/><path class="cls-2" d="m72.92,107.51l79.17-2.54c.68,3.14,2.48,13.4-2.96,24.81-.85,1.78-5.29,10.75-15.5,17.14-12.15,7.59-24.31,6.42-29.43,5.49-3.49-.63-14.46-3.1-22.73-12.98-1.59-1.9-5.75-7.27-7.82-15.66-1.68-6.83-1.25-12.72-.72-16.26Z"/><path class="cls-3" d="m78.41,107.59l68.19-2.19c.59,2.71,2.13,11.54-2.55,21.37-.73,1.53-4.56,9.26-13.35,14.76-10.46,6.54-20.94,5.53-25.35,4.73-3.01-.54-12.45-2.67-19.58-11.18-1.37-1.63-4.96-6.26-6.73-13.49-1.45-5.88-1.07-10.95-.62-14Z"/><path class="cls-1" d="m82.72,107.14l59.51-1.91c.51,2.36,1.86,10.07-2.23,18.65-.64,1.34-3.98,8.08-11.65,12.88-9.13,5.71-18.28,4.83-22.12,4.13-2.62-.48-10.87-2.33-17.09-9.76-1.19-1.43-4.33-5.46-5.88-11.77-1.26-5.13-.94-9.56-.54-12.22Z"/><path class="cls-4" d="m111.36,108.65l-18.2,17.42s-1.01,1.6.13,2.85c1.14,1.24,11.37,5.76,14.74,5.27,3.37-.49,3.14-2.64,3.14-2.64l.2-22.89Z"/><path class="cls-4" d="m109.81,107.54l-24.34.04s-1.8.48-1.91,2.22c-.11,1.74,3.52,12.44,6.11,14.48,2.58,2.04,3.94.26,3.94.26l16.21-17Z"/><path class="cls-4" d="m112.53,108.76l-.07,23.76s.45,1.7,2.12,1.63c1.67-.08,11.94-4.8,13.91-7.55,1.97-2.74.27-3.88.27-3.88l-16.23-13.96Z"/><path class="cls-4" d="m114.91,107.01l15.57,16.27s1.46.86,2.68-.31c1.22-1.17,5.93-11.27,5.62-14.46-.31-3.19-2.34-2.83-2.34-2.83l-21.53,1.33Z"/><path class="cls-2" d="m151.09,45.58l-79.17,2.54c-.68-3.14-2.48-13.4,2.96-24.81.85-1.78,5.29-10.75,15.5-17.14C102.53-1.42,114.69-.25,119.81.68c3.49.63,14.46,3.1,22.73,12.98,1.59,1.9,5.75,7.27,7.82,15.66,1.68,6.83,1.25,12.72.72,16.26Z"/><path class="cls-3" d="m145.6,45.5l-68.19,2.19c-.59-2.71-2.13-11.54,2.55-21.37.73-1.53,4.56-9.26,13.35-14.76,10.46-6.54,20.94-5.53,25.35-4.73,3.01.54,12.45,2.67,19.58,11.18,1.37,1.63,4.96,6.26,6.73,13.49,1.45,5.88,1.07,10.95.62,14Z"/><path class="cls-1" d="m141.29,45.94l-59.51,1.91c-.51-2.36-1.86-10.07,2.23-18.65.64-1.34,3.98-8.08,11.65-12.88,9.13-5.71,18.28-4.83,22.12-4.13,2.62.48,10.87,2.33,17.09,9.76,1.19,1.43,4.33,5.46,5.88,11.77,1.26,5.13.94,9.56.54,12.22Z"/><path class="cls-4" d="m112.65,44.44l18.2-17.42s1.01-1.6-.13-2.85c-1.14-1.24-11.37-5.76-14.74-5.27-3.37.49-3.14,2.64-3.14,2.64l-.2,22.89Z"/><path class="cls-4" d="m114.2,45.55l24.34-.04s1.8-.48,1.91-2.22c.11-1.74-3.52-12.44-6.11-14.48-2.58-2.04-3.94-.26-3.94-.26l-16.21,17Z"/><path class="cls-4" d="m111.48,44.33l.07-23.76s-.45-1.7-2.12-1.63c-1.67.08-11.94,4.8-13.91,7.55-1.97,2.74-.27,3.88-.27,3.88l16.23,13.96Z"/><path class="cls-4" d="m109.1,46.08l-15.57-16.27s-1.46-.86-2.68.31c-1.22,1.17-5.93,11.27-5.62,14.46.31,3.19,2.34,2.83,2.34,2.83l21.53-1.33Z"/><path class="cls-2" d="m91.41,46.84l-79.17,2.54c-.68-3.14-2.48-13.4,2.96-24.81.85-1.78,5.29-10.75,15.5-17.14C42.85-.17,55.02,1.01,60.14,1.93c3.49.63,14.46,3.1,22.73,12.98,1.59,1.9,5.75,7.27,7.82,15.66,1.68,6.83,1.25,12.72.72,16.26Z"/><path class="cls-3" d="m85.92,46.75l-68.19,2.19c-.59-2.71-2.13-11.54,2.55-21.37.73-1.53,4.56-9.26,13.35-14.76,10.46-6.54,20.94-5.53,25.35-4.73,3.01.54,12.45,2.67,19.58,11.18,1.37,1.63,4.96,6.26,6.73,13.49,1.45,5.88,1.07,10.95.62,14Z"/><path class="cls-1" d="m81.62,47.2l-59.51,1.91c-.51-2.36-1.86-10.07,2.23-18.65.64-1.34,3.98-8.08,11.65-12.88,9.13-5.71,18.28-4.83,22.12-4.13,2.62.48,10.87,2.33,17.09,9.76,1.19,1.43,4.33,5.46,5.88,11.77,1.26,5.13.94,9.56.54,12.22Z"/><path class="cls-4" d="m52.97,45.7l18.2-17.42s1.01-1.6-.13-2.85c-1.14-1.24-11.37-5.76-14.74-5.27-3.37.49-3.14,2.64-3.14,2.64l-.2,22.89Z"/><path class="cls-4" d="m54.52,46.8l24.34-.04s1.8-.48,1.91-2.22c.11-1.74-3.52-12.44-6.11-14.48-2.58-2.04-3.94-.26-3.94-.26l-16.21,17Z"/><path class="cls-4" d="m51.8,45.59l.07-23.76s-.45-1.7-2.12-1.63c-1.67.08-11.94,4.8-13.91,7.55-1.97,2.74-.27,3.88-.27,3.88l16.23,13.96Z"/><path class="cls-4" d="m49.42,47.33l-15.57-16.27s-1.46-.86-2.68.31c-1.22,1.17-5.93,11.27-5.62,14.46.31,3.19,2.34,2.83,2.34,2.83l21.53-1.33Z"/><path class="cls-2" d="m45.58,39.68l2.54,79.17c-3.14.68-13.4,2.48-24.81-2.96-1.78-.85-10.75-5.29-17.14-15.5C-1.42,88.24-.25,76.07.68,70.96c.63-3.49,3.1-14.46,12.98-22.73,1.9-1.59,7.27-5.75,15.66-7.82,6.83-1.68,12.72-1.25,16.26-.72Z"/><path class="cls-3" d="m45.5,45.17l2.19,68.19c-2.71.59-11.54,2.13-21.37-2.55-1.53-.73-9.26-4.56-14.76-13.35-6.54-10.46-5.53-20.94-4.73-25.35.54-3.01,2.67-12.45,11.18-19.58,1.63-1.37,6.26-4.96,13.49-6.73,5.88-1.45,10.95-1.07,14-.62Z"/><path class="cls-1" d="m45.94,49.48l1.91,59.51c-2.36.51-10.07,1.86-18.65-2.23-1.34-.64-8.08-3.98-12.88-11.65-5.71-9.13-4.83-18.28-4.13-22.12.48-2.62,2.33-10.87,9.76-17.09,1.43-1.19,5.46-4.33,11.77-5.88,5.13-1.26,9.56-.94,12.22-.54Z"/><path class="cls-4" d="m44.44,78.12l-17.42-18.2s-1.6-1.01-2.85.13c-1.24,1.14-5.76,11.37-5.27,14.74.49,3.37,2.64,3.14,2.64,3.14l22.89.2Z"/><path class="cls-4" d="m45.55,76.57l-.04-24.34s-.48-1.8-2.22-1.91c-1.74-.11-12.44,3.52-14.48,6.11-2.04,2.58-.26,3.94-.26,3.94l17,16.21Z"/><path class="cls-4" d="m44.33,79.29l-23.76-.07s-1.7.45-1.63,2.12c.08,1.67,4.8,11.94,7.55,13.91,2.74,1.97,3.88.27,3.88.27l13.96-16.23Z"/><path class="cls-4" d="m46.08,81.67l-16.27,15.57s-.86,1.46.31,2.68c1.17,1.22,11.27,5.93,14.46,5.62,3.19-.31,2.83-2.34,2.83-2.34l-1.33-21.53Z"/></g></svg>