<?xml version="1.0" encoding="utf-8"?>
<!-- Generator: Adobe Illustrator 27.9.0, SVG Export Plug-In . SVG Version: 6.00 Build 0)  -->
<svg version="1.1" id="Layer_1" xmlns="http://www.w3.org/2000/svg" xmlns:xlink="http://www.w3.org/1999/xlink" x="0px" y="0px"
	 viewBox="0 0 192 49" style="enable-background:new 0 0 192 49;" xml:space="preserve">
<style type="text/css">
	.st0{fill:#0171B8;}
	.st1{enable-background:new    ;}
	.st2{fill:#FFFFFF;}
</style>
<g id="Group_2" transform="translate(-83 -669)">
	<g transform="matrix(1, 0, 0, 1, 83, 669)">
		<path id="Rectangle_1-2" class="st0" d="M24.5,0h143C181,0,192,11,192,24.5l0,0C192,38,181,49,167.5,49h-143C11,49,0,38,0,24.5
			l0,0C0,11,11,0,24.5,0z"/>
	</g>
	<g class="st1">
		<path class="st2" d="M126.5,684h3.7v6.3h7.3V684h3.7v17h-3.7v-7.3h-7.3v7.3h-3.7V684z"/>
		<path class="st2" d="M159,694.4c0,1-0.2,1.9-0.5,2.8c-0.3,0.8-0.8,1.6-1.4,2.2s-1.3,1.1-2.2,1.5c-0.9,0.4-1.9,0.5-3.1,0.5
			c-1.2,0-2.2-0.2-3.1-0.5c-0.9-0.4-1.6-0.8-2.2-1.5s-1.1-1.4-1.4-2.2c-0.3-0.8-0.5-1.8-0.5-2.8V684h3.7v10.3c0,0.5,0.1,1,0.3,1.5
			c0.2,0.4,0.4,0.8,0.7,1.2c0.3,0.3,0.7,0.6,1.1,0.8s0.9,0.3,1.4,0.3s1-0.1,1.4-0.3s0.8-0.4,1.1-0.8c0.3-0.3,0.5-0.7,0.7-1.2
			c0.2-0.4,0.3-0.9,0.3-1.5V684h3.7V694.4z"/>
		<path class="st2" d="M168.1,684h3.1l7.4,17h-4.2l-1.5-3.6h-6.6l-1.4,3.6h-4.1L168.1,684z M169.5,689l-2.1,5.3h4.2L169.5,689z"/>
		<path class="st2" d="M181.4,687.3h-4.8V684H190v3.3h-4.8V701h-3.7V687.3z"/>
		<path class="st2" d="M204.5,684h3.1l7.4,17h-4.2l-1.5-3.6h-6.6l-1.4,3.6h-4.1L204.5,684z M206,689l-2.1,5.3h4.2L206,689z"/>
		<path class="st2" d="M216.7,684h3.7v6.3h7.3V684h3.7v17h-3.7v-7.3h-7.3v7.3h-3.7V684z"/>
	</g>
</g>
</svg>
