<?xml version="1.0" encoding="utf-8"?>
<!-- Generator: Adobe Illustrator 27.9.0, SVG Export Plug-In . SVG Version: 6.00 Build 0)  -->
<svg version="1.1" id="Layer_1" xmlns="http://www.w3.org/2000/svg" xmlns:xlink="http://www.w3.org/1999/xlink" x="0px" y="0px"
	 viewBox="0 0 130 35" style="enable-background:new 0 0 130 35;" xml:space="preserve">
<style type="text/css">
	.st0{fill:#0171B9;}
	.st1{fill:#FFFFFF;}
</style>
<g id="Group_5" transform="translate(-184 -730)">
	<g transform="matrix(1, 0, 0, 1, 184, 730)">
		<path id="Path_79-2" class="st0" d="M17.5,0h95c9.7,0,17.5,7.8,17.5,17.5S122.2,35,112.5,35l0,0h-95C7.8,35,0,27.2,0,17.5
			S7.8,0,17.5,0z"/>
	</g>
	<path id="Path_78" class="st1" d="M238.8,740.3h2.3l5.5,12.7h-3.2l-1.1-2.7h-4.9l-1.1,2.7h-3.1L238.8,740.3z M239.9,744l-1.5,4h3.1
		L239.9,744z M259.5,752.1c-0.8,0.4-1.7,0.7-2.6,0.9c-0.9,0.2-1.8,0.3-2.8,0.3c-0.9,0-1.9-0.1-2.8-0.5c-0.8-0.3-1.6-0.7-2.2-1.3
		c-0.6-0.6-1.1-1.3-1.4-2.1c-0.4-0.9-0.5-1.8-0.5-2.8c0-0.9,0.2-1.9,0.5-2.8c0.3-0.8,0.8-1.5,1.4-2.1c0.6-0.6,1.4-1,2.2-1.3
		c0.9-0.3,1.8-0.5,2.8-0.5c1,0,1.9,0.1,2.8,0.4c0.8,0.2,1.6,0.7,2.3,1.3l-2,2.2c-0.4-0.4-0.8-0.7-1.3-0.9c-0.6-0.2-1.2-0.3-1.8-0.3
		c-0.6,0-1.1,0.1-1.6,0.3c-0.5,0.2-0.9,0.5-1.3,0.9c-0.4,0.4-0.6,0.8-0.8,1.3c-0.4,1.1-0.4,2.2,0,3.3c0.2,0.5,0.4,0.9,0.8,1.3
		c0.4,0.4,0.8,0.7,1.3,0.9c0.5,0.2,1.1,0.3,1.6,0.3c0.5,0,1.1-0.1,1.6-0.2c0.4-0.1,0.7-0.2,1.1-0.4V748h-2.3v-2.6h5L259.5,752.1z
		 M266.2,740.3h2.3L274,753h-3.2l-1.1-2.7h-5l-1.1,2.7h-3.1L266.2,740.3z M267.2,744l-1.5,4h3.1L267.2,744z M275.3,740.3h2.8V753
		h-2.8V740.3z M280.6,740.3h3.8l5.4,8.9h0v-8.9h2.8V753H289l-5.6-9.1h0v9.1h-2.8L280.6,740.3z"/>
	<g id="refresh" transform="translate(240.155 765.655)">
		<path id="Path_7" class="st1" d="M-26.2-28c-4.7,0-8.7,3.3-9.7,7.9h2.7c1.1-3.8,5-6.1,8.8-5c1.2,0.3,2.3,1,3.2,1.8l-3.2,3.2h7.9
			V-28l-2.9,2.9C-21-27-23.5-28-26.2-28z M-36-16.2v7.9l2.9-2.9c3.8,3.8,10.1,3.8,13.9,0c1.4-1.4,2.3-3.1,2.7-5h-2.7
			c-1.1,3.8-5,6.1-8.8,5c-1.2-0.3-2.3-1-3.2-1.8l3.2-3.2H-36z"/>
	</g>
</g>
</svg>
