<?xml version="1.0" encoding="utf-8"?>
<!-- Generator: Adobe Illustrator 27.9.0, SVG Export Plug-In . SVG Version: 6.00 Build 0)  -->
<svg version="1.1" id="Layer_1" xmlns="http://www.w3.org/2000/svg" xmlns:xlink="http://www.w3.org/1999/xlink" x="0px" y="0px"
	 viewBox="0 0 130 35" style="enable-background:new 0 0 130 35;" xml:space="preserve">
<style type="text/css">
	.st0{fill:#EC3316;}
	.st1{fill:#FFFFFF;}
	.st2{fill:none;}
</style>
<g id="Group_4" transform="translate(-43 -730)">
	<g transform="matrix(1, 0, 0, 1, 43, 730)">
		<path id="Path_81-2" class="st0" d="M17.5,0h95c9.7,0,17.5,7.8,17.5,17.5S122.2,35,112.5,35l0,0h-95C7.8,35,0,27.2,0,17.5
			S7.8,0,17.5,0z"/>
	</g>
	<path id="Path_80" class="st1" d="M93,743.4c-0.2-0.3-0.6-0.5-0.9-0.6c-0.4-0.1-0.7-0.2-1.1-0.2c-0.2,0-0.4,0-0.6,0.1
		c-0.2,0-0.4,0.1-0.6,0.2c-0.2,0.1-0.3,0.2-0.5,0.4c-0.1,0.2-0.2,0.4-0.2,0.6c0,0.3,0.1,0.7,0.4,0.9c0.3,0.2,0.7,0.4,1.1,0.5
		c0.4,0.1,0.9,0.3,1.4,0.4c0.5,0.1,1,0.3,1.4,0.6c0.4,0.3,0.8,0.6,1.1,1.1c0.3,0.5,0.5,1.2,0.4,1.8c0,0.6-0.1,1.3-0.4,1.9
		c-0.3,0.5-0.6,1-1.1,1.3c-0.5,0.4-1,0.6-1.6,0.8c-1.4,0.4-2.8,0.3-4.2-0.1c-0.7-0.3-1.4-0.7-2-1.2l2-2.2c0.3,0.4,0.7,0.7,1.1,0.9
		c0.4,0.2,0.9,0.3,1.4,0.3c0.2,0,0.5,0,0.7-0.1c0.2,0,0.4-0.1,0.6-0.2c0.2-0.1,0.3-0.2,0.4-0.4c0.1-0.2,0.2-0.4,0.2-0.6
		c0-0.4-0.2-0.7-0.4-0.9c-0.3-0.2-0.7-0.4-1.1-0.6c-0.4-0.2-0.9-0.3-1.4-0.5c-0.5-0.2-1-0.4-1.4-0.6c-0.4-0.3-0.8-0.6-1.1-1
		c-0.3-0.5-0.5-1.1-0.4-1.7c0-0.6,0.1-1.2,0.4-1.8c0.3-0.5,0.6-1,1.1-1.3c0.5-0.4,1-0.6,1.6-0.8c0.6-0.2,1.2-0.3,1.8-0.3
		c0.7,0,1.4,0.1,2.1,0.3c0.7,0.2,1.3,0.6,1.8,1L93,743.4z M101.3,740.3h2.3l5.5,12.7H106l-1.1-2.7h-4.9l-1.1,2.7h-3.1L101.3,740.3z
		 M102.3,744l-1.5,4h3.1L102.3,744z M108,740.3h3.2l3.2,8.4h0l3.2-8.4h3l-5.2,12.7h-2.2L108,740.3z M122.1,740.3h8.7v2.6h-5.9v2.4
		h5.5v2.6h-5.5v2.6h6.2v2.6h-9L122.1,740.3z M138.6,740.3h2.8V753h-2.8V740.3z M146.4,742.7h-3.6v-2.5h10.1v2.5h-3.6V753h-2.8
		L146.4,742.7z"/>
	<g id="download" transform="translate(91 763)">
		<g id="Group_1" transform="translate(5.417 3.25)">
			<path id="Path_2" class="st1" d="M-36-9.6h15.2v-2.2H-36V-9.6z M-20.8-21.5h-4.3V-28h-6.5v6.5H-36l7.6,7.6L-20.8-21.5z"/>
		</g>
		<path id="Path_3" class="st2" d="M-36-28h26v26h-26V-28z"/>
	</g>
</g>
</svg>
