<?xml version="1.0" encoding="UTF-8"?><svg id="Layer_2" xmlns="http://www.w3.org/2000/svg" viewBox="0 0 52.7 44.54"><defs><style>.cls-1{fill:#ffbd00;stroke-width:0px;}</style></defs><g id="_6c"><path id="c6" class="cls-1" d="m43.73,42.64c-5.11-2.26-8.61-7.59-10.26-13.74.27,0,.54-.02.81-.03-.1,0-.19-.03-.28-.03,4.36-.43,8.48-1.51,12.15-4.69,6.21-5.37,9.95-19.12-.73-21.84-4.67-1.19-11.73-.31-16.45.38-.01,0-.03,0-.04.01h-.1s.03.01.05.02c-7.7,1.17-10.41,7.55-11.12,14.45C15.41,11.96,14.88,5.75,16.49.04,16.1,1.45,1.46-1.05,1,.57-1.39,9.02.46,18.55,7.11,24.66c3.36,3.09,7.06,4.18,10.99,4.52,1.39,8.24,6.1,14.62,15.09,15.14-.09,0-.17.04-.26.05l.49-.02c.06,0,.12.02.18.02,4.48.16,9.97.42,14.77-.53h.06s-.02,0-.03,0c1.52-.3,2.98-.71,4.3-1.3-2.49,1.11-5.78.48-8.96.1Zm-8.07-24.79c-.76,1.91-1.88,3.59-3.21,5.06-.4-5.54.66-11.04,3.29-15.02,1.27,2.97,1.22,6.7-.08,9.96Z"/></g></svg>