<?xml version="1.0" encoding="utf-8"?>
<!-- Generator: Adobe Illustrator 27.9.0, SVG Export Plug-In . SVG Version: 6.00 Build 0)  -->
<svg version="1.1" id="Layer_1" xmlns="http://www.w3.org/2000/svg" xmlns:xlink="http://www.w3.org/1999/xlink" x="0px" y="0px"
	 viewBox="0 0 300 167" style="enable-background:new 0 0 300 167;" xml:space="preserve">
<style type="text/css">
	.st0{enable-background:new    ;}
	.st1{fill:#FFFFFF;}
</style>
<g class="st0">
	<path class="st1" d="M58.1,38.1c-0.5,0.5-1.1,0.8-1.9,0.8c-0.5,0-1-0.1-1.4-0.3c-0.4-0.2-0.6-0.5-0.7-1l-2.1-6.9h-9.2l-1.7,5.7
		c-0.1,0.6-0.2,1-0.2,1.3c0,0.4,0.1,0.7,0.3,0.9c-0.6,0.2-1.2,0.3-1.8,0.3c-0.6,0-1.1-0.1-1.4-0.3c-0.3-0.2-0.5-0.6-0.5-1.1
		c0-0.4,0.1-1,0.4-1.8l7.5-22.1c0.9-0.3,1.8-0.5,2.7-0.5c1.1,0,1.7,0.4,1.9,1.2l7.1,22.1C57.4,37.1,57.7,37.7,58.1,38.1z M51.5,28.8
		l-4.1-13.6l-4,13.6H51.5z"/>
	<path class="st1" d="M72.4,20.7c0.8,0.7,1.2,1.6,1.2,2.8c0,0.8-0.2,1.5-0.7,2.1c-0.5,0.5-1.1,0.8-1.7,0.8c-0.6,0-1-0.2-1.3-0.5
		c0.3-0.4,0.4-0.8,0.5-1.1c0.1-0.3,0.1-0.7,0.1-1.2c0-1.4-0.7-2.2-2-2.2c-1,0-1.9,0.7-2.6,2.1s-1,3.5-1,6.4c0,3,0,4.9,0.1,5.8
		c0,0.9,0.2,1.7,0.5,2.4c-0.2,0.2-0.5,0.4-0.8,0.5c-0.3,0.1-0.7,0.2-1.1,0.3c-0.5,0-1-0.2-1.3-0.5c-0.4-0.3-0.5-0.8-0.5-1.4V24.1
		c0-0.6-0.1-1.1-0.2-1.4c-0.2-0.3-0.4-0.4-0.8-0.4c-0.5,0-0.8,0.2-0.9,0.5c-0.3-0.4-0.4-0.8-0.4-1.2c0-0.6,0.2-1,0.6-1.3
		c0.4-0.3,1-0.5,1.7-0.5c1,0,1.7,0.3,2.2,1c0.5,0.7,0.8,1.7,0.7,3c0.4-1.3,1-2.3,1.8-3c0.8-0.7,1.8-1,3-1
		C70.6,19.7,71.6,20,72.4,20.7z"/>
	<path class="st1" d="M91.3,34.6c0,0.3-0.1,0.6-0.3,1c-0.4,1.1-1.2,1.9-2.4,2.5c-1.2,0.6-2.5,0.9-4.1,0.9c-2.7,0-4.8-0.8-6.3-2.5
		c-1.5-1.7-2.3-4-2.3-7.1c0-3,0.8-5.4,2.3-7.1c1.5-1.7,3.7-2.6,6.4-2.6c2,0,3.6,0.5,4.9,1.4c1.2,0.9,1.9,2.2,1.9,3.9
		c0,1.8-0.7,3.1-2.2,4.1c-1.4,0.9-3.4,1.4-5.9,1.4c-1.3,0-2.5-0.1-3.8-0.2c0.3,4.4,2.2,6.6,5.9,6.6c1.3,0,2.4-0.3,3.4-0.8
		c0.9-0.5,1.6-1.3,2-2.2C91.1,33.9,91.3,34.2,91.3,34.6z M80.9,23.1c-0.9,1.3-1.4,3.3-1.4,5.8c0.5,0,1.3,0.1,2.4,0.1
		c1.8,0,3.3-0.3,4.4-1c1.1-0.7,1.7-1.8,1.7-3.5c0-1.2-0.3-2.1-1-2.6c-0.6-0.5-1.5-0.8-2.4-0.8C83,21,81.8,21.7,80.9,23.1z"/>
	<path class="st1" d="M118.2,36.7c0,6.7-2.9,10.1-8.6,10.1c-1.8,0-3.3-0.3-4.5-0.9c-1.2-0.6-1.8-1.6-1.8-2.9c0-0.7,0.2-1.3,0.7-1.7
		c0.4-0.5,1-0.7,1.7-0.7c0.7,0,1.2,0.2,1.5,0.6c-0.3,0.2-0.5,0.5-0.7,0.8c-0.1,0.3-0.2,0.6-0.2,0.9c0,0.9,0.3,1.6,1,2
		c0.6,0.5,1.4,0.7,2.3,0.7c3.7,0,5.6-2.9,5.6-8.7c0-0.5,0-1.4,0.1-2.7c-0.5,1.5-1.3,2.6-2.3,3.4s-2.3,1.2-3.9,1.2
		c-1.8,0-3.2-0.6-4.1-1.7c-0.9-1.2-1.4-3.1-1.4-5.8v-6.9c0-1.7-0.2-3-0.5-4c0.6-0.5,1.2-0.8,1.9-0.8c0.6,0,1,0.2,1.4,0.5
		c0.3,0.3,0.5,0.8,0.5,1.3v9.4c0,2.2,0.2,3.7,0.7,4.7c0.5,1,1.3,1.5,2.4,1.5c1.4,0,2.6-0.7,3.5-2.1s1.4-3.5,1.4-6.4
		c0-2.9,0-4.8-0.1-5.8c0-0.9-0.2-1.7-0.5-2.4c0.6-0.5,1.2-0.7,1.9-0.7c0.5,0,1,0.2,1.3,0.5c0.4,0.3,0.5,0.8,0.5,1.4L118.2,36.7z"/>
	<path class="st1" d="M124.3,36.4c-1.5-1.7-2.2-4-2.2-7.1c0-3,0.7-5.4,2.2-7.1c1.5-1.7,3.5-2.6,6.2-2.6s4.7,0.9,6.2,2.6
		c1.5,1.7,2.2,4.1,2.2,7.1c0,3-0.7,5.4-2.2,7.1c-1.5,1.7-3.5,2.5-6.2,2.5S125.8,38.1,124.3,36.4z M134.1,35.5
		c0.8-1.4,1.2-3.5,1.2-6.1c0-2.7-0.4-4.8-1.2-6.2s-2-2.1-3.6-2.1c-1.6,0-2.8,0.7-3.7,2.1s-1.2,3.5-1.2,6.2c0,2.7,0.4,4.7,1.2,6.1
		c0.8,1.4,2,2.1,3.7,2.1C132.1,37.6,133.3,36.9,134.1,35.5z"/>
	<path class="st1" d="M160.1,37.1c0,0.6-0.2,1-0.6,1.3c-0.4,0.3-1,0.5-1.7,0.5c-1,0-1.7-0.3-2.2-1c-0.5-0.6-0.8-1.6-0.8-2.9v-0.5
		c-0.5,1.4-1.2,2.5-2.3,3.3s-2.3,1.2-3.7,1.2c-2,0-3.4-0.6-4.3-1.7c-0.9-1.2-1.3-3.1-1.3-5.8v-7.1c0-1.7-0.2-3-0.5-4
		c0.6-0.5,1.2-0.8,1.9-0.8c0.6,0,1,0.2,1.4,0.5c0.3,0.3,0.5,0.8,0.5,1.3V31c0,2.3,0.3,3.9,0.8,4.8c0.5,0.9,1.4,1.4,2.6,1.4
		c0.8,0,1.6-0.3,2.3-0.9c0.7-0.6,1.3-1.5,1.7-2.8s0.7-2.9,0.7-4.8c0-3,0-5-0.1-5.9s-0.2-1.7-0.5-2.5c0.6-0.5,1.2-0.7,1.9-0.7
		c0.5,0,1,0.2,1.3,0.5c0.4,0.3,0.5,0.8,0.5,1.4l0,12.9c0,0.7,0.1,1.1,0.2,1.4c0.2,0.3,0.4,0.4,0.7,0.4c0.5,0,0.8-0.2,1-0.5
		C159.9,36.2,160.1,36.6,160.1,37.1z"/>
	<path class="st1" d="M182.7,20.7c0.8,0.7,1.2,1.6,1.2,2.8c0,0.8-0.2,1.5-0.7,2.1c-0.5,0.5-1.1,0.8-1.7,0.8c-0.6,0-1-0.2-1.3-0.5
		c0.3-0.4,0.4-0.8,0.5-1.1c0.1-0.3,0.1-0.7,0.1-1.2c0-1.4-0.7-2.2-2-2.2c-1,0-1.9,0.7-2.6,2.1c-0.7,1.4-1,3.5-1,6.4
		c0,3,0,4.9,0.1,5.8c0,0.9,0.2,1.7,0.5,2.4c-0.2,0.2-0.4,0.4-0.8,0.5c-0.3,0.1-0.7,0.2-1.1,0.3c-0.5,0-1-0.2-1.3-0.5
		c-0.4-0.3-0.5-0.8-0.5-1.4V24.1c0-0.6-0.1-1.1-0.2-1.4s-0.4-0.4-0.8-0.4c-0.5,0-0.8,0.2-0.9,0.5c-0.3-0.4-0.4-0.8-0.4-1.2
		c0-0.6,0.2-1,0.6-1.3c0.4-0.3,1-0.5,1.7-0.5c1,0,1.7,0.3,2.2,1c0.5,0.7,0.8,1.7,0.7,3c0.4-1.3,1-2.3,1.8-3c0.8-0.7,1.8-1,3-1
		C180.9,19.7,181.9,20,182.7,20.7z"/>
	<path class="st1" d="M201.7,34.6c0,0.3-0.1,0.6-0.3,1c-0.4,1.1-1.2,1.9-2.4,2.5c-1.2,0.6-2.5,0.9-4.1,0.9c-2.7,0-4.8-0.8-6.3-2.5
		c-1.5-1.7-2.3-4-2.3-7.1c0-3,0.8-5.4,2.3-7.1c1.5-1.7,3.7-2.6,6.4-2.6c2,0,3.6,0.5,4.9,1.4s1.9,2.2,1.9,3.9c0,1.8-0.7,3.1-2.2,4.1
		c-1.4,0.9-3.4,1.4-5.9,1.4c-1.3,0-2.5-0.1-3.8-0.2c0.3,4.4,2.2,6.6,5.9,6.6c1.3,0,2.4-0.3,3.4-0.8c0.9-0.5,1.6-1.3,2-2.2
		C201.5,33.9,201.7,34.2,201.7,34.6z M191.3,23.1c-0.9,1.3-1.4,3.3-1.4,5.8c0.5,0,1.3,0.1,2.4,0.1c1.8,0,3.3-0.3,4.4-1
		c1.1-0.7,1.7-1.8,1.7-3.5c0-1.2-0.3-2.1-1-2.6c-0.6-0.5-1.5-0.8-2.4-0.8C193.4,21,192.2,21.7,191.3,23.1z"/>
	<path class="st1" d="M223,36.9c0,0.6-0.3,1-0.8,1.4c-0.5,0.4-1.1,0.6-1.9,0.6c-1.1,0-1.9-0.4-2.5-1.2c-0.6-0.8-0.8-2-0.8-3.6v-0.6
		c-0.7,1.6-1.8,2.9-3.1,3.9c-1.3,1-2.8,1.5-4.4,1.5c-1.4,0-2.5-0.4-3.3-1.1c-0.8-0.8-1.2-1.8-1.2-3c0-1.4,0.6-2.7,1.7-3.7
		c1.1-1,2.6-1.7,4.4-2.2c1.9-0.5,3.9-0.7,5.9-0.6v-0.9c0-2.1-0.3-3.7-1-4.7c-0.7-1-1.8-1.5-3.3-1.5c-1,0-1.8,0.2-2.5,0.7
		c-0.7,0.5-1,1.2-1,2.2c0,0.5,0.1,1,0.4,1.5s0.6,0.8,1.1,1c-0.4,0.5-1.1,0.8-1.9,0.8c-0.9,0-1.6-0.3-2.1-1c-0.5-0.6-0.8-1.4-0.8-2.2
		c0-1.4,0.6-2.5,1.9-3.2c1.3-0.8,3-1.1,5.2-1.1c2.5,0,4.4,0.6,5.6,1.9c1.2,1.2,1.8,3.2,1.8,5.9v7c0,1.3,0.4,1.9,1.3,1.9
		c0.2,0,0.4-0.1,0.6-0.2c0.2-0.1,0.4-0.3,0.5-0.5C222.8,36,223,36.4,223,36.9z M213.6,35.6c0.9-0.7,1.7-1.6,2.3-2.7
		c0.6-1.1,0.9-2.3,1-3.5c-0.9,0-1.8,0-2.8,0.1c-1,0.1-1.8,0.3-2.5,0.6c-1,0.4-1.8,0.9-2.3,1.5c-0.5,0.6-0.8,1.4-0.8,2.3
		c0,0.8,0.2,1.4,0.6,1.9c0.4,0.5,1,0.8,1.8,0.8C211.7,36.7,212.7,36.3,213.6,35.6z"/>
	<path class="st1" d="M242.9,37c0,0.5-0.2,1-0.7,1.3s-1,0.5-1.7,0.5c-2,0-3.1-1.6-3.2-4.7c-0.6,1.6-1.4,2.8-2.4,3.6
		c-1.1,0.9-2.4,1.3-3.9,1.3c-2.3,0-3.9-0.8-4.8-2.5c-0.9-1.7-1.4-3.8-1.4-6.3c0-3.3,0.7-5.9,2-7.7c1.3-1.8,3.2-2.8,5.6-2.8
		c1.2,0,2.2,0.2,3,0.7c0.8,0.5,1.4,1.2,1.8,2v-4.2c0-2.2-0.2-4-0.5-5.3c0.5-0.5,1.1-0.8,1.9-0.8c0.6,0,1,0.2,1.4,0.5
		c0.4,0.3,0.5,0.8,0.5,1.3l0,20.4c0,1.2,0.4,1.9,1.2,1.9c0.5,0,0.8-0.2,1-0.5C242.8,36.1,242.9,36.6,242.9,37z M234.7,35.7
		c0.8-0.9,1.4-2,1.8-3.5c0.4-1.5,0.6-3.1,0.6-4.8c0-4-1.4-5.9-4.2-5.9c-1.5,0-2.7,0.7-3.5,2.2c-0.8,1.5-1.2,3.6-1.2,6.4
		c0,2.2,0.3,3.9,0.8,5.1s1.5,1.9,2.9,1.9C233,37,233.9,36.6,234.7,35.7z"/>
	<path class="st1" d="M261.1,36.7c0,6.7-2.9,10.1-8.6,10.1c-1.8,0-3.3-0.3-4.5-0.9c-1.2-0.6-1.8-1.6-1.8-2.9c0-0.7,0.2-1.3,0.7-1.7
		c0.4-0.5,1-0.7,1.7-0.7s1.2,0.2,1.5,0.6c-0.3,0.2-0.5,0.5-0.7,0.8c-0.1,0.3-0.2,0.6-0.2,0.9c0,0.9,0.3,1.6,1,2
		c0.6,0.5,1.4,0.7,2.3,0.7c3.7,0,5.6-2.9,5.6-8.7c0-0.5,0-1.4,0.1-2.7c-0.5,1.5-1.3,2.6-2.3,3.4s-2.3,1.2-3.9,1.2
		c-1.8,0-3.2-0.6-4.1-1.7c-0.9-1.2-1.3-3.1-1.3-5.8v-6.9c0-1.7-0.2-3-0.5-4c0.6-0.5,1.2-0.8,1.9-0.8c0.6,0,1,0.2,1.4,0.5
		c0.3,0.3,0.5,0.8,0.5,1.3v9.4c0,2.2,0.2,3.7,0.7,4.7c0.5,1,1.3,1.5,2.4,1.5c1.4,0,2.6-0.7,3.5-2.1c0.9-1.4,1.4-3.5,1.4-6.4
		c0-2.9,0-4.8-0.1-5.8c0-0.9-0.2-1.7-0.5-2.4c0.6-0.5,1.2-0.7,1.9-0.7c0.5,0,1,0.2,1.3,0.5c0.4,0.3,0.5,0.8,0.5,1.4L261.1,36.7z"/>
</g>
<g class="st0">
	<path class="st1" d="M33.1,48.6c0.9,0.6,1.3,1.3,1.3,2.3c0,0.7-0.2,1.3-0.7,1.7c-0.4,0.4-1,0.6-1.6,0.6c-0.6,0-1.1-0.2-1.3-0.5
		c0.4-0.6,0.6-1.2,0.6-1.9c0-1.2-0.7-1.8-2.1-1.8c-1.2,0-2,0.5-2.4,1.6c-0.3,1.1-0.5,2.6-0.5,4.5v1h1.9c0.4,0,0.9,0,1.6,0
		c0.7,0,1.2,0,1.6-0.1l0,0.9c0,0.3-0.1,0.5-0.3,0.7c-0.2,0.2-0.4,0.2-0.6,0.2h-4.1v12.3c0,1.8,0.2,3.1,0.5,4
		c-0.6,0.5-1.2,0.8-1.9,0.8c-0.6,0-1-0.2-1.4-0.5c-0.3-0.3-0.5-0.8-0.5-1.3V57.8h-0.5c-1,0-1.7,0-2.2,0.1l0-0.9
		c0-0.3,0.1-0.5,0.3-0.6c0.2-0.1,0.4-0.2,0.6-0.2h1.7v-1.5c0-4.6,2.1-6.8,6.2-6.8C31,47.8,32.2,48.1,33.1,48.6z"/>
	<path class="st1" d="M37.7,72.4c-1.5-1.7-2.2-4-2.2-7.1c0-3,0.7-5.4,2.2-7.1c1.5-1.7,3.5-2.6,6.2-2.6s4.7,0.9,6.2,2.6
		c1.5,1.7,2.2,4.1,2.2,7.1c0,3-0.7,5.4-2.2,7.1c-1.5,1.7-3.5,2.5-6.2,2.5S39.2,74.1,37.7,72.4z M47.5,71.5c0.8-1.4,1.2-3.5,1.2-6.1
		c0-2.7-0.4-4.8-1.2-6.2s-2-2.1-3.6-2.1c-1.6,0-2.8,0.7-3.7,2.1S39,62.6,39,65.4c0,2.7,0.4,4.7,1.2,6.1c0.8,1.4,2,2.1,3.7,2.1
		C45.4,73.6,46.6,72.9,47.5,71.5z"/>
	<path class="st1" d="M67.7,56.7c0.8,0.7,1.2,1.6,1.2,2.8c0,0.8-0.2,1.5-0.7,2.1c-0.5,0.5-1.1,0.8-1.7,0.8c-0.6,0-1-0.2-1.3-0.5
		c0.3-0.4,0.4-0.8,0.5-1.1c0.1-0.3,0.1-0.7,0.1-1.2c0-1.4-0.7-2.2-2-2.2c-1,0-1.9,0.7-2.6,2.1s-1,3.5-1,6.4c0,3,0,4.9,0.1,5.8
		c0,0.9,0.2,1.7,0.5,2.4c-0.2,0.2-0.5,0.4-0.8,0.5c-0.3,0.1-0.7,0.2-1.1,0.3c-0.5,0-1-0.2-1.3-0.5C57.2,74,57,73.5,57,72.9V60.1
		c0-0.6-0.1-1.1-0.2-1.4c-0.2-0.3-0.4-0.4-0.8-0.4c-0.5,0-0.8,0.2-0.9,0.5c-0.3-0.4-0.4-0.8-0.4-1.2c0-0.6,0.2-1,0.6-1.3
		c0.4-0.3,1-0.5,1.7-0.5c1,0,1.7,0.3,2.2,1c0.5,0.7,0.8,1.7,0.7,3c0.4-1.3,1-2.3,1.8-3c0.8-0.7,1.8-1,3-1
		C65.9,55.7,66.9,56,67.7,56.7z"/>
	<path class="st1" d="M97.3,72.9c0,0.6-0.3,1-0.8,1.4c-0.5,0.4-1.1,0.6-1.9,0.6c-1.1,0-1.9-0.4-2.5-1.2c-0.6-0.8-0.8-2-0.8-3.6v-0.6
		c-0.7,1.6-1.8,2.9-3.1,3.9c-1.3,1-2.8,1.5-4.4,1.5c-1.4,0-2.5-0.4-3.3-1.1c-0.8-0.8-1.2-1.8-1.2-3c0-1.4,0.6-2.7,1.7-3.7
		c1.1-1,2.6-1.7,4.4-2.2c1.9-0.5,3.9-0.7,5.9-0.6v-0.9c0-2.1-0.3-3.7-1-4.7c-0.7-1-1.8-1.5-3.3-1.5c-1,0-1.8,0.2-2.5,0.7
		c-0.7,0.5-1,1.2-1,2.2c0,0.5,0.1,1,0.4,1.5c0.3,0.5,0.6,0.8,1.1,1c-0.4,0.5-1.1,0.8-1.9,0.8c-0.9,0-1.6-0.3-2.1-1
		c-0.5-0.6-0.8-1.4-0.8-2.2c0-1.4,0.6-2.5,1.9-3.2c1.3-0.8,3-1.1,5.2-1.1c2.5,0,4.4,0.6,5.6,1.9s1.8,3.2,1.8,5.9v7
		c0,1.3,0.4,1.9,1.3,1.9c0.2,0,0.4-0.1,0.6-0.2s0.4-0.3,0.5-0.5C97.1,72,97.3,72.4,97.3,72.9z M87.9,71.6c0.9-0.7,1.7-1.6,2.3-2.7
		c0.6-1.1,0.9-2.3,1-3.5c-0.9,0-1.8,0-2.8,0.1c-1,0.1-1.8,0.3-2.5,0.6c-1,0.4-1.8,0.9-2.3,1.5c-0.5,0.6-0.8,1.4-0.8,2.3
		c0,0.8,0.2,1.4,0.6,1.9c0.4,0.5,1,0.8,1.8,0.8C86.1,72.7,87,72.3,87.9,71.6z"/>
	<path class="st1" d="M116.2,74.2c-0.6,0.5-1.2,0.8-1.9,0.8c-0.6,0-1-0.2-1.4-0.5c-0.4-0.3-0.5-0.8-0.5-1.3v-9.6
		c0-2.1-0.3-3.6-0.8-4.6c-0.5-1-1.4-1.5-2.7-1.5c-0.8,0-1.6,0.3-2.3,0.9c-0.7,0.6-1.3,1.5-1.8,2.8c-0.5,1.2-0.7,2.8-0.7,4.7
		c0,3,0,5,0.1,5.9c0,0.9,0.2,1.8,0.5,2.4c-0.2,0.2-0.5,0.4-0.8,0.5c-0.3,0.1-0.7,0.2-1.1,0.2c-0.6,0-1-0.2-1.4-0.5
		c-0.3-0.3-0.5-0.8-0.5-1.4V60.1c0-0.7-0.1-1.1-0.3-1.4c-0.2-0.3-0.4-0.4-0.7-0.4c-0.5,0-0.8,0.2-0.9,0.5c-0.3-0.4-0.4-0.8-0.4-1.2
		c0-0.6,0.2-1,0.6-1.3c0.4-0.3,1-0.5,1.7-0.5c1,0,1.7,0.3,2.2,1s0.8,1.6,0.8,2.9V60c0.5-1.4,1.3-2.5,2.3-3.2
		c1.1-0.8,2.3-1.1,3.8-1.1c3.9,0,5.8,2.5,5.8,7.5v7.1C115.7,72,115.9,73.4,116.2,74.2z"/>
	<path class="st1" d="M145.8,72.9c0,0.6-0.3,1-0.8,1.4c-0.5,0.4-1.1,0.6-1.9,0.6c-1.1,0-1.9-0.4-2.5-1.2c-0.6-0.8-0.8-2-0.8-3.6
		v-0.6c-0.7,1.6-1.8,2.9-3.1,3.9c-1.3,1-2.8,1.5-4.4,1.5c-1.4,0-2.5-0.4-3.3-1.1c-0.8-0.8-1.2-1.8-1.2-3c0-1.4,0.6-2.7,1.7-3.7
		c1.1-1,2.6-1.7,4.4-2.2c1.9-0.5,3.9-0.7,5.9-0.6v-0.9c0-2.1-0.3-3.7-1-4.7c-0.7-1-1.8-1.5-3.3-1.5c-1,0-1.8,0.2-2.5,0.7
		c-0.7,0.5-1,1.2-1,2.2c0,0.5,0.1,1,0.4,1.5s0.6,0.8,1.1,1c-0.4,0.5-1.1,0.8-1.9,0.8c-0.9,0-1.6-0.3-2.1-1c-0.5-0.6-0.8-1.4-0.8-2.2
		c0-1.4,0.6-2.5,1.9-3.2c1.3-0.8,3-1.1,5.2-1.1c2.5,0,4.4,0.6,5.6,1.9c1.2,1.2,1.8,3.2,1.8,5.9v7c0,1.3,0.4,1.9,1.3,1.9
		c0.2,0,0.4-0.1,0.6-0.2c0.2-0.1,0.4-0.3,0.5-0.5C145.7,72,145.8,72.4,145.8,72.9z M136.4,71.6c0.9-0.7,1.7-1.6,2.3-2.7
		c0.6-1.1,0.9-2.3,1-3.5c-0.9,0-1.8,0-2.8,0.1c-1,0.1-1.8,0.3-2.5,0.6c-1,0.4-1.8,0.9-2.3,1.5c-0.5,0.6-0.8,1.4-0.8,2.3
		c0,0.8,0.2,1.4,0.6,1.9c0.4,0.5,1,0.8,1.8,0.8C134.6,72.7,135.5,72.3,136.4,71.6z"/>
	<path class="st1" d="M151.9,74.4c-1.3-0.4-2.4-1-3.2-1.8V50c0-0.6,0.2-1,0.5-1.3s0.8-0.5,1.3-0.5c0.8,0,1.4,0.3,2,0.8
		c-0.3,1.3-0.5,3.3-0.5,5.7l0,5.4c0.5-1.3,1.2-2.3,2.2-3.2c1-0.8,2.3-1.2,3.7-1.2c2,0,3.6,0.7,4.7,2.2s1.6,3.7,1.6,6.7
		c0,3.2-0.7,5.7-2,7.6c-1.3,1.9-3.4,2.8-6.2,2.8C154.5,75,153.2,74.8,151.9,74.4z M159.7,70.9c0.7-1.7,1-3.8,1-6.4
		c0-2.4-0.3-4.2-0.9-5.3s-1.4-1.7-2.6-1.7c-1.2,0-2.2,0.4-3,1.3c-0.8,0.8-1.4,1.9-1.8,3.2s-0.6,2.6-0.6,4v6.2
		c0.3,0.4,0.9,0.7,1.6,0.9c0.7,0.3,1.5,0.4,2.2,0.4C157.7,73.4,159,72.6,159.7,70.9z"/>
	<path class="st1" d="M185.4,73.1c0,0.6-0.2,1-0.6,1.3c-0.4,0.3-1,0.5-1.7,0.5c-1,0-1.7-0.3-2.2-1c-0.5-0.6-0.8-1.6-0.8-2.9v-0.5
		c-0.5,1.4-1.2,2.5-2.3,3.3s-2.3,1.2-3.7,1.2c-2,0-3.4-0.6-4.3-1.7c-0.9-1.2-1.3-3.1-1.3-5.8v-7.1c0-1.7-0.2-3-0.5-4
		c0.6-0.5,1.2-0.8,1.9-0.8c0.6,0,1,0.2,1.4,0.5c0.3,0.3,0.5,0.8,0.5,1.3V67c0,2.3,0.3,3.9,0.8,4.8c0.5,0.9,1.4,1.4,2.6,1.4
		c0.8,0,1.6-0.3,2.3-0.9c0.7-0.6,1.3-1.5,1.7-2.8s0.7-2.9,0.7-4.8c0-3,0-5-0.1-5.9s-0.2-1.7-0.5-2.5c0.6-0.5,1.2-0.7,1.9-0.7
		c0.5,0,1,0.2,1.3,0.5c0.4,0.3,0.5,0.8,0.5,1.4l0,12.9c0,0.7,0.1,1.1,0.2,1.4c0.2,0.3,0.4,0.4,0.7,0.4c0.5,0,0.8-0.2,1-0.5
		C185.2,72.2,185.4,72.6,185.4,73.1z"/>
	<path class="st1" d="M204.8,74.2c-0.6,0.5-1.2,0.8-1.9,0.8c-0.6,0-1-0.2-1.4-0.5c-0.4-0.3-0.5-0.8-0.5-1.3v-9.6
		c0-2.1-0.3-3.6-0.8-4.6c-0.5-1-1.4-1.5-2.7-1.5c-0.8,0-1.6,0.3-2.3,0.9c-0.7,0.6-1.3,1.5-1.8,2.8c-0.5,1.2-0.7,2.8-0.7,4.7
		c0,3,0,5,0.1,5.9c0,0.9,0.2,1.8,0.5,2.4c-0.2,0.2-0.4,0.4-0.8,0.5c-0.3,0.1-0.7,0.2-1.1,0.2c-0.6,0-1-0.2-1.4-0.5s-0.5-0.8-0.5-1.4
		V60.1c0-0.7-0.1-1.1-0.3-1.4c-0.2-0.3-0.4-0.4-0.7-0.4c-0.5,0-0.8,0.2-0.9,0.5c-0.3-0.4-0.4-0.8-0.4-1.2c0-0.6,0.2-1,0.6-1.3
		c0.4-0.3,1-0.5,1.7-0.5c1,0,1.7,0.3,2.2,1c0.5,0.7,0.8,1.6,0.8,2.9V60c0.5-1.4,1.3-2.5,2.3-3.2c1.1-0.8,2.3-1.1,3.8-1.1
		c3.9,0,5.8,2.5,5.8,7.5v7.1C204.4,72,204.5,73.4,204.8,74.2z"/>
	<path class="st1" d="M226.7,73c0,0.5-0.2,1-0.7,1.3s-1,0.5-1.7,0.5c-2,0-3.1-1.6-3.2-4.7c-0.6,1.6-1.4,2.8-2.4,3.6
		c-1.1,0.9-2.4,1.3-3.9,1.3c-2.3,0-3.9-0.8-4.8-2.5c-0.9-1.7-1.4-3.8-1.4-6.3c0-3.3,0.7-5.9,2-7.7c1.3-1.8,3.2-2.8,5.6-2.8
		c1.2,0,2.2,0.2,3,0.7c0.8,0.5,1.4,1.2,1.8,2v-4.2c0-2.2-0.2-4-0.5-5.3c0.5-0.5,1.1-0.8,1.9-0.8c0.6,0,1,0.2,1.4,0.5
		c0.4,0.3,0.5,0.8,0.5,1.3l0,20.4c0,1.2,0.4,1.9,1.2,1.9c0.5,0,0.8-0.2,1-0.5C226.5,72.1,226.7,72.6,226.7,73z M218.5,71.7
		c0.8-0.9,1.4-2,1.8-3.5c0.4-1.5,0.6-3.1,0.6-4.8c0-4-1.4-5.9-4.2-5.9c-1.5,0-2.7,0.7-3.5,2.2c-0.8,1.5-1.2,3.6-1.2,6.4
		c0,2.2,0.3,3.9,0.8,5.1s1.5,1.9,2.9,1.9C216.7,73,217.7,72.6,218.5,71.7z"/>
	<path class="st1" d="M247.1,72.9c0,0.6-0.3,1-0.8,1.4c-0.5,0.4-1.1,0.6-1.9,0.6c-1.1,0-1.9-0.4-2.5-1.2c-0.6-0.8-0.8-2-0.8-3.6
		v-0.6c-0.7,1.6-1.8,2.9-3.1,3.9c-1.3,1-2.8,1.5-4.4,1.5c-1.4,0-2.5-0.4-3.3-1.1c-0.8-0.8-1.2-1.8-1.2-3c0-1.4,0.6-2.7,1.7-3.7
		c1.1-1,2.6-1.7,4.4-2.2c1.9-0.5,3.9-0.7,5.9-0.6v-0.9c0-2.1-0.3-3.7-1-4.7c-0.7-1-1.8-1.5-3.3-1.5c-1,0-1.8,0.2-2.5,0.7
		c-0.7,0.5-1,1.2-1,2.2c0,0.5,0.1,1,0.4,1.5s0.6,0.8,1.1,1c-0.4,0.5-1.1,0.8-1.9,0.8c-0.9,0-1.6-0.3-2.1-1c-0.5-0.6-0.8-1.4-0.8-2.2
		c0-1.4,0.6-2.5,1.9-3.2c1.3-0.8,3-1.1,5.2-1.1c2.5,0,4.4,0.6,5.6,1.9c1.2,1.2,1.8,3.2,1.8,5.9v7c0,1.3,0.4,1.9,1.3,1.9
		c0.2,0,0.4-0.1,0.6-0.2c0.2-0.1,0.4-0.3,0.5-0.5C247,72,247.1,72.4,247.1,72.9z M237.8,71.6c0.9-0.7,1.7-1.6,2.3-2.7
		c0.6-1.1,0.9-2.3,1-3.5c-0.9,0-1.8,0-2.8,0.1c-1,0.1-1.8,0.3-2.5,0.6c-1,0.4-1.8,0.9-2.3,1.5c-0.5,0.6-0.8,1.4-0.8,2.3
		c0,0.8,0.2,1.4,0.6,1.9c0.4,0.5,1,0.8,1.8,0.8C235.9,72.7,236.8,72.3,237.8,71.6z"/>
	<path class="st1" d="M266.1,74.2c-0.6,0.5-1.2,0.8-1.9,0.8c-0.6,0-1-0.2-1.4-0.5c-0.4-0.3-0.5-0.8-0.5-1.3v-9.6
		c0-2.1-0.3-3.6-0.8-4.6c-0.5-1-1.4-1.5-2.7-1.5c-0.8,0-1.6,0.3-2.3,0.9c-0.7,0.6-1.3,1.5-1.8,2.8c-0.5,1.2-0.7,2.8-0.7,4.7
		c0,3,0,5,0.1,5.9c0,0.9,0.2,1.8,0.5,2.4c-0.2,0.2-0.4,0.4-0.8,0.5c-0.3,0.1-0.7,0.2-1.1,0.2c-0.6,0-1-0.2-1.4-0.5s-0.5-0.8-0.5-1.4
		V60.1c0-0.7-0.1-1.1-0.3-1.4c-0.2-0.3-0.4-0.4-0.7-0.4c-0.5,0-0.8,0.2-0.9,0.5c-0.3-0.4-0.4-0.8-0.4-1.2c0-0.6,0.2-1,0.6-1.3
		c0.4-0.3,1-0.5,1.7-0.5c1,0,1.7,0.3,2.2,1c0.5,0.7,0.8,1.6,0.8,2.9V60c0.5-1.4,1.3-2.5,2.3-3.2c1.1-0.8,2.3-1.1,3.8-1.1
		c3.9,0,5.8,2.5,5.8,7.5v7.1C265.6,72,265.8,73.4,266.1,74.2z"/>
	<path class="st1" d="M277.7,56.1c0.7,0,1.2,0,1.7-0.1l0,0.9c0,0.3-0.1,0.5-0.3,0.7c-0.2,0.2-0.4,0.2-0.6,0.2h-3.6v1.3l0,11.3
		c0,1.3,0.6,1.9,1.7,1.9c0.3,0,0.7-0.1,1-0.2c0.3-0.1,0.5-0.3,0.6-0.5c0.3,0.4,0.4,0.8,0.4,1.2c0,0.6-0.3,1.1-0.9,1.4
		c-0.6,0.4-1.4,0.5-2.3,0.5c-1.2,0-2.1-0.4-2.8-1.1c-0.7-0.7-1-1.8-1-3.1V57.8H271c-1,0-1.7,0-2.2,0.1l0-0.9c0-0.3,0.1-0.5,0.3-0.6
		c0.2-0.1,0.4-0.2,0.6-0.2h1.7v-3c0-0.6,0.2-1,0.5-1.3c0.3-0.3,0.8-0.5,1.4-0.5c0.7,0,1.3,0.2,1.8,0.7c-0.3,0.9-0.4,2.3-0.4,4.1h1.2
		C276.4,56.2,277,56.2,277.7,56.1z"/>
</g>
<g class="st0">
	<path class="st1" d="M50.1,110.2c-0.6,0.5-1.2,0.8-1.9,0.8c-0.6,0-1-0.2-1.4-0.5c-0.4-0.3-0.5-0.8-0.5-1.3v-9.6
		c0-2.1-0.3-3.6-0.8-4.6c-0.5-1-1.4-1.5-2.7-1.5c-0.8,0-1.6,0.3-2.3,0.9c-0.7,0.6-1.3,1.5-1.8,2.8c-0.5,1.2-0.7,2.8-0.7,4.7
		c0,3,0,5,0.1,5.9c0,0.9,0.2,1.8,0.5,2.4c-0.2,0.2-0.5,0.4-0.8,0.5c-0.3,0.1-0.7,0.2-1.1,0.2c-0.6,0-1-0.2-1.4-0.5
		c-0.3-0.3-0.5-0.8-0.5-1.4V96.1c0-0.7-0.1-1.1-0.3-1.4c-0.2-0.3-0.4-0.4-0.7-0.4c-0.5,0-0.8,0.2-0.9,0.5c-0.3-0.4-0.4-0.8-0.4-1.2
		c0-0.6,0.2-1,0.6-1.3c0.4-0.3,1-0.5,1.7-0.5c1,0,1.7,0.3,2.2,1s0.8,1.6,0.8,2.9V96c0.5-1.4,1.3-2.5,2.3-3.2
		c1.1-0.8,2.3-1.1,3.8-1.1c3.9,0,5.8,2.5,5.8,7.5v7.1C49.6,108,49.8,109.4,50.1,110.2z"/>
	<path class="st1" d="M69.1,106.6c0,0.3-0.1,0.6-0.3,1c-0.4,1.1-1.2,1.9-2.4,2.5c-1.2,0.6-2.5,0.9-4.1,0.9c-2.7,0-4.8-0.8-6.3-2.5
		c-1.5-1.7-2.3-4-2.3-7.1c0-3,0.8-5.4,2.3-7.1c1.5-1.7,3.7-2.6,6.4-2.6c2,0,3.6,0.5,4.9,1.4c1.2,0.9,1.9,2.2,1.9,3.9
		c0,1.8-0.7,3.1-2.2,4.1c-1.4,0.9-3.4,1.4-5.9,1.4c-1.3,0-2.5-0.1-3.8-0.2c0.3,4.4,2.2,6.6,5.9,6.6c1.3,0,2.4-0.3,3.4-0.8
		c0.9-0.5,1.6-1.3,2-2.2C68.9,105.9,69.1,106.2,69.1,106.6z M58.7,95.1c-0.9,1.3-1.4,3.3-1.4,5.8c0.5,0,1.3,0.1,2.4,0.1
		c1.8,0,3.3-0.3,4.4-1c1.1-0.7,1.7-1.8,1.7-3.5c0-1.2-0.3-2.1-1-2.6c-0.6-0.5-1.5-0.8-2.4-0.8C60.8,93,59.6,93.7,58.7,95.1z"/>
	<path class="st1" d="M77,109.7l-4.8-15.3c-0.3-0.9-0.6-1.5-0.9-1.8c0.4-0.5,1.1-0.8,1.9-0.8c0.5,0,1,0.1,1.3,0.3
		c0.3,0.2,0.6,0.6,0.6,1l4.2,15.4L83,94.4c0.1-0.4,0.2-0.8,0.2-1.3c0-0.4-0.1-0.7-0.2-0.9c0.5-0.2,1.2-0.3,2.2-0.4
		c1.2,0,1.9,0.4,2.1,1.1l4,15.7L95,94.4c0.1-0.5,0.2-0.9,0.2-1.3c0-0.4-0.1-0.7-0.2-0.9c0.6-0.2,1.1-0.3,1.7-0.3
		c1.2,0,1.9,0.5,1.8,1.5c0,0.6-0.1,1.2-0.4,1.8L93,110.4c-0.7,0.4-1.5,0.5-2.2,0.5c-0.5,0-0.9-0.1-1.2-0.3c-0.4-0.2-0.6-0.5-0.6-0.9
		l-3.8-14.5l-3.9,15.2c-0.8,0.4-1.6,0.5-2.4,0.5C77.9,110.9,77.3,110.5,77,109.7z"/>
	<path class="st1" d="M124.4,108.7c0,6.7-2.9,10.1-8.6,10.1c-1.8,0-3.3-0.3-4.5-0.9c-1.2-0.6-1.8-1.6-1.8-2.9c0-0.7,0.2-1.3,0.7-1.7
		c0.4-0.5,1-0.7,1.7-0.7c0.7,0,1.2,0.2,1.5,0.6c-0.3,0.2-0.5,0.5-0.7,0.8c-0.1,0.3-0.2,0.6-0.2,0.9c0,0.9,0.3,1.6,1,2
		c0.6,0.5,1.4,0.7,2.3,0.7c3.7,0,5.6-2.9,5.6-8.7c0-0.5,0-1.4,0.1-2.7c-0.5,1.5-1.3,2.6-2.3,3.4s-2.3,1.2-3.9,1.2
		c-1.8,0-3.2-0.6-4.1-1.7c-0.9-1.2-1.4-3.1-1.4-5.8v-6.9c0-1.7-0.2-3-0.5-4c0.6-0.5,1.2-0.8,1.9-0.8c0.6,0,1,0.2,1.4,0.5
		c0.3,0.3,0.5,0.8,0.5,1.3v9.4c0,2.2,0.2,3.7,0.7,4.7c0.5,1,1.3,1.5,2.4,1.5c1.4,0,2.6-0.7,3.5-2.1s1.4-3.5,1.4-6.4
		c0-2.9,0-4.8-0.1-5.8c0-0.9-0.2-1.7-0.5-2.4c0.6-0.5,1.2-0.7,1.9-0.7c0.5,0,1,0.2,1.3,0.5c0.4,0.3,0.5,0.8,0.5,1.4L124.4,108.7z"/>
	<path class="st1" d="M143.7,106.6c0,0.3-0.1,0.6-0.3,1c-0.4,1.1-1.2,1.9-2.4,2.5c-1.2,0.6-2.5,0.9-4.1,0.9c-2.7,0-4.8-0.8-6.3-2.5
		c-1.5-1.7-2.3-4-2.3-7.1c0-3,0.8-5.4,2.3-7.1c1.5-1.7,3.7-2.6,6.4-2.6c2,0,3.6,0.5,4.9,1.4s1.9,2.2,1.9,3.9c0,1.8-0.7,3.1-2.2,4.1
		c-1.4,0.9-3.4,1.4-5.9,1.4c-1.3,0-2.5-0.1-3.8-0.2c0.3,4.4,2.2,6.6,5.9,6.6c1.3,0,2.4-0.3,3.4-0.8c0.9-0.5,1.6-1.3,2-2.2
		C143.5,105.9,143.7,106.2,143.7,106.6z M133.3,95.1c-0.9,1.3-1.4,3.3-1.4,5.8c0.5,0,1.3,0.1,2.4,0.1c1.8,0,3.3-0.3,4.4-1
		c1.1-0.7,1.7-1.8,1.7-3.5c0-1.2-0.3-2.1-1-2.6c-0.6-0.5-1.5-0.8-2.4-0.8C135.4,93,134.2,93.7,133.3,95.1z"/>
	<path class="st1" d="M165,108.9c0,0.6-0.3,1-0.8,1.4c-0.5,0.4-1.1,0.6-1.9,0.6c-1.1,0-1.9-0.4-2.5-1.2c-0.6-0.8-0.8-2-0.8-3.6v-0.6
		c-0.7,1.6-1.8,2.9-3.1,3.9c-1.3,1-2.8,1.5-4.4,1.5c-1.4,0-2.5-0.4-3.3-1.1c-0.8-0.8-1.2-1.8-1.2-3c0-1.4,0.6-2.7,1.7-3.7
		c1.1-1,2.6-1.7,4.4-2.2c1.9-0.5,3.9-0.7,5.9-0.6v-0.9c0-2.1-0.3-3.7-1-4.7c-0.7-1-1.8-1.5-3.3-1.5c-1,0-1.8,0.2-2.5,0.7
		c-0.7,0.5-1,1.2-1,2.2c0,0.5,0.1,1,0.4,1.5s0.6,0.8,1.1,1c-0.4,0.5-1.1,0.8-1.9,0.8c-0.9,0-1.6-0.3-2.1-1c-0.5-0.6-0.8-1.4-0.8-2.2
		c0-1.4,0.6-2.5,1.9-3.2c1.3-0.8,3-1.1,5.2-1.1c2.5,0,4.4,0.6,5.6,1.9c1.2,1.2,1.8,3.2,1.8,5.9v7c0,1.3,0.4,1.9,1.3,1.9
		c0.2,0,0.4-0.1,0.6-0.2c0.2-0.1,0.4-0.3,0.5-0.5C164.8,108,165,108.4,165,108.9z M155.6,107.6c0.9-0.7,1.7-1.6,2.3-2.7
		c0.6-1.1,0.9-2.3,1-3.5c-0.9,0-1.8,0-2.8,0.1c-1,0.1-1.8,0.3-2.5,0.6c-1,0.4-1.8,0.9-2.3,1.5c-0.5,0.6-0.8,1.4-0.8,2.3
		c0,0.8,0.2,1.4,0.6,1.9c0.4,0.5,1,0.8,1.8,0.8C153.8,108.7,154.7,108.3,155.6,107.6z"/>
	<path class="st1" d="M179.2,92.7c0.8,0.7,1.2,1.6,1.2,2.8c0,0.8-0.2,1.5-0.7,2.1c-0.5,0.5-1.1,0.8-1.7,0.8c-0.6,0-1-0.2-1.3-0.5
		c0.3-0.4,0.4-0.8,0.5-1.1c0.1-0.3,0.1-0.7,0.1-1.2c0-1.4-0.7-2.2-2-2.2c-1,0-1.9,0.7-2.6,2.1c-0.7,1.4-1,3.5-1,6.4
		c0,3,0,4.9,0.1,5.8c0,0.9,0.2,1.7,0.5,2.4c-0.2,0.2-0.4,0.4-0.8,0.5c-0.3,0.1-0.7,0.2-1.1,0.3c-0.5,0-1-0.2-1.3-0.5
		c-0.4-0.3-0.5-0.8-0.5-1.4V96.1c0-0.6-0.1-1.1-0.2-1.4s-0.4-0.4-0.8-0.4c-0.5,0-0.8,0.2-0.9,0.5c-0.3-0.4-0.4-0.8-0.4-1.2
		c0-0.6,0.2-1,0.6-1.3c0.4-0.3,1-0.5,1.7-0.5c1,0,1.7,0.3,2.2,1c0.5,0.7,0.8,1.7,0.7,3c0.4-1.3,1-2.3,1.8-3c0.8-0.7,1.8-1,3-1
		C177.4,91.7,178.5,92,179.2,92.7z"/>
	<path class="st1" d="M206.5,88.8c-0.5,0.4-1,0.7-1.7,0.7s-1.1-0.2-1.4-0.5c0.5-0.5,0.7-1.1,0.7-1.8c0-0.7-0.4-1.2-1.1-1.5
		c-0.7-0.3-1.6-0.5-2.6-0.5c-1.3,0-2.3,0.3-3,0.9c-0.6,0.6-1.1,1.3-1.3,2.3c-0.2,0.9-0.3,2.2-0.3,3.8v0.2h1.9c0.3,0,0.8,0,1.3,0
		c0.5,0,1,0,1.3-0.1l0,0.9c0,0.3-0.1,0.5-0.3,0.7c-0.2,0.2-0.4,0.2-0.6,0.2h-3.6v12.3c0,1.8,0.2,3.1,0.5,4c-0.6,0.5-1.2,0.8-1.9,0.8
		c-0.6,0-1-0.2-1.4-0.5c-0.3-0.3-0.5-0.8-0.5-1.3V93.8h-0.5c-1,0-1.7,0-2.2,0.1l0-0.9c0-0.3,0.1-0.5,0.3-0.6
		c0.2-0.1,0.4-0.2,0.6-0.2h1.7v-0.8c0-5.1,2.6-7.6,7.8-7.6c2,0,3.7,0.3,4.9,0.9c1.2,0.6,1.9,1.4,1.9,2.5
		C207.2,87.8,207,88.3,206.5,88.8z M207.8,110.2c-0.6,0.5-1.2,0.8-1.9,0.8c-0.5,0-1-0.2-1.3-0.5c-0.3-0.3-0.5-0.8-0.5-1.3l0-12.7
		c0-1.7-0.2-3-0.5-4c0.6-0.5,1.2-0.7,1.8-0.7c0.6,0,1,0.2,1.3,0.5c0.3,0.3,0.5,0.7,0.5,1.3l0.1,12.7
		C207.3,108,207.5,109.3,207.8,110.2z"/>
	<path class="st1" d="M213.9,109.7c-0.6-0.7-1-1.8-1-3.1V86c0-0.6,0.2-1,0.5-1.3s0.8-0.5,1.4-0.5c0.7,0,1.4,0.3,1.9,0.8
		c-0.2,0.7-0.4,1.5-0.4,2.5c-0.1,1-0.1,2.5-0.1,4.5l0,14.5c0,1.3,0.5,1.9,1.4,1.9c0.3,0,0.5-0.1,0.8-0.2s0.4-0.3,0.5-0.5
		c0.3,0.4,0.4,0.8,0.4,1.2c0,0.6-0.3,1.1-0.8,1.4c-0.5,0.4-1.2,0.6-1.9,0.6C215.4,110.9,214.5,110.5,213.9,109.7z"/>
	<path class="st1" d="M223.7,109.7c-0.6-0.7-1-1.8-1-3.1V86c0-0.6,0.2-1,0.5-1.3s0.8-0.5,1.4-0.5c0.7,0,1.4,0.3,1.9,0.8
		c-0.2,0.7-0.4,1.5-0.4,2.5c-0.1,1-0.1,2.5-0.1,4.5l0,14.5c0,1.3,0.5,1.9,1.4,1.9c0.3,0,0.5-0.1,0.8-0.2s0.4-0.3,0.5-0.5
		c0.3,0.4,0.4,0.8,0.4,1.2c0,0.6-0.3,1.1-0.8,1.4c-0.5,0.4-1.2,0.6-1.9,0.6C225.2,110.9,224.4,110.5,223.7,109.7z"/>
	<path class="st1" d="M246.7,106.6c0,0.3-0.1,0.6-0.3,1c-0.4,1.1-1.2,1.9-2.4,2.5c-1.2,0.6-2.5,0.9-4.1,0.9c-2.7,0-4.8-0.8-6.3-2.5
		c-1.5-1.7-2.3-4-2.3-7.1c0-3,0.8-5.4,2.3-7.1c1.5-1.7,3.7-2.6,6.4-2.6c2,0,3.6,0.5,4.9,1.4s1.9,2.2,1.9,3.9c0,1.8-0.7,3.1-2.2,4.1
		c-1.4,0.9-3.4,1.4-5.9,1.4c-1.3,0-2.5-0.1-3.8-0.2c0.3,4.4,2.2,6.6,5.9,6.6c1.3,0,2.4-0.3,3.4-0.8c0.9-0.5,1.6-1.3,2-2.2
		C246.5,105.9,246.7,106.2,246.7,106.6z M236.3,95.1c-0.9,1.3-1.4,3.3-1.4,5.8c0.5,0,1.3,0.1,2.4,0.1c1.8,0,3.3-0.3,4.4-1
		c1.1-0.7,1.7-1.8,1.7-3.5c0-1.2-0.3-2.1-1-2.6c-0.6-0.5-1.5-0.8-2.4-0.8C238.4,93,237.2,93.7,236.3,95.1z"/>
	<path class="st1" d="M268,109c0,0.5-0.2,1-0.7,1.3s-1,0.5-1.7,0.5c-2,0-3.1-1.6-3.2-4.7c-0.6,1.6-1.4,2.8-2.4,3.6
		c-1.1,0.9-2.4,1.3-3.9,1.3c-2.3,0-3.9-0.8-4.8-2.5c-0.9-1.7-1.4-3.8-1.4-6.3c0-3.3,0.7-5.9,2-7.7c1.3-1.8,3.2-2.8,5.6-2.8
		c1.2,0,2.2,0.2,3,0.7c0.8,0.5,1.4,1.2,1.8,2v-4.2c0-2.2-0.2-4-0.5-5.3c0.5-0.5,1.1-0.8,1.9-0.8c0.6,0,1,0.2,1.4,0.5
		c0.4,0.3,0.5,0.8,0.5,1.3l0,20.4c0,1.2,0.4,1.9,1.2,1.9c0.5,0,0.8-0.2,1-0.5C267.9,108.1,268,108.6,268,109z M259.8,107.7
		c0.8-0.9,1.4-2,1.8-3.5c0.4-1.5,0.6-3.1,0.6-4.8c0-4-1.4-5.9-4.2-5.9c-1.5,0-2.7,0.7-3.5,2.2c-0.8,1.5-1.2,3.6-1.2,6.4
		c0,2.2,0.3,3.9,0.8,5.1s1.5,1.9,2.9,1.9C258.1,109,259,108.6,259.8,107.7z"/>
</g>
<g class="st0">
	<path class="st1" d="M30.2,145.7l-4.8-15.3c-0.3-0.9-0.6-1.5-0.9-1.8c0.4-0.5,1.1-0.8,1.9-0.8c0.5,0,1,0.1,1.3,0.3
		c0.3,0.2,0.6,0.6,0.6,1l4.2,15.4l3.6-14.3c0.1-0.4,0.2-0.8,0.2-1.3c0-0.4-0.1-0.7-0.2-0.9c0.5-0.2,1.2-0.3,2.2-0.4
		c1.2,0,1.9,0.4,2.1,1.1l4,15.7l3.8-14.3c0.1-0.5,0.2-0.9,0.2-1.3c0-0.4-0.1-0.7-0.2-0.9c0.6-0.2,1.1-0.3,1.7-0.3
		c1.2,0,1.9,0.5,1.8,1.5c0,0.6-0.1,1.2-0.4,1.8l-5.1,15.2c-0.7,0.4-1.5,0.5-2.2,0.5c-0.5,0-0.9-0.1-1.2-0.3
		c-0.4-0.2-0.6-0.5-0.6-0.9l-3.8-14.5l-3.9,15.2c-0.8,0.4-1.6,0.5-2.4,0.5C31.1,146.9,30.5,146.5,30.2,145.7z"/>
	<path class="st1" d="M55.6,124.5c-0.4-0.4-0.6-0.9-0.6-1.5c0-0.6,0.2-1.1,0.6-1.5s0.9-0.6,1.5-0.6c0.6,0,1.1,0.2,1.5,0.6
		c0.4,0.4,0.6,0.9,0.6,1.5c0,0.6-0.2,1.1-0.6,1.5c-0.4,0.4-0.9,0.6-1.5,0.6C56.5,125.1,56,124.9,55.6,124.5z M59.4,146.2
		c-0.5,0.5-1.1,0.8-1.9,0.8c-0.5,0-1-0.2-1.3-0.5c-0.3-0.3-0.5-0.8-0.5-1.3l0-12.7c0-1.8-0.2-3.1-0.5-4c0.6-0.5,1.2-0.7,1.9-0.7
		c0.6,0,1,0.2,1.3,0.5c0.3,0.3,0.5,0.7,0.5,1.3l0,12.7C58.9,144,59.1,145.3,59.4,146.2z"/>
	<path class="st1" d="M71.4,128.1c0.7,0,1.2,0,1.7-0.1l0,0.9c0,0.3-0.1,0.5-0.3,0.7c-0.2,0.2-0.4,0.2-0.6,0.2h-3.6v1.3l0,11.3
		c0,1.3,0.6,1.9,1.7,1.9c0.3,0,0.7-0.1,1-0.2s0.5-0.3,0.6-0.5c0.3,0.4,0.4,0.8,0.4,1.2c0,0.6-0.3,1.1-0.9,1.4
		c-0.6,0.4-1.4,0.5-2.3,0.5c-1.2,0-2.1-0.4-2.8-1.1c-0.7-0.7-1-1.8-1-3.1v-12.9h-0.5c-1,0-1.7,0-2.2,0.1l0-0.9
		c0-0.3,0.1-0.5,0.3-0.6c0.2-0.1,0.4-0.2,0.6-0.2h1.7v-3c0-0.6,0.2-1,0.5-1.3c0.3-0.3,0.8-0.5,1.4-0.5c0.7,0,1.3,0.2,1.8,0.7
		c-0.3,0.9-0.4,2.3-0.4,4.1h1.2C70.1,128.2,70.7,128.2,71.4,128.1z"/>
	<path class="st1" d="M92.4,146.2c-0.6,0.5-1.2,0.8-1.8,0.8c-0.6,0-1-0.2-1.4-0.5c-0.3-0.3-0.5-0.8-0.5-1.3l0-9.6
		c0-2.1-0.3-3.6-0.8-4.6c-0.5-1-1.4-1.5-2.7-1.5c-0.8,0-1.6,0.3-2.3,0.9c-0.7,0.6-1.3,1.5-1.8,2.8s-0.7,2.9-0.7,4.8c0,3,0,5,0.1,5.9
		c0.1,0.9,0.2,1.8,0.5,2.4c-0.5,0.5-1.2,0.7-1.9,0.7c-0.6,0-1-0.2-1.4-0.5c-0.4-0.3-0.5-0.8-0.5-1.4v-23c0-0.6,0.1-1,0.5-1.3
		c0.3-0.3,0.8-0.5,1.3-0.5c0.4,0,0.8,0.1,1.2,0.2s0.7,0.3,0.8,0.5c-0.2,0.7-0.4,1.5-0.4,2.4c-0.1,0.9-0.1,2.2-0.1,3.8l0,4.6
		c0.5-1.3,1.3-2.3,2.3-3c1-0.7,2.2-1.1,3.6-1.1c3.8,0,5.8,2.5,5.8,7.5v7.1C91.9,143.9,92.1,145.2,92.4,146.2z"/>
	<path class="st1" d="M105.8,153.7c-1.2-0.7-1.8-1.8-1.8-3.2c0-0.8,0.2-1.5,0.7-2c0.5-0.5,1-0.8,1.7-0.8c0.8,0,1.3,0.2,1.6,0.6
		c-0.7,0.5-1,1.3-1,2.2c0,0.9,0.3,1.7,0.9,2.2c0.6,0.5,1.4,0.8,2.4,0.8c1.9,0,3.4-0.7,4.3-2.2c0.9-1.5,1.4-3.6,1.4-6.3v-2.5
		c-0.4,1.3-1.2,2.3-2.2,3c-1,0.7-2.2,1.1-3.7,1.1c-2,0-3.6-0.7-4.7-2.2c-1.1-1.5-1.7-3.7-1.7-6.9c0-2.8,0.6-5.2,1.9-7.1
		c1.3-1.9,3.4-2.8,6.5-2.8c1.4,0,2.7,0.2,4,0.6c1.3,0.4,2.3,1,3.2,1.8v14.8c0,6.6-3,9.9-9.1,9.9C108.5,154.8,107,154.5,105.8,153.7z
		 M114.9,142.8c0.8-1.4,1.2-3.2,1.2-5.2l0-7.3c-0.4-0.4-0.9-0.7-1.6-0.9c-0.7-0.2-1.5-0.3-2.3-0.3c-1.9,0-3.2,0.8-3.9,2.4
		c-0.7,1.6-1,3.8-1,6.5c0,2.5,0.3,4.3,0.9,5.4c0.6,1.1,1.6,1.6,2.9,1.6C112.9,144.9,114.1,144.2,114.9,142.8z"/>
	<path class="st1" d="M125.5,144.4c-1.5-1.7-2.2-4-2.2-7.1c0-3,0.7-5.4,2.2-7.1c1.5-1.7,3.5-2.6,6.2-2.6c2.6,0,4.7,0.9,6.2,2.6
		c1.5,1.7,2.2,4.1,2.2,7.1c0,3-0.7,5.4-2.2,7.1c-1.5,1.7-3.5,2.5-6.2,2.5C129.1,147,127,146.1,125.5,144.4z M135.3,143.5
		c0.8-1.4,1.2-3.5,1.2-6.1c0-2.7-0.4-4.8-1.2-6.2c-0.8-1.4-2-2.1-3.6-2.1c-1.6,0-2.8,0.7-3.7,2.1s-1.2,3.5-1.2,6.2
		c0,2.7,0.4,4.7,1.2,6.1c0.8,1.4,2,2.1,3.7,2.1C133.3,145.6,134.5,144.9,135.3,143.5z"/>
	<path class="st1" d="M145.3,144.4c-1.5-1.7-2.2-4-2.2-7.1c0-3,0.7-5.4,2.2-7.1c1.5-1.7,3.5-2.6,6.2-2.6c2.6,0,4.7,0.9,6.2,2.6
		c1.5,1.7,2.2,4.1,2.2,7.1c0,3-0.7,5.4-2.2,7.1c-1.5,1.7-3.5,2.5-6.2,2.5C148.9,147,146.8,146.1,145.3,144.4z M155.1,143.5
		c0.8-1.4,1.2-3.5,1.2-6.1c0-2.7-0.4-4.8-1.2-6.2c-0.8-1.4-2-2.1-3.6-2.1c-1.6,0-2.8,0.7-3.7,2.1s-1.2,3.5-1.2,6.2
		c0,2.7,0.4,4.7,1.2,6.1c0.8,1.4,2,2.1,3.7,2.1C153.1,145.6,154.3,144.9,155.1,143.5z"/>
	<path class="st1" d="M181.1,145c0,0.5-0.2,1-0.7,1.3s-1,0.5-1.7,0.5c-2,0-3.1-1.6-3.2-4.7c-0.6,1.6-1.4,2.8-2.4,3.6
		c-1.1,0.9-2.4,1.3-3.9,1.3c-2.3,0-3.9-0.8-4.8-2.5c-0.9-1.7-1.4-3.8-1.4-6.3c0-3.3,0.7-5.9,2-7.7c1.3-1.8,3.2-2.8,5.6-2.8
		c1.2,0,2.2,0.2,3,0.7c0.8,0.5,1.4,1.2,1.8,2v-4.2c0-2.2-0.2-4-0.5-5.3c0.5-0.5,1.1-0.8,1.9-0.8c0.6,0,1,0.2,1.4,0.5
		c0.4,0.3,0.5,0.8,0.5,1.3l0,20.4c0,1.2,0.4,1.9,1.2,1.9c0.5,0,0.8-0.2,1-0.5C180.9,144.1,181.1,144.6,181.1,145z M172.9,143.7
		c0.8-0.9,1.4-2,1.8-3.5c0.4-1.5,0.6-3.1,0.6-4.8c0-4-1.4-5.9-4.2-5.9c-1.5,0-2.7,0.7-3.5,2.2c-0.8,1.5-1.2,3.6-1.2,6.4
		c0,2.2,0.3,3.9,0.8,5.1s1.5,1.9,2.9,1.9C171.1,145,172.1,144.6,172.9,143.7z"/>
	<path class="st1" d="M193.5,145.7c-0.6-0.7-1-1.8-1-3.1V122c0-0.6,0.2-1,0.5-1.3s0.8-0.5,1.4-0.5c0.7,0,1.4,0.3,1.9,0.8
		c-0.2,0.7-0.4,1.5-0.4,2.5c-0.1,1-0.1,2.5-0.1,4.5l0,14.5c0,1.3,0.5,1.9,1.4,1.9c0.3,0,0.5-0.1,0.8-0.2s0.4-0.3,0.5-0.5
		c0.3,0.4,0.4,0.8,0.4,1.2c0,0.6-0.3,1.1-0.8,1.4c-0.5,0.4-1.2,0.6-1.9,0.6C195.1,146.9,194.2,146.5,193.5,145.7z"/>
	<path class="st1" d="M219.3,145.1c0,0.6-0.2,1-0.6,1.3c-0.4,0.3-1,0.5-1.7,0.5c-1,0-1.7-0.3-2.2-1c-0.5-0.6-0.8-1.6-0.8-2.9v-0.5
		c-0.5,1.4-1.2,2.5-2.3,3.3s-2.3,1.2-3.7,1.2c-2,0-3.4-0.6-4.3-1.7c-0.9-1.2-1.3-3.1-1.3-5.8v-7.1c0-1.7-0.2-3-0.5-4
		c0.6-0.5,1.2-0.8,1.9-0.8c0.6,0,1,0.2,1.4,0.5c0.3,0.3,0.5,0.8,0.5,1.3v9.6c0,2.3,0.3,3.9,0.8,4.8c0.5,0.9,1.4,1.4,2.6,1.4
		c0.8,0,1.6-0.3,2.3-0.9c0.7-0.6,1.3-1.5,1.7-2.8s0.7-2.9,0.7-4.8c0-3,0-5-0.1-5.9s-0.2-1.7-0.5-2.5c0.6-0.5,1.2-0.7,1.9-0.7
		c0.5,0,1,0.2,1.3,0.5c0.4,0.3,0.5,0.8,0.5,1.4l0,12.9c0,0.7,0.1,1.1,0.2,1.4c0.2,0.3,0.4,0.4,0.7,0.4c0.5,0,0.8-0.2,1-0.5
		C219.2,144.2,219.3,144.6,219.3,145.1z"/>
	<path class="st1" d="M223.9,144.5c-1.5-1.6-2.2-4-2.2-7.1c0-3,0.8-5.4,2.3-7.1c1.5-1.7,3.7-2.6,6.5-2.6c2,0,3.5,0.4,4.6,1.3
		s1.6,2,1.6,3.3c0,0.9-0.2,1.6-0.7,2.1c-0.5,0.5-1.1,0.8-1.9,0.8c-0.8,0-1.4-0.3-1.8-0.8c0.8-0.4,1.2-1.2,1.2-2.4
		c0-1-0.3-1.8-0.9-2.2c-0.6-0.5-1.4-0.7-2.4-0.7c-1.5,0-2.7,0.7-3.6,2c-0.9,1.4-1.3,3.3-1.3,5.8c0,2.7,0.5,4.7,1.6,6
		c1.1,1.3,2.5,1.9,4.3,1.9c1.3,0,2.4-0.3,3.4-1c0.9-0.6,1.5-1.6,1.8-2.7c0.4,0.2,0.5,0.5,0.5,1c0,0.3,0,0.6-0.1,0.9
		c-0.4,1.2-1.2,2.2-2.3,2.9c-1.2,0.7-2.6,1-4.2,1C227.5,147,225.4,146.1,223.9,144.5z"/>
	<path class="st1" d="M257.2,144.8c0,0.6-0.3,1.1-0.8,1.5c-0.5,0.4-1.1,0.6-1.8,0.6c-0.6,0-1.2-0.2-1.8-0.6c-0.5-0.4-0.9-1-1.3-1.7
		l-2.9-6c-1.3,0.5-2.7,0.9-4.1,1.2c0,2.2,0,3.6,0.1,4.3c0.1,0.7,0.2,1.4,0.5,2c-0.3,0.2-0.5,0.4-0.8,0.5c-0.3,0.1-0.7,0.2-1.1,0.2
		c-0.7,0-1.2-0.2-1.4-0.5c-0.3-0.3-0.4-0.8-0.4-1.4v-23c0-0.6,0.1-1,0.5-1.3c0.4-0.3,0.8-0.5,1.4-0.5c0.7,0,1.4,0.3,1.9,0.8
		c-0.2,0.9-0.3,1.6-0.3,2.2c-0.1,0.6-0.1,1.5-0.2,2.6c0,0.6,0,1.1,0,1.4l0,5.7c0.6-1.6,1.4-2.9,2.6-3.8c1.2-0.9,2.7-1.4,4.3-1.4
		c1.5,0,2.6,0.4,3.3,1.1c0.8,0.7,1.2,1.7,1.2,3c0,1.4-0.5,2.6-1.4,3.6c-0.9,1-2.2,1.9-3.6,2.6c0.3,0.1,0.5,0.3,0.8,0.5
		c0.2,0.3,0.5,0.6,0.7,1l1.9,3.4c0.3,0.5,0.5,0.8,0.7,1c0.2,0.2,0.4,0.3,0.8,0.3c0.4,0,0.7-0.1,1-0.4
		C257.1,144.1,257.2,144.4,257.2,144.8z M252.6,132c0-0.9-0.2-1.5-0.6-1.9s-1-0.6-1.7-0.6c-1.1,0-2.1,0.4-3,1.2
		c-0.9,0.8-1.6,1.9-2,3.2c-0.5,1.4-0.7,2.9-0.7,4.6C249.9,136.9,252.6,134.8,252.6,132z"/>
	<path class="st1" d="M264.3,134.4c1.2,0,2.3-0.3,3.4-0.8c1.1-0.5,2-1.3,2.7-2.3s1.1-2.3,1.1-3.7c0-1.7-0.5-3.1-1.4-4.2
		c-0.9-1.1-2.2-1.7-4-1.7c-1.6,0-2.8,0.5-3.5,1.6c-0.7,1-1.1,2.2-1.2,3.5c-1,0-1.6-0.2-2-0.5c-0.4-0.3-0.6-0.8-0.6-1.3
		c0-0.8,0.3-1.5,0.9-2.2c0.6-0.7,1.5-1.3,2.6-1.8s2.5-0.7,4-0.7c2.5,0,4.5,0.6,6.1,1.8s2.4,3.1,2.4,5.6c0,1.7-0.4,3.1-1.2,4.3
		c-0.8,1.2-1.8,2.1-3,2.8c-1.2,0.7-2.6,1.1-3.9,1.2v4h-2.5V134.4z M263.6,146.4c-0.4-0.4-0.6-0.9-0.6-1.5c0-0.6,0.2-1.1,0.6-1.5
		s0.9-0.6,1.5-0.6c0.6,0,1.1,0.2,1.5,0.6s0.6,0.9,0.6,1.5c0,0.6-0.2,1.1-0.6,1.5c-0.4,0.4-0.9,0.6-1.5,0.6
		C264.5,147,264,146.8,263.6,146.4z"/>
</g>
</svg>
