<?xml version="1.0" encoding="utf-8"?>
<!-- Generator: Adobe Illustrator 27.9.0, SVG Export Plug-In . SVG Version: 6.00 Build 0)  -->
<svg version="1.1" id="Layer_1" xmlns="http://www.w3.org/2000/svg" xmlns:xlink="http://www.w3.org/1999/xlink" x="0px" y="0px"
	 viewBox="0 0 350 37" style="enable-background:new 0 0 350 37;" xml:space="preserve">
<style type="text/css">
	.st0{enable-background:new    ;}
	.st1{fill:#041556;}
</style>
<g class="st0">
	<path class="st1" d="M20.7,10.8c0.2,0.4,0.6,0.6,0.9,0.8s0.8,0.3,1.2,0.3c0.2,0,0.5,0,0.7-0.1c0.2-0.1,0.4-0.2,0.6-0.3
		c0.2-0.1,0.3-0.3,0.5-0.5c0.1-0.2,0.2-0.4,0.2-0.7c0-0.4-0.1-0.7-0.4-0.9c-0.2-0.2-0.5-0.4-0.9-0.5c-0.4-0.1-0.8-0.3-1.2-0.4
		c-0.4-0.1-0.8-0.3-1.2-0.5S20.5,7.4,20.2,7c-0.2-0.4-0.4-0.9-0.4-1.5c0-0.3,0.1-0.6,0.2-0.9c0.1-0.3,0.3-0.6,0.6-0.9
		c0.3-0.3,0.6-0.5,1-0.7c0.4-0.2,0.9-0.3,1.5-0.3c0.5,0,1.1,0.1,1.6,0.2c0.5,0.1,0.9,0.5,1.3,0.9l-1.1,1c-0.2-0.3-0.4-0.5-0.7-0.6
		c-0.3-0.2-0.7-0.2-1-0.2c-0.4,0-0.7,0-0.9,0.1c-0.2,0.1-0.4,0.2-0.6,0.4S21.4,4.8,21.4,5c-0.1,0.2-0.1,0.3-0.1,0.5
		c0,0.4,0.1,0.7,0.4,1c0.2,0.2,0.5,0.4,0.9,0.5c0.4,0.1,0.8,0.3,1.2,0.4s0.8,0.3,1.2,0.5c0.4,0.2,0.7,0.5,0.9,0.8s0.4,0.8,0.4,1.4
		c0,0.5-0.1,0.9-0.3,1.3c-0.2,0.4-0.4,0.7-0.7,1c-0.3,0.3-0.7,0.5-1.1,0.6c-0.4,0.1-0.9,0.2-1.3,0.2c-0.6,0-1.2-0.1-1.8-0.3
		s-1-0.6-1.4-1L20.7,10.8z"/>
	<path class="st1" d="M27.8,2.3h1.3v5h0c0.2-0.4,0.4-0.6,0.8-0.9c0.4-0.2,0.8-0.3,1.4-0.3c0.3,0,0.6,0,0.9,0.1
		c0.3,0.1,0.6,0.2,0.8,0.5s0.4,0.5,0.5,0.8c0.1,0.3,0.2,0.7,0.2,1.1v4.3h-1.3V9c0-0.3,0-0.6-0.1-0.8S32.1,7.8,32,7.7
		c-0.1-0.1-0.3-0.2-0.5-0.3s-0.4-0.1-0.6-0.1c-0.3,0-0.5,0-0.7,0.1s-0.4,0.2-0.6,0.4c-0.2,0.2-0.3,0.4-0.4,0.7s-0.1,0.6-0.1,1v3.4
		h-1.3V2.3z"/>
	<path class="st1" d="M35.3,9.6c0-0.5,0.1-0.9,0.3-1.4c0.2-0.4,0.4-0.8,0.7-1.1s0.7-0.6,1.1-0.7c0.4-0.2,0.9-0.3,1.4-0.3
		c0.5,0,1,0.1,1.4,0.3c0.4,0.2,0.8,0.4,1.1,0.7c0.3,0.3,0.6,0.7,0.7,1.1s0.3,0.9,0.3,1.4c0,0.5-0.1,0.9-0.3,1.4s-0.4,0.8-0.7,1.1
		c-0.3,0.3-0.7,0.6-1.1,0.7c-0.4,0.2-0.9,0.3-1.4,0.3c-0.5,0-1-0.1-1.4-0.3c-0.4-0.2-0.8-0.4-1.1-0.7s-0.6-0.7-0.7-1.1
		C35.4,10.5,35.3,10.1,35.3,9.6z M36.6,9.6c0,0.3,0.1,0.6,0.2,0.9c0.1,0.3,0.2,0.5,0.4,0.7c0.2,0.2,0.4,0.4,0.7,0.5
		c0.3,0.1,0.6,0.2,0.9,0.2c0.3,0,0.6-0.1,0.9-0.2c0.3-0.1,0.5-0.3,0.7-0.5c0.2-0.2,0.3-0.4,0.4-0.7c0.1-0.3,0.2-0.6,0.2-0.9
		s-0.1-0.6-0.2-0.9c-0.1-0.3-0.2-0.5-0.4-0.7c-0.2-0.2-0.4-0.4-0.7-0.5c-0.3-0.1-0.6-0.2-0.9-0.2c-0.3,0-0.6,0.1-0.9,0.2
		c-0.3,0.1-0.5,0.3-0.7,0.5c-0.2,0.2-0.3,0.4-0.4,0.7C36.7,8.9,36.6,9.2,36.6,9.6z"/>
	<path class="st1" d="M43.1,6.3h1.4l1.5,5h0l1.6-5H49l1.7,5h0l1.4-5h1.3l-2.1,6.6H50l-1.8-5h0l-1.6,5h-1.3L43.1,6.3z"/>
	<path class="st1" d="M62,7.4h-1.8v3c0,0.2,0,0.4,0,0.6c0,0.2,0,0.3,0.1,0.5c0.1,0.1,0.2,0.3,0.3,0.4s0.3,0.1,0.6,0.1
		c0.1,0,0.3,0,0.5,0c0.2,0,0.3-0.1,0.4-0.2v1.1c-0.1,0.1-0.3,0.1-0.6,0.2c-0.2,0-0.4,0-0.6,0c-0.5,0-0.9-0.1-1.1-0.2
		c-0.3-0.1-0.5-0.3-0.6-0.5S59,11.9,59,11.6c0-0.3,0-0.5,0-0.8V7.4h-1.5V6.3h1.5V4.4h1.3v1.9H62V7.4z"/>
	<path class="st1" d="M63.6,2.3h1.3v5h0c0.2-0.4,0.4-0.6,0.8-0.9c0.4-0.2,0.8-0.3,1.4-0.3c0.3,0,0.6,0,0.9,0.1
		c0.3,0.1,0.6,0.2,0.8,0.5s0.4,0.5,0.5,0.8c0.1,0.3,0.2,0.7,0.2,1.1v4.3h-1.3V9c0-0.3,0-0.6-0.1-0.8s-0.2-0.4-0.3-0.5
		c-0.1-0.1-0.3-0.2-0.5-0.3s-0.4-0.1-0.6-0.1c-0.3,0-0.5,0-0.7,0.1s-0.4,0.2-0.6,0.4C65.2,8,65.1,8.2,65,8.5s-0.1,0.6-0.1,1v3.4
		h-1.3V2.3z"/>
	<path class="st1" d="M71.2,3.9c0-0.3,0.1-0.5,0.3-0.7C71.7,3.1,71.9,3,72.1,3s0.5,0.1,0.7,0.3s0.3,0.4,0.3,0.7S73,4.4,72.8,4.5
		c-0.2,0.2-0.4,0.3-0.7,0.3s-0.5-0.1-0.7-0.3C71.3,4.4,71.2,4.1,71.2,3.9z M71.5,6.3h1.3v6.6h-1.3V6.3z"/>
	<path class="st1" d="M78.3,7.9c-0.1-0.2-0.3-0.3-0.6-0.5s-0.5-0.2-0.8-0.2c-0.3,0-0.6,0.1-0.8,0.2c-0.2,0.1-0.3,0.3-0.3,0.6
		c0,0.2,0.1,0.4,0.2,0.5s0.3,0.2,0.4,0.3C76.6,8.9,76.8,8.9,77,9c0.2,0,0.4,0.1,0.5,0.1c0.3,0.1,0.5,0.1,0.8,0.2
		c0.2,0.1,0.4,0.2,0.6,0.4s0.3,0.3,0.4,0.5c0.1,0.2,0.1,0.5,0.1,0.8c0,0.4-0.1,0.7-0.2,1s-0.4,0.5-0.6,0.7s-0.5,0.3-0.9,0.4
		c-0.3,0.1-0.6,0.1-1,0.1c-0.6,0-1-0.1-1.4-0.3s-0.8-0.5-1.1-0.9l1-0.8c0.2,0.2,0.4,0.4,0.7,0.5c0.3,0.2,0.6,0.2,0.9,0.2
		c0.2,0,0.3,0,0.5,0c0.2,0,0.3-0.1,0.4-0.2s0.2-0.2,0.3-0.3c0.1-0.1,0.1-0.2,0.1-0.4c0-0.2-0.1-0.3-0.2-0.5
		c-0.1-0.1-0.3-0.2-0.4-0.3c-0.2-0.1-0.3-0.1-0.5-0.2s-0.3-0.1-0.5-0.1C76.2,10,76,9.9,75.7,9.8c-0.2-0.1-0.5-0.2-0.6-0.3
		c-0.2-0.1-0.3-0.3-0.4-0.5c-0.1-0.2-0.2-0.5-0.2-0.8c0-0.3,0.1-0.6,0.2-0.9C74.8,7,75,6.8,75.3,6.6c0.2-0.2,0.5-0.3,0.8-0.4
		s0.6-0.1,0.9-0.1c0.4,0,0.9,0.1,1.3,0.3s0.7,0.4,1,0.8L78.3,7.9z"/>
	<path class="st1" d="M84.9,6.3h1.3v1h0c0.2-0.4,0.4-0.6,0.8-0.9c0.4-0.2,0.8-0.3,1.4-0.3c0.3,0,0.6,0,0.9,0.1
		c0.3,0.1,0.6,0.2,0.8,0.5s0.4,0.5,0.5,0.8c0.1,0.3,0.2,0.7,0.2,1.1v4.3h-1.3V9c0-0.3,0-0.6-0.1-0.8S89.2,7.8,89,7.7
		c-0.1-0.1-0.3-0.2-0.5-0.3S88.2,7.3,88,7.3c-0.3,0-0.5,0-0.7,0.1s-0.4,0.2-0.6,0.4c-0.2,0.2-0.3,0.4-0.4,0.7s-0.1,0.6-0.1,1v3.4
		h-1.3V6.3z"/>
	<path class="st1" d="M98.5,12.9h-1.3v-1h0c-0.2,0.4-0.4,0.6-0.8,0.9c-0.4,0.2-0.8,0.3-1.4,0.3c-0.3,0-0.6,0-0.9-0.1
		c-0.3-0.1-0.5-0.2-0.8-0.5c-0.2-0.2-0.4-0.5-0.5-0.8c-0.1-0.3-0.2-0.7-0.2-1.1V6.3h1.3v3.9c0,0.3,0,0.6,0.1,0.8
		c0.1,0.2,0.2,0.4,0.3,0.5c0.1,0.1,0.3,0.2,0.5,0.3c0.2,0.1,0.4,0.1,0.6,0.1c0.3,0,0.5,0,0.7-0.1c0.2-0.1,0.4-0.2,0.6-0.4
		c0.2-0.2,0.3-0.4,0.4-0.7c0.1-0.3,0.1-0.6,0.1-1V6.3h1.3V12.9z"/>
	<path class="st1" d="M100.4,6.3h1.2v1h0c0-0.1,0.1-0.2,0.2-0.4c0.1-0.1,0.3-0.3,0.4-0.4c0.2-0.1,0.4-0.2,0.6-0.3
		c0.2-0.1,0.5-0.1,0.8-0.1c0.5,0,0.9,0.1,1.2,0.3c0.3,0.2,0.6,0.5,0.8,0.9c0.2-0.4,0.5-0.7,0.9-0.9s0.8-0.3,1.2-0.3
		c0.5,0,0.9,0.1,1.3,0.3s0.6,0.4,0.8,0.7s0.3,0.6,0.4,0.9c0.1,0.4,0.1,0.7,0.1,1.1v3.9h-1.3V9.2c0-0.3,0-0.5,0-0.7S109.1,8,109,7.9
		c-0.1-0.2-0.2-0.3-0.4-0.4c-0.2-0.1-0.4-0.2-0.7-0.2c-0.6,0-1,0.2-1.3,0.6c-0.3,0.4-0.4,0.9-0.4,1.4v3.6h-1.3V9.4
		c0-0.3,0-0.6,0-0.9c0-0.3-0.1-0.5-0.2-0.7c-0.1-0.2-0.2-0.3-0.4-0.4s-0.4-0.2-0.7-0.2c-0.2,0-0.4,0-0.7,0.1s-0.4,0.2-0.6,0.4
		c-0.2,0.2-0.3,0.4-0.4,0.7s-0.1,0.6-0.1,1v3.4h-1.3V6.3z"/>
	<path class="st1" d="M112.4,2.3h1.3v4.9h0c0.2-0.3,0.5-0.6,1-0.8c0.4-0.2,0.9-0.3,1.3-0.3c0.5,0,1,0.1,1.4,0.3
		c0.4,0.2,0.8,0.4,1.1,0.7s0.5,0.7,0.7,1.1c0.2,0.4,0.2,0.9,0.2,1.4c0,0.5-0.1,1-0.2,1.4c-0.2,0.4-0.4,0.8-0.7,1.1s-0.6,0.6-1.1,0.7
		c-0.4,0.2-0.9,0.3-1.4,0.3c-0.4,0-0.9-0.1-1.3-0.3c-0.4-0.2-0.8-0.5-1-0.8h0v1h-1.3V2.3z M115.8,11.9c0.3,0,0.6-0.1,0.9-0.2
		c0.3-0.1,0.5-0.3,0.7-0.5c0.2-0.2,0.3-0.4,0.4-0.7c0.1-0.3,0.2-0.6,0.2-0.9s-0.1-0.6-0.2-0.9c-0.1-0.3-0.2-0.5-0.4-0.7
		c-0.2-0.2-0.4-0.4-0.7-0.5c-0.3-0.1-0.6-0.2-0.9-0.2s-0.6,0.1-0.9,0.2c-0.3,0.1-0.5,0.3-0.7,0.5c-0.2,0.2-0.3,0.4-0.4,0.7
		c-0.1,0.3-0.2,0.6-0.2,0.9s0.1,0.6,0.2,0.9c0.1,0.3,0.2,0.5,0.4,0.7c0.2,0.2,0.4,0.4,0.7,0.5C115.2,11.8,115.5,11.9,115.8,11.9z"/>
	<path class="st1" d="M121.9,10c0,0.3,0.1,0.6,0.2,0.8c0.1,0.2,0.3,0.4,0.5,0.6s0.4,0.3,0.7,0.4c0.3,0.1,0.6,0.1,0.8,0.1
		c0.4,0,0.7-0.1,1-0.3c0.3-0.2,0.6-0.4,0.8-0.7l1,0.7c-0.7,0.9-1.7,1.4-2.9,1.4c-0.5,0-1-0.1-1.4-0.3c-0.4-0.2-0.8-0.4-1.1-0.7
		c-0.3-0.3-0.5-0.7-0.7-1.1c-0.2-0.4-0.2-0.9-0.2-1.4c0-0.5,0.1-1,0.3-1.4c0.2-0.4,0.4-0.8,0.7-1.1c0.3-0.3,0.7-0.6,1.1-0.7
		c0.4-0.2,0.9-0.3,1.4-0.3c0.6,0,1.1,0.1,1.5,0.3c0.4,0.2,0.7,0.5,1,0.8c0.3,0.3,0.5,0.7,0.6,1.1c0.1,0.4,0.2,0.8,0.2,1.3V10H121.9z
		 M125.9,9c0-0.3-0.1-0.5-0.1-0.8s-0.2-0.4-0.4-0.6c-0.2-0.2-0.4-0.3-0.6-0.4c-0.2-0.1-0.5-0.1-0.8-0.1c-0.3,0-0.6,0.1-0.8,0.2
		c-0.3,0.1-0.5,0.3-0.7,0.5s-0.3,0.4-0.4,0.6c-0.1,0.2-0.1,0.5-0.1,0.7H125.9z"/>
	<path class="st1" d="M128.7,6.3h1.3v1h0c0.1-0.2,0.2-0.3,0.3-0.5c0.1-0.1,0.3-0.3,0.5-0.4s0.4-0.2,0.6-0.2c0.2-0.1,0.4-0.1,0.6-0.1
		c0.2,0,0.4,0,0.6,0.1l-0.1,1.4c-0.1,0-0.2-0.1-0.3-0.1s-0.2,0-0.3,0c-0.6,0-1.1,0.2-1.4,0.5c-0.3,0.3-0.5,0.9-0.5,1.6v3.3h-1.3V6.3
		z"/>
	<path class="st1" d="M141.3,7.4h-1.8v3c0,0.2,0,0.4,0,0.6c0,0.2,0,0.3,0.1,0.5c0.1,0.1,0.2,0.3,0.3,0.4s0.3,0.1,0.6,0.1
		c0.1,0,0.3,0,0.5,0c0.2,0,0.3-0.1,0.4-0.2v1.1c-0.1,0.1-0.3,0.1-0.6,0.2c-0.2,0-0.4,0-0.6,0c-0.5,0-0.9-0.1-1.1-0.2
		c-0.3-0.1-0.5-0.3-0.6-0.5s-0.2-0.5-0.2-0.7c0-0.3,0-0.5,0-0.8V7.4h-1.5V6.3h1.5V4.4h1.3v1.9h1.8V7.4z"/>
	<path class="st1" d="M142.6,9.6c0-0.5,0.1-0.9,0.3-1.4c0.2-0.4,0.4-0.8,0.7-1.1c0.3-0.3,0.7-0.6,1.1-0.7c0.4-0.2,0.9-0.3,1.4-0.3
		c0.5,0,1,0.1,1.4,0.3c0.4,0.2,0.8,0.4,1.1,0.7s0.6,0.7,0.7,1.1s0.3,0.9,0.3,1.4c0,0.5-0.1,0.9-0.3,1.4s-0.4,0.8-0.7,1.1
		s-0.7,0.6-1.1,0.7c-0.4,0.2-0.9,0.3-1.4,0.3c-0.5,0-1-0.1-1.4-0.3c-0.4-0.2-0.8-0.4-1.1-0.7c-0.3-0.3-0.6-0.7-0.7-1.1
		C142.7,10.5,142.6,10.1,142.6,9.6z M144,9.6c0,0.3,0.1,0.6,0.2,0.9c0.1,0.3,0.2,0.5,0.4,0.7c0.2,0.2,0.4,0.4,0.7,0.5
		c0.3,0.1,0.6,0.2,0.9,0.2s0.6-0.1,0.9-0.2c0.3-0.1,0.5-0.3,0.7-0.5c0.2-0.2,0.3-0.4,0.4-0.7c0.1-0.3,0.2-0.6,0.2-0.9
		s-0.1-0.6-0.2-0.9c-0.1-0.3-0.2-0.5-0.4-0.7c-0.2-0.2-0.4-0.4-0.7-0.5c-0.3-0.1-0.6-0.2-0.9-0.2s-0.6,0.1-0.9,0.2
		c-0.3,0.1-0.5,0.3-0.7,0.5c-0.2,0.2-0.3,0.4-0.4,0.7C144,8.9,144,9.2,144,9.6z"/>
	<path class="st1" d="M154.8,9.6c0-0.5,0.1-0.9,0.3-1.4c0.2-0.4,0.4-0.8,0.7-1.1c0.3-0.3,0.7-0.6,1.1-0.7c0.4-0.2,0.9-0.3,1.4-0.3
		c0.5,0,1,0.1,1.4,0.3c0.4,0.2,0.8,0.4,1.1,0.7s0.6,0.7,0.7,1.1s0.3,0.9,0.3,1.4c0,0.5-0.1,0.9-0.3,1.4s-0.4,0.8-0.7,1.1
		s-0.7,0.6-1.1,0.7c-0.4,0.2-0.9,0.3-1.4,0.3c-0.5,0-1-0.1-1.4-0.3c-0.4-0.2-0.8-0.4-1.1-0.7c-0.3-0.3-0.6-0.7-0.7-1.1
		C154.9,10.5,154.8,10.1,154.8,9.6z M156.2,9.6c0,0.3,0.1,0.6,0.2,0.9c0.1,0.3,0.2,0.5,0.4,0.7c0.2,0.2,0.4,0.4,0.7,0.5
		c0.3,0.1,0.6,0.2,0.9,0.2s0.6-0.1,0.9-0.2c0.3-0.1,0.5-0.3,0.7-0.5c0.2-0.2,0.3-0.4,0.4-0.7c0.1-0.3,0.2-0.6,0.2-0.9
		s-0.1-0.6-0.2-0.9c-0.1-0.3-0.2-0.5-0.4-0.7c-0.2-0.2-0.4-0.4-0.7-0.5c-0.3-0.1-0.6-0.2-0.9-0.2s-0.6,0.1-0.9,0.2
		c-0.3,0.1-0.5,0.3-0.7,0.5c-0.2,0.2-0.3,0.4-0.4,0.7C156.2,8.9,156.2,9.2,156.2,9.6z"/>
	<path class="st1" d="M169.4,12.9h-1.3v-1h0c-0.2,0.4-0.4,0.6-0.8,0.9c-0.4,0.2-0.8,0.3-1.4,0.3c-0.3,0-0.6,0-0.9-0.1
		c-0.3-0.1-0.5-0.2-0.8-0.5c-0.2-0.2-0.4-0.5-0.5-0.8c-0.1-0.3-0.2-0.7-0.2-1.1V6.3h1.3v3.9c0,0.3,0,0.6,0.1,0.8
		c0.1,0.2,0.2,0.4,0.3,0.5c0.1,0.1,0.3,0.2,0.5,0.3c0.2,0.1,0.4,0.1,0.6,0.1c0.3,0,0.5,0,0.7-0.1c0.2-0.1,0.4-0.2,0.6-0.4
		c0.2-0.2,0.3-0.4,0.4-0.7c0.1-0.3,0.1-0.6,0.1-1V6.3h1.3V12.9z"/>
	<path class="st1" d="M171.3,6.3h1.3v1h0c0.1-0.2,0.2-0.3,0.3-0.5c0.1-0.1,0.3-0.3,0.5-0.4s0.4-0.2,0.6-0.2c0.2-0.1,0.4-0.1,0.6-0.1
		c0.2,0,0.4,0,0.6,0.1L175,7.5c-0.1,0-0.2-0.1-0.3-0.1s-0.2,0-0.3,0c-0.6,0-1.1,0.2-1.4,0.5c-0.3,0.3-0.5,0.9-0.5,1.6v3.3h-1.3V6.3z
		"/>
	<path class="st1" d="M185.1,8c-0.2-0.2-0.5-0.4-0.7-0.6s-0.6-0.2-0.9-0.2c-0.3,0-0.6,0.1-0.9,0.2s-0.5,0.3-0.6,0.5
		c-0.2,0.2-0.3,0.5-0.4,0.8c-0.1,0.3-0.1,0.6-0.1,0.9c0,0.3,0.1,0.6,0.2,0.9s0.2,0.5,0.4,0.7c0.2,0.2,0.4,0.4,0.7,0.5
		c0.3,0.1,0.6,0.2,0.9,0.2c0.4,0,0.7-0.1,0.9-0.2s0.5-0.3,0.7-0.6L186,12c-0.3,0.4-0.7,0.6-1.1,0.8c-0.4,0.2-0.9,0.2-1.4,0.2
		c-0.5,0-1-0.1-1.4-0.3c-0.4-0.2-0.8-0.4-1.1-0.7c-0.3-0.3-0.5-0.7-0.7-1.1s-0.3-0.9-0.3-1.4c0-0.5,0.1-1,0.3-1.4
		c0.2-0.4,0.4-0.8,0.7-1.1c0.3-0.3,0.7-0.5,1.1-0.7c0.4-0.2,0.9-0.3,1.4-0.3c0.5,0,1,0.1,1.4,0.3c0.4,0.2,0.8,0.4,1.2,0.8L185.1,8z"
		/>
	<path class="st1" d="M193,12.9h-1.3v-1h0c-0.2,0.4-0.4,0.6-0.8,0.9c-0.4,0.2-0.8,0.3-1.4,0.3c-0.3,0-0.6,0-0.9-0.1
		c-0.3-0.1-0.5-0.2-0.8-0.5c-0.2-0.2-0.4-0.5-0.5-0.8c-0.1-0.3-0.2-0.7-0.2-1.1V6.3h1.3v3.9c0,0.3,0,0.6,0.1,0.8
		c0.1,0.2,0.2,0.4,0.3,0.5c0.1,0.1,0.3,0.2,0.5,0.3c0.2,0.1,0.4,0.1,0.6,0.1c0.3,0,0.5,0,0.7-0.1c0.2-0.1,0.4-0.2,0.6-0.4
		c0.2-0.2,0.3-0.4,0.4-0.7c0.1-0.3,0.1-0.6,0.1-1V6.3h1.3V12.9z"/>
	<path class="st1" d="M198.4,7.9c-0.1-0.2-0.3-0.3-0.6-0.5c-0.2-0.1-0.5-0.2-0.8-0.2c-0.3,0-0.6,0.1-0.8,0.2
		c-0.2,0.1-0.3,0.3-0.3,0.6c0,0.2,0.1,0.4,0.2,0.5s0.3,0.2,0.4,0.3c0.2,0.1,0.4,0.1,0.6,0.2c0.2,0,0.4,0.1,0.5,0.1
		c0.3,0.1,0.5,0.1,0.8,0.2c0.2,0.1,0.4,0.2,0.6,0.4s0.3,0.3,0.4,0.5s0.1,0.5,0.1,0.8c0,0.4-0.1,0.7-0.2,1c-0.2,0.3-0.4,0.5-0.6,0.7
		s-0.5,0.3-0.9,0.4c-0.3,0.1-0.6,0.1-1,0.1c-0.6,0-1-0.1-1.4-0.3s-0.8-0.5-1.1-0.9l1-0.8c0.2,0.2,0.4,0.4,0.7,0.5
		c0.3,0.2,0.6,0.2,0.9,0.2c0.2,0,0.3,0,0.5,0c0.2,0,0.3-0.1,0.4-0.2s0.2-0.2,0.3-0.3s0.1-0.2,0.1-0.4c0-0.2-0.1-0.3-0.2-0.5
		c-0.1-0.1-0.3-0.2-0.4-0.3c-0.2-0.1-0.3-0.1-0.5-0.2c-0.2,0-0.3-0.1-0.5-0.1c-0.3-0.1-0.5-0.1-0.8-0.2c-0.2-0.1-0.5-0.2-0.6-0.3
		c-0.2-0.1-0.3-0.3-0.4-0.5s-0.2-0.5-0.2-0.8c0-0.3,0.1-0.6,0.2-0.9s0.3-0.5,0.6-0.6s0.5-0.3,0.8-0.4c0.3-0.1,0.6-0.1,0.9-0.1
		c0.4,0,0.9,0.1,1.3,0.3c0.4,0.2,0.7,0.4,1,0.8L198.4,7.9z"/>
	<path class="st1" d="M204.6,7.4h-1.8v3c0,0.2,0,0.4,0,0.6c0,0.2,0,0.3,0.1,0.5c0.1,0.1,0.2,0.3,0.3,0.4s0.3,0.1,0.6,0.1
		c0.1,0,0.3,0,0.5,0c0.2,0,0.3-0.1,0.4-0.2v1.1c-0.1,0.1-0.3,0.1-0.6,0.2c-0.2,0-0.4,0-0.6,0c-0.5,0-0.9-0.1-1.1-0.2
		c-0.3-0.1-0.5-0.3-0.6-0.5s-0.2-0.5-0.2-0.7c0-0.3,0-0.5,0-0.8V7.4h-1.5V6.3h1.5V4.4h1.3v1.9h1.8V7.4z"/>
	<path class="st1" d="M205.9,9.6c0-0.5,0.1-0.9,0.3-1.4c0.2-0.4,0.4-0.8,0.7-1.1c0.3-0.3,0.7-0.6,1.1-0.7c0.4-0.2,0.9-0.3,1.4-0.3
		c0.5,0,1,0.1,1.4,0.3c0.4,0.2,0.8,0.4,1.1,0.7s0.6,0.7,0.7,1.1s0.3,0.9,0.3,1.4c0,0.5-0.1,0.9-0.3,1.4s-0.4,0.8-0.7,1.1
		s-0.7,0.6-1.1,0.7c-0.4,0.2-0.9,0.3-1.4,0.3c-0.5,0-1-0.1-1.4-0.3c-0.4-0.2-0.8-0.4-1.1-0.7c-0.3-0.3-0.6-0.7-0.7-1.1
		C206,10.5,205.9,10.1,205.9,9.6z M207.3,9.6c0,0.3,0.1,0.6,0.2,0.9c0.1,0.3,0.2,0.5,0.4,0.7c0.2,0.2,0.4,0.4,0.7,0.5
		c0.3,0.1,0.6,0.2,0.9,0.2s0.6-0.1,0.9-0.2c0.3-0.1,0.5-0.3,0.7-0.5c0.2-0.2,0.3-0.4,0.4-0.7c0.1-0.3,0.2-0.6,0.2-0.9
		s-0.1-0.6-0.2-0.9c-0.1-0.3-0.2-0.5-0.4-0.7c-0.2-0.2-0.4-0.4-0.7-0.5c-0.3-0.1-0.6-0.2-0.9-0.2s-0.6,0.1-0.9,0.2
		c-0.3,0.1-0.5,0.3-0.7,0.5c-0.2,0.2-0.3,0.4-0.4,0.7C207.3,8.9,207.3,9.2,207.3,9.6z"/>
	<path class="st1" d="M214.6,6.3h1.2v1h0c0-0.1,0.1-0.2,0.2-0.4c0.1-0.1,0.3-0.3,0.4-0.4c0.2-0.1,0.4-0.2,0.6-0.3s0.5-0.1,0.8-0.1
		c0.5,0,0.9,0.1,1.2,0.3s0.6,0.5,0.8,0.9c0.2-0.4,0.5-0.7,0.9-0.9c0.4-0.2,0.8-0.3,1.2-0.3c0.5,0,0.9,0.1,1.3,0.3
		c0.3,0.2,0.6,0.4,0.8,0.7c0.2,0.3,0.3,0.6,0.4,0.9c0.1,0.4,0.1,0.7,0.1,1.1v3.9h-1.3V9.2c0-0.3,0-0.5,0-0.7c0-0.2-0.1-0.4-0.2-0.6
		c-0.1-0.2-0.2-0.3-0.4-0.4c-0.2-0.1-0.4-0.2-0.7-0.2c-0.6,0-1,0.2-1.3,0.6c-0.3,0.4-0.4,0.9-0.4,1.4v3.6H219V9.4c0-0.3,0-0.6,0-0.9
		c0-0.3-0.1-0.5-0.2-0.7s-0.2-0.3-0.4-0.4s-0.4-0.2-0.7-0.2c-0.2,0-0.4,0-0.7,0.1s-0.4,0.2-0.6,0.4c-0.2,0.2-0.3,0.4-0.4,0.7
		c-0.1,0.3-0.1,0.6-0.1,1v3.4h-1.3V6.3z"/>
	<path class="st1" d="M227.5,10c0,0.3,0.1,0.6,0.2,0.8c0.1,0.2,0.3,0.4,0.5,0.6s0.4,0.3,0.7,0.4c0.3,0.1,0.6,0.1,0.8,0.1
		c0.4,0,0.7-0.1,1-0.3c0.3-0.2,0.6-0.4,0.8-0.7l1,0.7c-0.7,0.9-1.7,1.4-2.9,1.4c-0.5,0-1-0.1-1.4-0.3c-0.4-0.2-0.8-0.4-1.1-0.7
		c-0.3-0.3-0.5-0.7-0.7-1.1c-0.2-0.4-0.2-0.9-0.2-1.4c0-0.5,0.1-1,0.3-1.4c0.2-0.4,0.4-0.8,0.7-1.1c0.3-0.3,0.7-0.6,1.1-0.7
		c0.4-0.2,0.9-0.3,1.4-0.3c0.6,0,1.1,0.1,1.5,0.3c0.4,0.2,0.7,0.5,1,0.8c0.3,0.3,0.5,0.7,0.6,1.1c0.1,0.4,0.2,0.8,0.2,1.3V10H227.5z
		 M231.4,9c0-0.3-0.1-0.5-0.1-0.8s-0.2-0.4-0.4-0.6c-0.2-0.2-0.4-0.3-0.6-0.4c-0.2-0.1-0.5-0.1-0.8-0.1c-0.3,0-0.6,0.1-0.8,0.2
		c-0.3,0.1-0.5,0.3-0.7,0.5s-0.3,0.4-0.4,0.6c-0.1,0.2-0.1,0.5-0.1,0.7H231.4z"/>
	<path class="st1" d="M234.3,6.3h1.3v1h0c0.1-0.2,0.2-0.3,0.3-0.5c0.1-0.1,0.3-0.3,0.5-0.4s0.4-0.2,0.6-0.2c0.2-0.1,0.4-0.1,0.6-0.1
		c0.2,0,0.4,0,0.6,0.1l-0.1,1.4c-0.1,0-0.2-0.1-0.3-0.1s-0.2,0-0.3,0c-0.6,0-1.1,0.2-1.4,0.5c-0.3,0.3-0.5,0.9-0.5,1.6v3.3h-1.3V6.3
		z"/>
	<path class="st1" d="M246.9,7.9c-0.1-0.2-0.3-0.3-0.6-0.5c-0.2-0.1-0.5-0.2-0.8-0.2c-0.3,0-0.6,0.1-0.8,0.2
		c-0.2,0.1-0.3,0.3-0.3,0.6c0,0.2,0.1,0.4,0.2,0.5s0.3,0.2,0.4,0.3c0.2,0.1,0.4,0.1,0.6,0.2c0.2,0,0.4,0.1,0.5,0.1
		c0.3,0.1,0.5,0.1,0.8,0.2c0.2,0.1,0.4,0.2,0.6,0.4s0.3,0.3,0.4,0.5s0.1,0.5,0.1,0.8c0,0.4-0.1,0.7-0.2,1c-0.2,0.3-0.4,0.5-0.6,0.7
		s-0.5,0.3-0.9,0.4c-0.3,0.1-0.6,0.1-1,0.1c-0.6,0-1-0.1-1.4-0.3s-0.8-0.5-1.1-0.9l1-0.8c0.2,0.2,0.4,0.4,0.7,0.5
		c0.3,0.2,0.6,0.2,0.9,0.2c0.2,0,0.3,0,0.5,0c0.2,0,0.3-0.1,0.4-0.2s0.2-0.2,0.3-0.3s0.1-0.2,0.1-0.4c0-0.2-0.1-0.3-0.2-0.5
		c-0.1-0.1-0.3-0.2-0.4-0.3c-0.2-0.1-0.3-0.1-0.5-0.2c-0.2,0-0.3-0.1-0.5-0.1c-0.3-0.1-0.5-0.1-0.8-0.2c-0.2-0.1-0.5-0.2-0.6-0.3
		c-0.2-0.1-0.3-0.3-0.4-0.5s-0.2-0.5-0.2-0.8c0-0.3,0.1-0.6,0.2-0.9s0.3-0.5,0.6-0.6s0.5-0.3,0.8-0.4c0.3-0.1,0.6-0.1,0.9-0.1
		c0.4,0,0.9,0.1,1.3,0.3c0.4,0.2,0.7,0.4,1,0.8L246.9,7.9z"/>
	<path class="st1" d="M250.5,10c0,0.3,0.1,0.6,0.2,0.8c0.1,0.2,0.3,0.4,0.5,0.6s0.4,0.3,0.7,0.4c0.3,0.1,0.6,0.1,0.8,0.1
		c0.4,0,0.7-0.1,1-0.3c0.3-0.2,0.6-0.4,0.8-0.7l1,0.7c-0.7,0.9-1.7,1.4-2.9,1.4c-0.5,0-1-0.1-1.4-0.3c-0.4-0.2-0.8-0.4-1.1-0.7
		c-0.3-0.3-0.5-0.7-0.7-1.1c-0.2-0.4-0.2-0.9-0.2-1.4c0-0.5,0.1-1,0.3-1.4c0.2-0.4,0.4-0.8,0.7-1.1c0.3-0.3,0.7-0.6,1.1-0.7
		c0.4-0.2,0.9-0.3,1.4-0.3c0.6,0,1.1,0.1,1.5,0.3c0.4,0.2,0.7,0.5,1,0.8c0.3,0.3,0.5,0.7,0.6,1.1c0.1,0.4,0.2,0.8,0.2,1.3V10H250.5z
		 M254.5,9c0-0.3-0.1-0.5-0.1-0.8s-0.2-0.4-0.4-0.6c-0.2-0.2-0.4-0.3-0.6-0.4c-0.2-0.1-0.5-0.1-0.8-0.1c-0.3,0-0.6,0.1-0.8,0.2
		c-0.3,0.1-0.5,0.3-0.7,0.5s-0.3,0.4-0.4,0.6c-0.1,0.2-0.1,0.5-0.1,0.7H254.5z"/>
	<path class="st1" d="M257.4,6.3h1.3v1h0c0.1-0.2,0.2-0.3,0.3-0.5c0.1-0.1,0.3-0.3,0.5-0.4s0.4-0.2,0.6-0.2c0.2-0.1,0.4-0.1,0.6-0.1
		c0.2,0,0.4,0,0.6,0.1l-0.1,1.4c-0.1,0-0.2-0.1-0.3-0.1s-0.2,0-0.3,0c-0.6,0-1.1,0.2-1.4,0.5c-0.3,0.3-0.5,0.9-0.5,1.6v3.3h-1.3V6.3
		z"/>
	<path class="st1" d="M261.8,6.3h1.5l2,5.1l1.9-5.1h1.3l-2.6,6.6h-1.4L261.8,6.3z"/>
	<path class="st1" d="M269.4,3.9c0-0.3,0.1-0.5,0.3-0.7c0.2-0.2,0.4-0.3,0.7-0.3s0.5,0.1,0.7,0.3s0.3,0.4,0.3,0.7s-0.1,0.5-0.3,0.7
		c-0.2,0.2-0.4,0.3-0.7,0.3s-0.5-0.1-0.7-0.3C269.4,4.4,269.4,4.1,269.4,3.9z M269.6,6.3h1.3v6.6h-1.3V6.3z"/>
	<path class="st1" d="M277.7,8c-0.2-0.2-0.5-0.4-0.7-0.6s-0.6-0.2-0.9-0.2c-0.3,0-0.6,0.1-0.9,0.2s-0.5,0.3-0.6,0.5
		c-0.2,0.2-0.3,0.5-0.4,0.8c-0.1,0.3-0.1,0.6-0.1,0.9c0,0.3,0.1,0.6,0.2,0.9s0.2,0.5,0.4,0.7c0.2,0.2,0.4,0.4,0.7,0.5
		c0.3,0.1,0.6,0.2,0.9,0.2c0.4,0,0.7-0.1,0.9-0.2s0.5-0.3,0.7-0.6l0.9,0.9c-0.3,0.4-0.7,0.6-1.1,0.8c-0.4,0.2-0.9,0.2-1.4,0.2
		c-0.5,0-1-0.1-1.4-0.3c-0.4-0.2-0.8-0.4-1.1-0.7c-0.3-0.3-0.5-0.7-0.7-1.1s-0.3-0.9-0.3-1.4c0-0.5,0.1-1,0.3-1.4
		c0.2-0.4,0.4-0.8,0.7-1.1c0.3-0.3,0.7-0.5,1.1-0.7c0.4-0.2,0.9-0.3,1.4-0.3c0.5,0,1,0.1,1.4,0.3c0.4,0.2,0.8,0.4,1.2,0.8L277.7,8z"
		/>
	<path class="st1" d="M280.6,10c0,0.3,0.1,0.6,0.2,0.8c0.1,0.2,0.3,0.4,0.5,0.6s0.4,0.3,0.7,0.4c0.3,0.1,0.6,0.1,0.8,0.1
		c0.4,0,0.7-0.1,1-0.3c0.3-0.2,0.6-0.4,0.8-0.7l1,0.7c-0.7,0.9-1.7,1.4-2.9,1.4c-0.5,0-1-0.1-1.4-0.3c-0.4-0.2-0.8-0.4-1.1-0.7
		c-0.3-0.3-0.5-0.7-0.7-1.1c-0.2-0.4-0.2-0.9-0.2-1.4c0-0.5,0.1-1,0.3-1.4c0.2-0.4,0.4-0.8,0.7-1.1c0.3-0.3,0.7-0.6,1.1-0.7
		c0.4-0.2,0.9-0.3,1.4-0.3c0.6,0,1.1,0.1,1.5,0.3c0.4,0.2,0.7,0.5,1,0.8c0.3,0.3,0.5,0.7,0.6,1.1c0.1,0.4,0.2,0.8,0.2,1.3V10H280.6z
		 M284.6,9c0-0.3-0.1-0.5-0.1-0.8s-0.2-0.4-0.4-0.6c-0.2-0.2-0.4-0.3-0.6-0.4c-0.2-0.1-0.5-0.1-0.8-0.1c-0.3,0-0.6,0.1-0.8,0.2
		c-0.3,0.1-0.5,0.3-0.7,0.5s-0.3,0.4-0.4,0.6c-0.1,0.2-0.1,0.5-0.1,0.7H284.6z"/>
	<path class="st1" d="M291,9.6c0-0.5,0.1-0.9,0.3-1.4c0.2-0.4,0.4-0.8,0.7-1.1c0.3-0.3,0.7-0.6,1.1-0.7c0.4-0.2,0.9-0.3,1.4-0.3
		c0.5,0,1,0.1,1.4,0.3c0.4,0.2,0.8,0.4,1.1,0.7s0.6,0.7,0.7,1.1s0.3,0.9,0.3,1.4c0,0.5-0.1,0.9-0.3,1.4s-0.4,0.8-0.7,1.1
		s-0.7,0.6-1.1,0.7c-0.4,0.2-0.9,0.3-1.4,0.3c-0.5,0-1-0.1-1.4-0.3c-0.4-0.2-0.8-0.4-1.1-0.7c-0.3-0.3-0.6-0.7-0.7-1.1
		C291.1,10.5,291,10.1,291,9.6z M292.4,9.6c0,0.3,0.1,0.6,0.2,0.9c0.1,0.3,0.2,0.5,0.4,0.7c0.2,0.2,0.4,0.4,0.7,0.5
		c0.3,0.1,0.6,0.2,0.9,0.2s0.6-0.1,0.9-0.2c0.3-0.1,0.5-0.3,0.7-0.5c0.2-0.2,0.3-0.4,0.4-0.7c0.1-0.3,0.2-0.6,0.2-0.9
		s-0.1-0.6-0.2-0.9c-0.1-0.3-0.2-0.5-0.4-0.7c-0.2-0.2-0.4-0.4-0.7-0.5c-0.3-0.1-0.6-0.2-0.9-0.2s-0.6,0.1-0.9,0.2
		c-0.3,0.1-0.5,0.3-0.7,0.5c-0.2,0.2-0.3,0.4-0.4,0.7C292.4,8.9,292.4,9.2,292.4,9.6z"/>
	<path class="st1" d="M300.1,7.4h-1.4V6.3h1.4V4.8c0-0.9,0.2-1.5,0.5-2c0.3-0.4,0.9-0.7,1.8-0.7c0.1,0,0.3,0,0.4,0
		c0.2,0,0.3,0,0.5,0.1l-0.1,1.1c-0.1,0-0.2-0.1-0.3-0.1c-0.1,0-0.2,0-0.4,0c-0.2,0-0.4,0-0.6,0.1c-0.1,0.1-0.2,0.2-0.3,0.3
		c-0.1,0.1-0.1,0.3-0.2,0.5c0,0.2,0,0.4,0,0.6v1.5h1.5v1.1h-1.5v5.5h-1.3V7.4z"/>
	<path class="st1" d="M304.5,7.4h-1.4V6.3h1.4V4.8c0-0.9,0.2-1.5,0.5-2c0.3-0.4,0.9-0.7,1.8-0.7c0.1,0,0.3,0,0.4,0
		c0.2,0,0.3,0,0.5,0.1l-0.1,1.1c-0.1,0-0.2-0.1-0.3-0.1c-0.1,0-0.2,0-0.4,0c-0.2,0-0.4,0-0.6,0.1c-0.1,0.1-0.2,0.2-0.3,0.3
		c-0.1,0.1-0.1,0.3-0.2,0.5c0,0.2,0,0.4,0,0.6v1.5h1.5v1.1h-1.5v5.5h-1.3V7.4z"/>
	<path class="st1" d="M308.5,3.9c0-0.3,0.1-0.5,0.3-0.7c0.2-0.2,0.4-0.3,0.7-0.3s0.5,0.1,0.7,0.3s0.3,0.4,0.3,0.7s-0.1,0.5-0.3,0.7
		c-0.2,0.2-0.4,0.3-0.7,0.3s-0.5-0.1-0.7-0.3C308.6,4.4,308.5,4.1,308.5,3.9z M308.8,6.3h1.3v6.6h-1.3V6.3z"/>
	<path class="st1" d="M316.8,8c-0.2-0.2-0.5-0.4-0.7-0.6s-0.6-0.2-0.9-0.2c-0.3,0-0.6,0.1-0.9,0.2s-0.5,0.3-0.6,0.5
		c-0.2,0.2-0.3,0.5-0.4,0.8c-0.1,0.3-0.1,0.6-0.1,0.9c0,0.3,0.1,0.6,0.2,0.9s0.2,0.5,0.4,0.7c0.2,0.2,0.4,0.4,0.7,0.5
		c0.3,0.1,0.6,0.2,0.9,0.2c0.4,0,0.7-0.1,0.9-0.2s0.5-0.3,0.7-0.6l0.9,0.9c-0.3,0.4-0.7,0.6-1.1,0.8c-0.4,0.2-0.9,0.2-1.4,0.2
		c-0.5,0-1-0.1-1.4-0.3c-0.4-0.2-0.8-0.4-1.1-0.7c-0.3-0.3-0.5-0.7-0.7-1.1s-0.3-0.9-0.3-1.4c0-0.5,0.1-1,0.3-1.4
		c0.2-0.4,0.4-0.8,0.7-1.1c0.3-0.3,0.7-0.5,1.1-0.7c0.4-0.2,0.9-0.3,1.4-0.3c0.5,0,1,0.1,1.4,0.3c0.4,0.2,0.8,0.4,1.2,0.8L316.8,8z"
		/>
	<path class="st1" d="M319.8,10c0,0.3,0.1,0.6,0.2,0.8c0.1,0.2,0.3,0.4,0.5,0.6s0.4,0.3,0.7,0.4c0.3,0.1,0.6,0.1,0.8,0.1
		c0.4,0,0.7-0.1,1-0.3c0.3-0.2,0.6-0.4,0.8-0.7l1,0.7c-0.7,0.9-1.7,1.4-2.9,1.4c-0.5,0-1-0.1-1.4-0.3c-0.4-0.2-0.8-0.4-1.1-0.7
		c-0.3-0.3-0.5-0.7-0.7-1.1c-0.2-0.4-0.2-0.9-0.2-1.4c0-0.5,0.1-1,0.3-1.4c0.2-0.4,0.4-0.8,0.7-1.1c0.3-0.3,0.7-0.6,1.1-0.7
		c0.4-0.2,0.9-0.3,1.4-0.3c0.6,0,1.1,0.1,1.5,0.3c0.4,0.2,0.7,0.5,1,0.8c0.3,0.3,0.5,0.7,0.6,1.1c0.1,0.4,0.2,0.8,0.2,1.3V10H319.8z
		 M323.8,9c0-0.3-0.1-0.5-0.1-0.8s-0.2-0.4-0.4-0.6c-0.2-0.2-0.4-0.3-0.6-0.4c-0.2-0.1-0.5-0.1-0.8-0.1c-0.3,0-0.6,0.1-0.8,0.2
		c-0.3,0.1-0.5,0.3-0.7,0.5s-0.3,0.4-0.4,0.6c-0.1,0.2-0.1,0.5-0.1,0.7H323.8z"/>
	<path class="st1" d="M326.6,6.3h1.3v1h0c0.1-0.2,0.2-0.3,0.3-0.5c0.1-0.1,0.3-0.3,0.5-0.4s0.4-0.2,0.6-0.2c0.2-0.1,0.4-0.1,0.6-0.1
		c0.2,0,0.4,0,0.6,0.1l-0.1,1.4c-0.1,0-0.2-0.1-0.3-0.1s-0.2,0-0.3,0c-0.6,0-1.1,0.2-1.4,0.5c-0.3,0.3-0.5,0.9-0.5,1.6v3.3h-1.3V6.3
		z"/>
</g>
<g class="st0">
	<path class="st1" d="M32.2,27.6c0-0.5,0.1-0.9,0.3-1.4c0.2-0.4,0.4-0.8,0.7-1.1s0.7-0.6,1.1-0.7c0.4-0.2,0.9-0.3,1.4-0.3
		c0.5,0,1,0.1,1.4,0.3c0.4,0.2,0.8,0.4,1.1,0.7c0.3,0.3,0.6,0.7,0.7,1.1s0.3,0.9,0.3,1.4c0,0.5-0.1,0.9-0.3,1.4s-0.4,0.8-0.7,1.1
		c-0.3,0.3-0.7,0.6-1.1,0.7c-0.4,0.2-0.9,0.3-1.4,0.3c-0.5,0-1-0.1-1.4-0.3c-0.4-0.2-0.8-0.4-1.1-0.7s-0.6-0.7-0.7-1.1
		C32.3,28.5,32.2,28.1,32.2,27.6z M33.5,27.6c0,0.3,0.1,0.6,0.2,0.9c0.1,0.3,0.2,0.5,0.4,0.7c0.2,0.2,0.4,0.4,0.7,0.5
		c0.3,0.1,0.6,0.2,0.9,0.2c0.3,0,0.6-0.1,0.9-0.2c0.3-0.1,0.5-0.3,0.7-0.5c0.2-0.2,0.3-0.4,0.4-0.7c0.1-0.3,0.2-0.6,0.2-0.9
		s-0.1-0.6-0.2-0.9c-0.1-0.3-0.2-0.5-0.4-0.7c-0.2-0.2-0.4-0.4-0.7-0.5c-0.3-0.1-0.6-0.2-0.9-0.2c-0.3,0-0.6,0.1-0.9,0.2
		c-0.3,0.1-0.5,0.3-0.7,0.5c-0.2,0.2-0.3,0.4-0.4,0.7C33.6,26.9,33.5,27.2,33.5,27.6z"/>
	<path class="st1" d="M40.8,24.3h1.3v1h0c0.2-0.4,0.4-0.6,0.8-0.9c0.4-0.2,0.8-0.3,1.4-0.3c0.3,0,0.6,0,0.9,0.1
		c0.3,0.1,0.6,0.2,0.8,0.5s0.4,0.5,0.5,0.8c0.1,0.3,0.2,0.7,0.2,1.1v4.3h-1.3V27c0-0.3,0-0.6-0.1-0.8s-0.2-0.4-0.3-0.5
		c-0.1-0.1-0.3-0.2-0.5-0.3s-0.4-0.1-0.6-0.1c-0.3,0-0.5,0-0.7,0.1s-0.4,0.2-0.6,0.4c-0.2,0.2-0.3,0.4-0.4,0.7s-0.1,0.6-0.1,1v3.4
		h-1.3V24.3z"/>
	<path class="st1" d="M48.6,20.3h1.3v4.9h0c0.2-0.3,0.5-0.6,1-0.8c0.4-0.2,0.9-0.3,1.3-0.3c0.5,0,1,0.1,1.4,0.3
		c0.4,0.2,0.8,0.4,1.1,0.7s0.5,0.7,0.7,1.1s0.2,0.9,0.2,1.4c0,0.5-0.1,1-0.2,1.4s-0.4,0.8-0.7,1.1s-0.6,0.6-1.1,0.7
		c-0.4,0.2-0.9,0.3-1.4,0.3c-0.4,0-0.9-0.1-1.3-0.3c-0.4-0.2-0.8-0.5-1-0.8h0v1h-1.3V20.3z M52,29.9c0.3,0,0.6-0.1,0.9-0.2
		c0.3-0.1,0.5-0.3,0.7-0.5c0.2-0.2,0.3-0.4,0.4-0.7c0.1-0.3,0.2-0.6,0.2-0.9s-0.1-0.6-0.2-0.9c-0.1-0.3-0.2-0.5-0.4-0.7
		c-0.2-0.2-0.4-0.4-0.7-0.5c-0.3-0.1-0.6-0.2-0.9-0.2s-0.6,0.1-0.9,0.2c-0.3,0.1-0.5,0.3-0.7,0.5c-0.2,0.2-0.3,0.4-0.4,0.7
		c-0.1,0.3-0.2,0.6-0.2,0.9s0.1,0.6,0.2,0.9c0.1,0.3,0.2,0.5,0.4,0.7c0.2,0.2,0.4,0.4,0.7,0.5C51.4,29.8,51.7,29.9,52,29.9z"/>
	<path class="st1" d="M56.8,27.6c0-0.5,0.1-0.9,0.3-1.4c0.2-0.4,0.4-0.8,0.7-1.1s0.7-0.6,1.1-0.7c0.4-0.2,0.9-0.3,1.4-0.3
		c0.5,0,1,0.1,1.4,0.3c0.4,0.2,0.8,0.4,1.1,0.7c0.3,0.3,0.6,0.7,0.7,1.1s0.3,0.9,0.3,1.4c0,0.5-0.1,0.9-0.3,1.4s-0.4,0.8-0.7,1.1
		c-0.3,0.3-0.7,0.6-1.1,0.7c-0.4,0.2-0.9,0.3-1.4,0.3c-0.5,0-1-0.1-1.4-0.3c-0.4-0.2-0.8-0.4-1.1-0.7s-0.6-0.7-0.7-1.1
		C56.9,28.5,56.8,28.1,56.8,27.6z M58.2,27.6c0,0.3,0.1,0.6,0.2,0.9c0.1,0.3,0.2,0.5,0.4,0.7c0.2,0.2,0.4,0.4,0.7,0.5
		c0.3,0.1,0.6,0.2,0.9,0.2c0.3,0,0.6-0.1,0.9-0.2c0.3-0.1,0.5-0.3,0.7-0.5c0.2-0.2,0.3-0.4,0.4-0.7c0.1-0.3,0.2-0.6,0.2-0.9
		s-0.1-0.6-0.2-0.9c-0.1-0.3-0.2-0.5-0.4-0.7c-0.2-0.2-0.4-0.4-0.7-0.5c-0.3-0.1-0.6-0.2-0.9-0.2c-0.3,0-0.6,0.1-0.9,0.2
		c-0.3,0.1-0.5,0.3-0.7,0.5c-0.2,0.2-0.3,0.4-0.4,0.7C58.2,26.9,58.2,27.2,58.2,27.6z"/>
	<path class="st1" d="M65.5,25.1c0.4-0.3,0.8-0.6,1.2-0.7c0.5-0.2,0.9-0.2,1.4-0.2c0.5,0,0.9,0.1,1.3,0.2c0.3,0.1,0.6,0.3,0.9,0.5
		s0.4,0.4,0.5,0.7c0.1,0.3,0.2,0.5,0.2,0.8v3.4c0,0.2,0,0.4,0,0.6c0,0.2,0,0.4,0,0.6h-1.1c0-0.3,0-0.7,0-1h0c-0.3,0.4-0.6,0.7-1,0.9
		c-0.4,0.2-0.8,0.3-1.3,0.3c-0.3,0-0.6,0-0.9-0.1c-0.3-0.1-0.5-0.2-0.7-0.4s-0.4-0.4-0.5-0.6c-0.1-0.2-0.2-0.5-0.2-0.9
		c0-0.4,0.1-0.8,0.3-1.1c0.2-0.3,0.5-0.5,0.8-0.7c0.3-0.2,0.7-0.3,1.2-0.4s0.9-0.1,1.4-0.1h0.9v-0.3c0-0.2,0-0.3-0.1-0.5
		s-0.2-0.3-0.3-0.5c-0.1-0.1-0.3-0.2-0.5-0.3c-0.2-0.1-0.4-0.1-0.7-0.1c-0.2,0-0.5,0-0.6,0.1c-0.2,0-0.3,0.1-0.5,0.2
		c-0.1,0.1-0.3,0.2-0.4,0.2c-0.1,0.1-0.2,0.2-0.4,0.3L65.5,25.1z M69,27.7c-0.3,0-0.6,0-0.9,0c-0.3,0-0.6,0.1-0.9,0.2
		c-0.3,0.1-0.5,0.2-0.6,0.4c-0.2,0.2-0.2,0.4-0.2,0.6c0,0.4,0.1,0.7,0.4,0.8s0.6,0.3,1,0.3c0.3,0,0.6-0.1,0.9-0.2
		c0.2-0.1,0.4-0.3,0.6-0.5c0.1-0.2,0.3-0.4,0.3-0.6s0.1-0.5,0.1-0.7v-0.4H69z"/>
	<path class="st1" d="M72.7,24.3H74v1h0c0.1-0.2,0.2-0.3,0.3-0.5c0.1-0.1,0.3-0.3,0.5-0.4s0.4-0.2,0.6-0.2c0.2-0.1,0.4-0.1,0.6-0.1
		c0.2,0,0.4,0,0.6,0.1l-0.1,1.4c-0.1,0-0.2-0.1-0.3-0.1s-0.2,0-0.3,0c-0.6,0-1.1,0.2-1.4,0.5c-0.3,0.3-0.5,0.9-0.5,1.6v3.3h-1.3
		V24.3z"/>
	<path class="st1" d="M84.3,30.9H83v-1h0c-0.2,0.4-0.6,0.6-1,0.8s-0.9,0.3-1.3,0.3c-0.5,0-1-0.1-1.4-0.3c-0.4-0.2-0.8-0.4-1.1-0.7
		s-0.5-0.7-0.7-1.1c-0.2-0.4-0.2-0.9-0.2-1.4c0-0.5,0.1-1,0.2-1.4c0.2-0.4,0.4-0.8,0.7-1.1s0.6-0.6,1.1-0.7c0.4-0.2,0.9-0.3,1.4-0.3
		c0.5,0,0.9,0.1,1.3,0.3c0.4,0.2,0.7,0.5,1,0.8h0v-4.9h1.3V30.9z M80.9,29.9c0.3,0,0.6-0.1,0.9-0.2c0.3-0.1,0.5-0.3,0.7-0.5
		c0.2-0.2,0.3-0.4,0.4-0.7c0.1-0.3,0.2-0.6,0.2-0.9s-0.1-0.6-0.2-0.9c-0.1-0.3-0.2-0.5-0.4-0.7c-0.2-0.2-0.4-0.4-0.7-0.5
		c-0.3-0.1-0.6-0.2-0.9-0.2c-0.3,0-0.6,0.1-0.9,0.2c-0.3,0.1-0.5,0.3-0.7,0.5c-0.2,0.2-0.3,0.4-0.4,0.7c-0.1,0.3-0.2,0.6-0.2,0.9
		s0.1,0.6,0.2,0.9c0.1,0.3,0.2,0.5,0.4,0.7c0.2,0.2,0.4,0.4,0.7,0.5C80.2,29.8,80.5,29.9,80.9,29.9z"/>
	<path class="st1" d="M90.4,21h3.5c0.6,0,1.2,0.1,1.6,0.3c0.4,0.2,0.7,0.4,1,0.7c0.2,0.3,0.4,0.6,0.5,0.9c0.1,0.3,0.1,0.7,0.1,1
		c0,0.3-0.1,0.6-0.2,0.9s-0.3,0.6-0.5,0.8s-0.5,0.4-0.8,0.6c-0.3,0.2-0.6,0.3-1,0.3l2.8,4.5h-1.7l-2.5-4.4h-1.5v4.4h-1.3V21z
		 M91.8,25.4h1.8c0.3,0,0.5,0,0.8-0.1c0.3,0,0.5-0.1,0.7-0.2c0.2-0.1,0.4-0.3,0.5-0.5c0.1-0.2,0.2-0.5,0.2-0.8s-0.1-0.6-0.2-0.8
		c-0.1-0.2-0.3-0.4-0.5-0.5c-0.2-0.1-0.4-0.2-0.7-0.2c-0.3,0-0.5-0.1-0.8-0.1h-1.8V25.4z"/>
	<path class="st1" d="M98.3,27.6c0-0.5,0.1-0.9,0.3-1.4c0.2-0.4,0.4-0.8,0.7-1.1s0.7-0.6,1.1-0.7c0.4-0.2,0.9-0.3,1.4-0.3
		c0.5,0,1,0.1,1.4,0.3c0.4,0.2,0.8,0.4,1.1,0.7c0.3,0.3,0.6,0.7,0.7,1.1s0.3,0.9,0.3,1.4c0,0.5-0.1,0.9-0.3,1.4s-0.4,0.8-0.7,1.1
		c-0.3,0.3-0.7,0.6-1.1,0.7c-0.4,0.2-0.9,0.3-1.4,0.3c-0.5,0-1-0.1-1.4-0.3c-0.4-0.2-0.8-0.4-1.1-0.7s-0.6-0.7-0.7-1.1
		C98.4,28.5,98.3,28.1,98.3,27.6z M99.7,27.6c0,0.3,0.1,0.6,0.2,0.9c0.1,0.3,0.2,0.5,0.4,0.7c0.2,0.2,0.4,0.4,0.7,0.5
		c0.3,0.1,0.6,0.2,0.9,0.2c0.3,0,0.6-0.1,0.9-0.2c0.3-0.1,0.5-0.3,0.7-0.5c0.2-0.2,0.3-0.4,0.4-0.7c0.1-0.3,0.2-0.6,0.2-0.9
		s-0.1-0.6-0.2-0.9c-0.1-0.3-0.2-0.5-0.4-0.7c-0.2-0.2-0.4-0.4-0.7-0.5c-0.3-0.1-0.6-0.2-0.9-0.2c-0.3,0-0.6,0.1-0.9,0.2
		c-0.3,0.1-0.5,0.3-0.7,0.5c-0.2,0.2-0.3,0.4-0.4,0.7C99.7,26.9,99.7,27.2,99.7,27.6z"/>
	<path class="st1" d="M106.2,24.3h1.5l2,5.2h0l1.9-5.2h1.3l-3.2,8.1c-0.1,0.3-0.2,0.6-0.3,0.8c-0.1,0.2-0.3,0.4-0.4,0.6
		c-0.2,0.2-0.4,0.3-0.6,0.4c-0.2,0.1-0.5,0.1-0.9,0.1c-0.2,0-0.4,0-0.6,0s-0.4-0.1-0.6-0.1l0.2-1.1c0.3,0.1,0.5,0.2,0.8,0.2
		c0.2,0,0.4,0,0.5-0.1c0.1-0.1,0.2-0.1,0.3-0.2c0.1-0.1,0.2-0.2,0.2-0.3c0.1-0.1,0.1-0.3,0.2-0.4l0.4-1L106.2,24.3z"/>
	<path class="st1" d="M114,25.1c0.4-0.3,0.8-0.6,1.2-0.7c0.5-0.2,0.9-0.2,1.4-0.2c0.5,0,0.9,0.1,1.3,0.2c0.3,0.1,0.6,0.3,0.9,0.5
		s0.4,0.4,0.5,0.7c0.1,0.3,0.2,0.5,0.2,0.8v3.4c0,0.2,0,0.4,0,0.6c0,0.2,0,0.4,0,0.6h-1.1c0-0.3,0-0.7,0-1h0c-0.3,0.4-0.6,0.7-1,0.9
		c-0.4,0.2-0.8,0.3-1.3,0.3c-0.3,0-0.6,0-0.9-0.1c-0.3-0.1-0.5-0.2-0.7-0.4s-0.4-0.4-0.5-0.6c-0.1-0.2-0.2-0.5-0.2-0.9
		c0-0.4,0.1-0.8,0.3-1.1c0.2-0.3,0.5-0.5,0.8-0.7c0.3-0.2,0.7-0.3,1.2-0.4s0.9-0.1,1.4-0.1h0.9v-0.3c0-0.2,0-0.3-0.1-0.5
		s-0.2-0.3-0.3-0.5c-0.1-0.1-0.3-0.2-0.5-0.3c-0.2-0.1-0.4-0.1-0.7-0.1c-0.2,0-0.5,0-0.6,0.1c-0.2,0-0.3,0.1-0.5,0.2
		c-0.1,0.1-0.3,0.2-0.4,0.2c-0.1,0.1-0.2,0.2-0.4,0.3L114,25.1z M117.6,27.7c-0.3,0-0.6,0-0.9,0c-0.3,0-0.6,0.1-0.9,0.2
		c-0.3,0.1-0.5,0.2-0.6,0.4c-0.2,0.2-0.2,0.4-0.2,0.6c0,0.4,0.1,0.7,0.4,0.8s0.6,0.3,1,0.3c0.3,0,0.6-0.1,0.9-0.2
		c0.2-0.1,0.4-0.3,0.6-0.5c0.1-0.2,0.3-0.4,0.3-0.6s0.1-0.5,0.1-0.7v-0.4H117.6z"/>
	<path class="st1" d="M121.3,20.3h1.3v10.6h-1.3V20.3z"/>
	<path class="st1" d="M135.7,23.1c-0.3-0.4-0.6-0.6-1.1-0.8c-0.4-0.2-0.9-0.3-1.3-0.3c-0.6,0-1.1,0.1-1.5,0.3
		c-0.5,0.2-0.8,0.5-1.2,0.9c-0.3,0.4-0.6,0.8-0.7,1.3c-0.2,0.5-0.3,1-0.3,1.6c0,0.5,0.1,1,0.3,1.5s0.4,0.9,0.7,1.2
		c0.3,0.4,0.7,0.6,1.2,0.8c0.5,0.2,1,0.3,1.6,0.3c0.6,0,1.1-0.1,1.5-0.4c0.4-0.2,0.8-0.6,1.1-1l1.1,0.9c-0.1,0.1-0.2,0.2-0.4,0.4
		c-0.2,0.2-0.4,0.4-0.7,0.6s-0.7,0.4-1.1,0.5c-0.4,0.1-0.9,0.2-1.5,0.2c-0.8,0-1.5-0.1-2.1-0.4c-0.6-0.3-1.2-0.7-1.6-1.2
		s-0.8-1-1-1.6s-0.3-1.2-0.3-1.9c0-0.8,0.1-1.5,0.4-2.1c0.3-0.6,0.6-1.2,1.1-1.7s1-0.8,1.6-1.1c0.6-0.3,1.3-0.4,2.1-0.4
		c0.7,0,1.3,0.1,1.9,0.4s1.1,0.6,1.5,1.2L135.7,23.1z"/>
	<path class="st1" d="M138.4,25.1c0.4-0.3,0.8-0.6,1.2-0.7c0.5-0.2,0.9-0.2,1.4-0.2c0.5,0,0.9,0.1,1.3,0.2c0.3,0.1,0.6,0.3,0.9,0.5
		c0.2,0.2,0.4,0.4,0.5,0.7c0.1,0.3,0.2,0.5,0.2,0.8v3.4c0,0.2,0,0.4,0,0.6c0,0.2,0,0.4,0,0.6h-1.1c0-0.3,0-0.7,0-1h0
		c-0.3,0.4-0.6,0.7-1,0.9c-0.4,0.2-0.8,0.3-1.3,0.3c-0.3,0-0.6,0-0.9-0.1s-0.5-0.2-0.7-0.4s-0.4-0.4-0.5-0.6
		c-0.1-0.2-0.2-0.5-0.2-0.9c0-0.4,0.1-0.8,0.3-1.1c0.2-0.3,0.5-0.5,0.8-0.7c0.3-0.2,0.7-0.3,1.2-0.4s0.9-0.1,1.4-0.1h0.9v-0.3
		c0-0.2,0-0.3-0.1-0.5c-0.1-0.2-0.2-0.3-0.3-0.5c-0.1-0.1-0.3-0.2-0.5-0.3s-0.4-0.1-0.7-0.1c-0.2,0-0.5,0-0.6,0.1
		c-0.2,0-0.3,0.1-0.5,0.2c-0.1,0.1-0.3,0.2-0.4,0.2c-0.1,0.1-0.2,0.2-0.3,0.3L138.4,25.1z M141.9,27.7c-0.3,0-0.6,0-0.9,0
		c-0.3,0-0.6,0.1-0.9,0.2c-0.3,0.1-0.5,0.2-0.6,0.4c-0.2,0.2-0.2,0.4-0.2,0.6c0,0.4,0.1,0.7,0.4,0.8c0.3,0.2,0.6,0.3,1,0.3
		c0.3,0,0.6-0.1,0.9-0.2c0.2-0.1,0.4-0.3,0.6-0.5s0.3-0.4,0.3-0.6c0.1-0.2,0.1-0.5,0.1-0.7v-0.4H141.9z"/>
	<path class="st1" d="M145.6,24.3h1.3v1h0c0.1-0.2,0.2-0.3,0.3-0.5c0.1-0.1,0.3-0.3,0.5-0.4s0.4-0.2,0.6-0.2
		c0.2-0.1,0.4-0.1,0.6-0.1c0.2,0,0.4,0,0.6,0.1l-0.1,1.4c-0.1,0-0.2-0.1-0.3-0.1s-0.2,0-0.3,0c-0.6,0-1.1,0.2-1.4,0.5
		c-0.3,0.3-0.5,0.9-0.5,1.6v3.3h-1.3V24.3z"/>
	<path class="st1" d="M150.6,21.9c0-0.3,0.1-0.5,0.3-0.7c0.2-0.2,0.4-0.3,0.7-0.3s0.5,0.1,0.7,0.3s0.3,0.4,0.3,0.7s-0.1,0.5-0.3,0.7
		c-0.2,0.2-0.4,0.3-0.7,0.3s-0.5-0.1-0.7-0.3C150.7,22.4,150.6,22.1,150.6,21.9z M150.9,24.3h1.3v6.6h-1.3V24.3z"/>
	<path class="st1" d="M154.1,20.3h1.3v4.9h0c0.2-0.3,0.5-0.6,1-0.8c0.4-0.2,0.9-0.3,1.3-0.3c0.5,0,1,0.1,1.4,0.3
		c0.4,0.2,0.8,0.4,1.1,0.7s0.5,0.7,0.7,1.1c0.2,0.4,0.2,0.9,0.2,1.4c0,0.5-0.1,1-0.2,1.4c-0.2,0.4-0.4,0.8-0.7,1.1s-0.6,0.6-1.1,0.7
		c-0.4,0.2-0.9,0.3-1.4,0.3c-0.4,0-0.9-0.1-1.3-0.3s-0.8-0.5-1-0.8h0v1h-1.3V20.3z M157.6,29.9c0.3,0,0.6-0.1,0.9-0.2
		c0.3-0.1,0.5-0.3,0.7-0.5c0.2-0.2,0.3-0.4,0.4-0.7c0.1-0.3,0.2-0.6,0.2-0.9s-0.1-0.6-0.2-0.9c-0.1-0.3-0.2-0.5-0.4-0.7
		c-0.2-0.2-0.4-0.4-0.7-0.5c-0.3-0.1-0.6-0.2-0.9-0.2c-0.3,0-0.6,0.1-0.9,0.2c-0.3,0.1-0.5,0.3-0.7,0.5c-0.2,0.2-0.3,0.4-0.4,0.7
		c-0.1,0.3-0.2,0.6-0.2,0.9s0.1,0.6,0.2,0.9c0.1,0.3,0.2,0.5,0.4,0.7c0.2,0.2,0.4,0.4,0.7,0.5C157,29.8,157.3,29.9,157.6,29.9z"/>
	<path class="st1" d="M162.7,20.3h1.3v4.9h0c0.2-0.3,0.5-0.6,1-0.8c0.4-0.2,0.9-0.3,1.3-0.3c0.5,0,1,0.1,1.4,0.3
		c0.4,0.2,0.8,0.4,1.1,0.7s0.5,0.7,0.7,1.1c0.2,0.4,0.2,0.9,0.2,1.4c0,0.5-0.1,1-0.2,1.4c-0.2,0.4-0.4,0.8-0.7,1.1s-0.6,0.6-1.1,0.7
		c-0.4,0.2-0.9,0.3-1.4,0.3c-0.4,0-0.9-0.1-1.3-0.3s-0.8-0.5-1-0.8h0v1h-1.3V20.3z M166.1,29.9c0.3,0,0.6-0.1,0.9-0.2
		c0.3-0.1,0.5-0.3,0.7-0.5c0.2-0.2,0.3-0.4,0.4-0.7c0.1-0.3,0.2-0.6,0.2-0.9s-0.1-0.6-0.2-0.9c-0.1-0.3-0.2-0.5-0.4-0.7
		c-0.2-0.2-0.4-0.4-0.7-0.5c-0.3-0.1-0.6-0.2-0.9-0.2c-0.3,0-0.6,0.1-0.9,0.2c-0.3,0.1-0.5,0.3-0.7,0.5c-0.2,0.2-0.3,0.4-0.4,0.7
		c-0.1,0.3-0.2,0.6-0.2,0.9s0.1,0.6,0.2,0.9c0.1,0.3,0.2,0.5,0.4,0.7c0.2,0.2,0.4,0.4,0.7,0.5C165.5,29.8,165.8,29.9,166.1,29.9z"/>
	<path class="st1" d="M172.2,28c0,0.3,0.1,0.6,0.2,0.8c0.1,0.2,0.3,0.4,0.5,0.6s0.4,0.3,0.7,0.4c0.3,0.1,0.6,0.1,0.8,0.1
		c0.4,0,0.7-0.1,1-0.3c0.3-0.2,0.6-0.4,0.8-0.7l1,0.7c-0.7,0.9-1.7,1.4-2.9,1.4c-0.5,0-1-0.1-1.4-0.3c-0.4-0.2-0.8-0.4-1.1-0.7
		c-0.3-0.3-0.5-0.7-0.7-1.1c-0.2-0.4-0.2-0.9-0.2-1.4c0-0.5,0.1-1,0.3-1.4c0.2-0.4,0.4-0.8,0.7-1.1c0.3-0.3,0.7-0.6,1.1-0.7
		c0.4-0.2,0.9-0.3,1.4-0.3c0.6,0,1.1,0.1,1.5,0.3c0.4,0.2,0.7,0.5,1,0.8c0.3,0.3,0.5,0.7,0.6,1.1c0.1,0.4,0.2,0.8,0.2,1.3V28H172.2z
		 M176.2,27c0-0.3-0.1-0.5-0.1-0.8s-0.2-0.4-0.4-0.6c-0.2-0.2-0.4-0.3-0.6-0.4c-0.2-0.1-0.5-0.1-0.8-0.1c-0.3,0-0.6,0.1-0.8,0.2
		c-0.3,0.1-0.5,0.3-0.7,0.5s-0.3,0.4-0.4,0.6c-0.1,0.2-0.1,0.5-0.1,0.7H176.2z"/>
	<path class="st1" d="M179.1,25.1c0.4-0.3,0.8-0.6,1.2-0.7c0.5-0.2,0.9-0.2,1.4-0.2c0.5,0,0.9,0.1,1.3,0.2c0.3,0.1,0.6,0.3,0.9,0.5
		c0.2,0.2,0.4,0.4,0.5,0.7c0.1,0.3,0.2,0.5,0.2,0.8v3.4c0,0.2,0,0.4,0,0.6c0,0.2,0,0.4,0,0.6h-1.1c0-0.3,0-0.7,0-1h0
		c-0.3,0.4-0.6,0.7-1,0.9c-0.4,0.2-0.8,0.3-1.3,0.3c-0.3,0-0.6,0-0.9-0.1s-0.5-0.2-0.7-0.4s-0.4-0.4-0.5-0.6
		c-0.1-0.2-0.2-0.5-0.2-0.9c0-0.4,0.1-0.8,0.3-1.1c0.2-0.3,0.5-0.5,0.8-0.7c0.3-0.2,0.7-0.3,1.2-0.4s0.9-0.1,1.4-0.1h0.9v-0.3
		c0-0.2,0-0.3-0.1-0.5c-0.1-0.2-0.2-0.3-0.3-0.5c-0.1-0.1-0.3-0.2-0.5-0.3s-0.4-0.1-0.7-0.1c-0.2,0-0.5,0-0.6,0.1
		c-0.2,0-0.3,0.1-0.5,0.2c-0.1,0.1-0.3,0.2-0.4,0.2c-0.1,0.1-0.2,0.2-0.3,0.3L179.1,25.1z M182.6,27.7c-0.3,0-0.6,0-0.9,0
		c-0.3,0-0.6,0.1-0.9,0.2c-0.3,0.1-0.5,0.2-0.6,0.4c-0.2,0.2-0.2,0.4-0.2,0.6c0,0.4,0.1,0.7,0.4,0.8c0.3,0.2,0.6,0.3,1,0.3
		c0.3,0,0.6-0.1,0.9-0.2c0.2-0.1,0.4-0.3,0.6-0.5s0.3-0.4,0.3-0.6c0.1-0.2,0.1-0.5,0.1-0.7v-0.4H182.6z"/>
	<path class="st1" d="M186.3,24.3h1.3v1h0c0.2-0.4,0.4-0.6,0.8-0.9c0.4-0.2,0.8-0.3,1.4-0.3c0.3,0,0.6,0,0.9,0.1
		c0.3,0.1,0.6,0.2,0.8,0.5c0.2,0.2,0.4,0.5,0.5,0.8s0.2,0.7,0.2,1.1v4.3h-1.3V27c0-0.3,0-0.6-0.1-0.8s-0.2-0.4-0.3-0.5
		c-0.1-0.1-0.3-0.2-0.5-0.3s-0.4-0.1-0.6-0.1c-0.3,0-0.5,0-0.7,0.1s-0.4,0.2-0.6,0.4c-0.2,0.2-0.3,0.4-0.4,0.7
		c-0.1,0.3-0.1,0.6-0.1,1v3.4h-1.3V24.3z"/>
	<path class="st1" d="M201.5,25.4h-1.8v3c0,0.2,0,0.4,0,0.6c0,0.2,0,0.3,0.1,0.5c0.1,0.1,0.2,0.3,0.3,0.4s0.3,0.1,0.6,0.1
		c0.1,0,0.3,0,0.5,0c0.2,0,0.3-0.1,0.4-0.2v1.1c-0.1,0.1-0.3,0.1-0.6,0.2c-0.2,0-0.4,0-0.6,0c-0.5,0-0.9-0.1-1.1-0.2
		c-0.3-0.1-0.5-0.3-0.6-0.5s-0.2-0.5-0.2-0.7c0-0.3,0-0.5,0-0.8v-3.5H197v-1.1h1.5v-1.9h1.3v1.9h1.8V25.4z"/>
	<path class="st1" d="M202.8,27.6c0-0.5,0.1-0.9,0.3-1.4c0.2-0.4,0.4-0.8,0.7-1.1c0.3-0.3,0.7-0.6,1.1-0.7c0.4-0.2,0.9-0.3,1.4-0.3
		c0.5,0,1,0.1,1.4,0.3c0.4,0.2,0.8,0.4,1.1,0.7s0.6,0.7,0.7,1.1s0.3,0.9,0.3,1.4c0,0.5-0.1,0.9-0.3,1.4s-0.4,0.8-0.7,1.1
		s-0.7,0.6-1.1,0.7c-0.4,0.2-0.9,0.3-1.4,0.3c-0.5,0-1-0.1-1.4-0.3c-0.4-0.2-0.8-0.4-1.1-0.7c-0.3-0.3-0.6-0.7-0.7-1.1
		C202.9,28.5,202.8,28.1,202.8,27.6z M204.2,27.6c0,0.3,0.1,0.6,0.2,0.9c0.1,0.3,0.2,0.5,0.4,0.7c0.2,0.2,0.4,0.4,0.7,0.5
		c0.3,0.1,0.6,0.2,0.9,0.2s0.6-0.1,0.9-0.2c0.3-0.1,0.5-0.3,0.7-0.5c0.2-0.2,0.3-0.4,0.4-0.7c0.1-0.3,0.2-0.6,0.2-0.9
		s-0.1-0.6-0.2-0.9c-0.1-0.3-0.2-0.5-0.4-0.7c-0.2-0.2-0.4-0.4-0.7-0.5c-0.3-0.1-0.6-0.2-0.9-0.2s-0.6,0.1-0.9,0.2
		c-0.3,0.1-0.5,0.3-0.7,0.5c-0.2,0.2-0.3,0.4-0.4,0.7C204.2,26.9,204.2,27.2,204.2,27.6z"/>
	<path class="st1" d="M220.1,26c-0.2-0.2-0.5-0.4-0.7-0.6s-0.6-0.2-0.9-0.2c-0.3,0-0.6,0.1-0.9,0.2s-0.5,0.3-0.6,0.5
		c-0.2,0.2-0.3,0.5-0.4,0.8c-0.1,0.3-0.1,0.6-0.1,0.9c0,0.3,0.1,0.6,0.2,0.9s0.2,0.5,0.4,0.7c0.2,0.2,0.4,0.4,0.7,0.5
		c0.3,0.1,0.6,0.2,0.9,0.2c0.4,0,0.7-0.1,0.9-0.2s0.5-0.3,0.7-0.6L221,30c-0.3,0.4-0.7,0.6-1.1,0.8c-0.4,0.2-0.9,0.2-1.4,0.2
		c-0.5,0-1-0.1-1.4-0.3c-0.4-0.2-0.8-0.4-1.1-0.7c-0.3-0.3-0.5-0.7-0.7-1.1s-0.3-0.9-0.3-1.4c0-0.5,0.1-1,0.3-1.4
		c0.2-0.4,0.4-0.8,0.7-1.1c0.3-0.3,0.7-0.5,1.1-0.7c0.4-0.2,0.9-0.3,1.4-0.3c0.5,0,1,0.1,1.4,0.3c0.4,0.2,0.8,0.4,1.2,0.8L220.1,26z
		"/>
	<path class="st1" d="M222.2,20.3h1.3v10.6h-1.3V20.3z"/>
	<path class="st1" d="M225.5,25.1c0.4-0.3,0.8-0.6,1.2-0.7c0.5-0.2,0.9-0.2,1.4-0.2c0.5,0,0.9,0.1,1.3,0.2c0.3,0.1,0.6,0.3,0.9,0.5
		c0.2,0.2,0.4,0.4,0.5,0.7c0.1,0.3,0.2,0.5,0.2,0.8v3.4c0,0.2,0,0.4,0,0.6c0,0.2,0,0.4,0,0.6h-1.1c0-0.3,0-0.7,0-1h0
		c-0.3,0.4-0.6,0.7-1,0.9c-0.4,0.2-0.8,0.3-1.3,0.3c-0.3,0-0.6,0-0.9-0.1s-0.5-0.2-0.7-0.4s-0.4-0.4-0.5-0.6
		c-0.1-0.2-0.2-0.5-0.2-0.9c0-0.4,0.1-0.8,0.3-1.1c0.2-0.3,0.5-0.5,0.8-0.7c0.3-0.2,0.7-0.3,1.2-0.4s0.9-0.1,1.4-0.1h0.9v-0.3
		c0-0.2,0-0.3-0.1-0.5c-0.1-0.2-0.2-0.3-0.3-0.5c-0.1-0.1-0.3-0.2-0.5-0.3s-0.4-0.1-0.7-0.1c-0.2,0-0.5,0-0.6,0.1
		c-0.2,0-0.3,0.1-0.5,0.2c-0.1,0.1-0.3,0.2-0.4,0.2c-0.1,0.1-0.2,0.2-0.3,0.3L225.5,25.1z M229.1,27.7c-0.3,0-0.6,0-0.9,0
		c-0.3,0-0.6,0.1-0.9,0.2c-0.3,0.1-0.5,0.2-0.6,0.4c-0.2,0.2-0.2,0.4-0.2,0.6c0,0.4,0.1,0.7,0.4,0.8c0.3,0.2,0.6,0.3,1,0.3
		c0.3,0,0.6-0.1,0.9-0.2c0.2-0.1,0.4-0.3,0.6-0.5s0.3-0.4,0.3-0.6c0.1-0.2,0.1-0.5,0.1-0.7v-0.4H229.1z"/>
	<path class="st1" d="M232.5,21.9c0-0.3,0.1-0.5,0.3-0.7c0.2-0.2,0.4-0.3,0.7-0.3s0.5,0.1,0.7,0.3s0.3,0.4,0.3,0.7s-0.1,0.5-0.3,0.7
		c-0.2,0.2-0.4,0.3-0.7,0.3s-0.5-0.1-0.7-0.3C232.6,22.4,232.5,22.1,232.5,21.9z M232.8,24.3h1.3v6.6h-1.3V24.3z"/>
	<path class="st1" d="M236.1,24.3h1.2v1h0c0-0.1,0.1-0.2,0.2-0.4c0.1-0.1,0.3-0.3,0.4-0.4c0.2-0.1,0.4-0.2,0.6-0.3s0.5-0.1,0.8-0.1
		c0.5,0,0.9,0.1,1.2,0.3s0.6,0.5,0.8,0.9c0.2-0.4,0.5-0.7,0.9-0.9c0.4-0.2,0.8-0.3,1.2-0.3c0.5,0,0.9,0.1,1.3,0.3
		c0.3,0.2,0.6,0.4,0.8,0.7c0.2,0.3,0.3,0.6,0.4,0.9c0.1,0.4,0.1,0.7,0.1,1.1v3.9h-1.3v-3.7c0-0.3,0-0.5,0-0.7c0-0.2-0.1-0.4-0.2-0.6
		c-0.1-0.2-0.2-0.3-0.4-0.4c-0.2-0.1-0.4-0.2-0.7-0.2c-0.6,0-1,0.2-1.3,0.6c-0.3,0.4-0.4,0.9-0.4,1.4v3.6h-1.3v-3.5
		c0-0.3,0-0.6,0-0.9c0-0.3-0.1-0.5-0.2-0.7s-0.2-0.3-0.4-0.4s-0.4-0.2-0.7-0.2c-0.2,0-0.4,0-0.7,0.1s-0.4,0.2-0.6,0.4
		c-0.2,0.2-0.3,0.4-0.4,0.7c-0.1,0.3-0.1,0.6-0.1,1v3.4h-1.3V24.3z"/>
	<path class="st1" d="M251.1,24.3h1.5l2,5.2h0l1.9-5.2h1.3l-3.1,8.1c-0.1,0.3-0.2,0.6-0.3,0.8c-0.1,0.2-0.3,0.4-0.4,0.6
		s-0.4,0.3-0.6,0.4c-0.2,0.1-0.5,0.1-0.9,0.1c-0.2,0-0.4,0-0.6,0c-0.2,0-0.4-0.1-0.6-0.1l0.2-1.1c0.2,0.1,0.5,0.2,0.8,0.2
		c0.2,0,0.4,0,0.5-0.1c0.1-0.1,0.3-0.1,0.3-0.2c0.1-0.1,0.2-0.2,0.2-0.3c0.1-0.1,0.1-0.3,0.2-0.4l0.4-1L251.1,24.3z"/>
	<path class="st1" d="M258.6,27.6c0-0.5,0.1-0.9,0.3-1.4c0.2-0.4,0.4-0.8,0.7-1.1c0.3-0.3,0.7-0.6,1.1-0.7c0.4-0.2,0.9-0.3,1.4-0.3
		c0.5,0,1,0.1,1.4,0.3c0.4,0.2,0.8,0.4,1.1,0.7s0.6,0.7,0.7,1.1s0.3,0.9,0.3,1.4c0,0.5-0.1,0.9-0.3,1.4s-0.4,0.8-0.7,1.1
		s-0.7,0.6-1.1,0.7c-0.4,0.2-0.9,0.3-1.4,0.3c-0.5,0-1-0.1-1.4-0.3c-0.4-0.2-0.8-0.4-1.1-0.7c-0.3-0.3-0.6-0.7-0.7-1.1
		C258.7,28.5,258.6,28.1,258.6,27.6z M259.9,27.6c0,0.3,0.1,0.6,0.2,0.9c0.1,0.3,0.2,0.5,0.4,0.7c0.2,0.2,0.4,0.4,0.7,0.5
		c0.3,0.1,0.6,0.2,0.9,0.2s0.6-0.1,0.9-0.2c0.3-0.1,0.5-0.3,0.7-0.5c0.2-0.2,0.3-0.4,0.4-0.7c0.1-0.3,0.2-0.6,0.2-0.9
		s-0.1-0.6-0.2-0.9c-0.1-0.3-0.2-0.5-0.4-0.7c-0.2-0.2-0.4-0.4-0.7-0.5c-0.3-0.1-0.6-0.2-0.9-0.2s-0.6,0.1-0.9,0.2
		c-0.3,0.1-0.5,0.3-0.7,0.5c-0.2,0.2-0.3,0.4-0.4,0.7C260,26.9,259.9,27.2,259.9,27.6z"/>
	<path class="st1" d="M273.1,30.9h-1.3v-1h0c-0.2,0.4-0.4,0.6-0.8,0.9c-0.4,0.2-0.8,0.3-1.4,0.3c-0.3,0-0.6,0-0.9-0.1
		c-0.3-0.1-0.5-0.2-0.8-0.5c-0.2-0.2-0.4-0.5-0.5-0.8c-0.1-0.3-0.2-0.7-0.2-1.1v-4.3h1.3v3.9c0,0.3,0,0.6,0.1,0.8
		c0.1,0.2,0.2,0.4,0.3,0.5c0.1,0.1,0.3,0.2,0.5,0.3c0.2,0.1,0.4,0.1,0.6,0.1c0.3,0,0.5,0,0.7-0.1c0.2-0.1,0.4-0.2,0.6-0.4
		c0.2-0.2,0.3-0.4,0.4-0.7c0.1-0.3,0.1-0.6,0.1-1v-3.4h1.3V30.9z"/>
	<path class="st1" d="M275,24.3h1.3v1h0c0.1-0.2,0.2-0.3,0.3-0.5c0.1-0.1,0.3-0.3,0.5-0.4s0.4-0.2,0.6-0.2c0.2-0.1,0.4-0.1,0.6-0.1
		c0.2,0,0.4,0,0.6,0.1l-0.1,1.4c-0.1,0-0.2-0.1-0.3-0.1s-0.2,0-0.3,0c-0.6,0-1.1,0.2-1.4,0.5c-0.3,0.3-0.5,0.9-0.5,1.6v3.3H275V24.3
		z"/>
	<path class="st1" d="M284.1,24.3h1.3v1h0c0.2-0.4,0.6-0.6,1-0.8c0.4-0.2,0.9-0.3,1.3-0.3c0.5,0,1,0.1,1.4,0.3
		c0.4,0.2,0.8,0.4,1.1,0.7s0.5,0.7,0.7,1.1c0.2,0.4,0.2,0.9,0.2,1.4c0,0.5-0.1,1-0.2,1.4c-0.2,0.4-0.4,0.8-0.7,1.1s-0.6,0.6-1.1,0.7
		c-0.4,0.2-0.9,0.3-1.4,0.3c-0.5,0-0.9-0.1-1.3-0.3c-0.4-0.2-0.7-0.5-1-0.8h0v4.9h-1.3V24.3z M287.5,25.3c-0.3,0-0.6,0.1-0.9,0.2
		c-0.3,0.1-0.5,0.3-0.7,0.5c-0.2,0.2-0.3,0.4-0.4,0.7c-0.1,0.3-0.2,0.6-0.2,0.9s0.1,0.6,0.2,0.9c0.1,0.3,0.2,0.5,0.4,0.7
		c0.2,0.2,0.4,0.4,0.7,0.5c0.3,0.1,0.6,0.2,0.9,0.2c0.3,0,0.6-0.1,0.9-0.2c0.3-0.1,0.5-0.3,0.7-0.5c0.2-0.2,0.3-0.4,0.4-0.7
		c0.1-0.3,0.2-0.6,0.2-0.9s-0.1-0.6-0.2-0.9c-0.1-0.3-0.2-0.5-0.4-0.7c-0.2-0.2-0.4-0.4-0.7-0.5C288.2,25.3,287.9,25.3,287.5,25.3z"
		/>
	<path class="st1" d="M292.6,24.3h1.3v1h0c0.1-0.2,0.2-0.3,0.3-0.5c0.1-0.1,0.3-0.3,0.5-0.4s0.4-0.2,0.6-0.2
		c0.2-0.1,0.4-0.1,0.6-0.1c0.2,0,0.4,0,0.6,0.1l-0.1,1.4c-0.1,0-0.2-0.1-0.3-0.1s-0.2,0-0.3,0c-0.6,0-1.1,0.2-1.4,0.5
		c-0.3,0.3-0.5,0.9-0.5,1.6v3.3h-1.3V24.3z"/>
	<path class="st1" d="M297.6,21.9c0-0.3,0.1-0.5,0.3-0.7c0.2-0.2,0.4-0.3,0.7-0.3s0.5,0.1,0.7,0.3s0.3,0.4,0.3,0.7s-0.1,0.5-0.3,0.7
		c-0.2,0.2-0.4,0.3-0.7,0.3s-0.5-0.1-0.7-0.3C297.7,22.4,297.6,22.1,297.6,21.9z M297.9,24.3h1.3v6.6h-1.3V24.3z"/>
	<path class="st1" d="M300.7,29.8l3.8-4.4h-3.6v-1.1h5.2v1.1l-3.8,4.4h4v1.1h-5.5V29.8z"/>
	<path class="st1" d="M308.6,28c0,0.3,0.1,0.6,0.2,0.8c0.1,0.2,0.3,0.4,0.5,0.6s0.4,0.3,0.7,0.4c0.3,0.1,0.6,0.1,0.8,0.1
		c0.4,0,0.7-0.1,1-0.3c0.3-0.2,0.6-0.4,0.8-0.7l1,0.7c-0.7,0.9-1.7,1.4-2.9,1.4c-0.5,0-1-0.1-1.4-0.3c-0.4-0.2-0.8-0.4-1.1-0.7
		c-0.3-0.3-0.5-0.7-0.7-1.1c-0.2-0.4-0.2-0.9-0.2-1.4c0-0.5,0.1-1,0.3-1.4c0.2-0.4,0.4-0.8,0.7-1.1c0.3-0.3,0.7-0.6,1.1-0.7
		c0.4-0.2,0.9-0.3,1.4-0.3c0.6,0,1.1,0.1,1.5,0.3c0.4,0.2,0.7,0.5,1,0.8c0.3,0.3,0.5,0.7,0.6,1.1c0.1,0.4,0.2,0.8,0.2,1.3V28H308.6z
		 M312.6,27c0-0.3-0.1-0.5-0.1-0.8s-0.2-0.4-0.4-0.6c-0.2-0.2-0.4-0.3-0.6-0.4c-0.2-0.1-0.5-0.1-0.8-0.1c-0.3,0-0.6,0.1-0.8,0.2
		c-0.3,0.1-0.5,0.3-0.7,0.5s-0.3,0.4-0.4,0.6c-0.1,0.2-0.1,0.5-0.1,0.7H312.6z"/>
	<path class="st1" d="M315.5,30.1c0-0.3,0.1-0.5,0.3-0.7c0.2-0.2,0.4-0.3,0.7-0.3s0.5,0.1,0.7,0.3c0.2,0.2,0.3,0.4,0.3,0.7
		s-0.1,0.5-0.3,0.7c-0.2,0.2-0.4,0.3-0.7,0.3s-0.5-0.1-0.7-0.3C315.6,30.5,315.5,30.3,315.5,30.1z M317.1,28h-1.3V21h1.3V28z"/>
</g>
</svg>
