<?xml version="1.0" encoding="utf-8"?>
<!-- Generator: Adobe Illustrator 27.9.0, SVG Export Plug-In . SVG Version: 6.00 Build 0)  -->
<svg version="1.1" id="Layer_1" xmlns="http://www.w3.org/2000/svg" xmlns:xlink="http://www.w3.org/1999/xlink" x="0px" y="0px"
	 viewBox="0 0 289 197" style="enable-background:new 0 0 289 197;" xml:space="preserve">
<style type="text/css">
	.st0{fill:#DB3144;}
	.st1{fill:#C87A33;}
	.st2{enable-background:new    ;}
	.st3{fill:#F5D881;}
</style>
<g id="Group_3" transform="translate(-70 -470)">
	<path id="Rectangle_4" class="st0" d="M78,470h273c4.4,0,8,3.6,8,8v181c0,4.4-3.6,8-8,8H78c-4.4,0-8-3.6-8-8V478
		C70,473.6,73.6,470,78,470z"/>
	<path id="Rectangle_4_-_Outline" class="st1" d="M78,473c-2.8,0-5,2.2-5,5v181c0,2.8,2.2,5,5,5h273c2.8,0,5-2.2,5-5V478
		c0-2.8-2.2-5-5-5H78 M78,470h273c4.4,0,8,3.6,8,8v181c0,4.4-3.6,8-8,8H78c-4.4,0-8-3.6-8-8V478C70,473.6,73.6,470,78,470z"/>
	<g class="st2">
		<path class="st3" d="M163.4,497.3c-0.1,0.2-0.2,0.4-0.3,0.6l-3.9,7.1l0,2.6c0,1,0.1,1.7,0.3,2.2c-0.1,0.1-0.2,0.2-0.4,0.3
			c-0.2,0.1-0.4,0.1-0.6,0.1c-0.3,0-0.6-0.1-0.8-0.3c-0.2-0.2-0.3-0.4-0.3-0.7V505c0,0-0.1-0.2-0.3-0.4l-3.5-7
			c-0.2-0.4-0.4-0.7-0.8-1c0.1-0.1,0.3-0.3,0.5-0.4c0.2-0.1,0.5-0.2,0.8-0.2c0.3,0,0.6,0.1,0.8,0.2s0.4,0.4,0.5,0.7l3.1,6.8l2.9-6.3
			c0.1-0.3,0.2-0.6,0.2-0.7c0-0.2-0.1-0.4-0.2-0.6c0.3-0.1,0.6-0.2,1-0.2c0.3,0,0.5,0.1,0.6,0.2s0.2,0.4,0.2,0.6
			C163.5,496.9,163.5,497.1,163.4,497.3z"/>
		<path class="st3" d="M166,508.8c-0.8-0.9-1.2-2.2-1.2-3.9c0-1.7,0.4-3,1.2-4c0.8-0.9,2-1.4,3.4-1.4s2.6,0.5,3.4,1.4
			c0.8,0.9,1.2,2.3,1.2,4c0,1.7-0.4,3-1.2,3.9c-0.8,0.9-2,1.4-3.4,1.4S166.8,509.8,166,508.8z M171.4,508.3c0.5-0.8,0.7-1.9,0.7-3.4
			c0-1.5-0.2-2.7-0.7-3.4c-0.5-0.8-1.1-1.2-2-1.2c-0.9,0-1.6,0.4-2,1.2c-0.5,0.8-0.7,1.9-0.7,3.4c0,1.5,0.2,2.6,0.7,3.4
			c0.5,0.8,1.1,1.2,2,1.2C170.3,509.5,171,509.1,171.4,508.3z"/>
		<path class="st3" d="M185.9,509.2c0,0.3-0.1,0.5-0.3,0.7c-0.2,0.2-0.5,0.3-0.9,0.3c-0.5,0-0.9-0.2-1.2-0.5
			c-0.3-0.4-0.4-0.9-0.4-1.6v-0.3c-0.3,0.8-0.7,1.4-1.3,1.8c-0.6,0.4-1.3,0.7-2.1,0.7c-1.1,0-1.9-0.3-2.4-1
			c-0.5-0.6-0.8-1.7-0.8-3.2v-3.9c0-0.9-0.1-1.7-0.3-2.2c0.3-0.3,0.7-0.4,1-0.4c0.3,0,0.6,0.1,0.8,0.3c0.2,0.2,0.3,0.4,0.3,0.7v5.3
			c0,1.3,0.1,2.1,0.4,2.7c0.3,0.5,0.8,0.8,1.5,0.8c0.5,0,0.9-0.2,1.3-0.5c0.4-0.3,0.7-0.9,1-1.6c0.3-0.7,0.4-1.6,0.4-2.7
			c0-1.7,0-2.8,0-3.3c0-0.5-0.1-1-0.3-1.4c0.3-0.3,0.7-0.4,1-0.4c0.3,0,0.5,0.1,0.7,0.3c0.2,0.2,0.3,0.5,0.3,0.8l0,7.2
			c0,0.4,0,0.6,0.1,0.8c0.1,0.2,0.2,0.2,0.4,0.2c0.3,0,0.4-0.1,0.5-0.3C185.8,508.7,185.9,509,185.9,509.2z"/>
		<path class="st3" d="M194.1,500.1c0.4,0.4,0.6,0.9,0.6,1.5c0,0.5-0.1,0.8-0.4,1.1c-0.3,0.3-0.6,0.4-1,0.4c-0.3,0-0.6-0.1-0.7-0.3
			c0.1-0.2,0.2-0.4,0.3-0.6c0.1-0.2,0.1-0.4,0.1-0.7c0-0.8-0.4-1.2-1.1-1.2c-0.6,0-1.1,0.4-1.4,1.2s-0.6,2-0.6,3.5
			c0,1.6,0,2.7,0,3.2c0,0.5,0.1,1,0.3,1.4c-0.1,0.1-0.2,0.2-0.4,0.3c-0.2,0.1-0.4,0.1-0.6,0.1c-0.3,0-0.5-0.1-0.7-0.3
			c-0.2-0.2-0.3-0.5-0.3-0.8V502c0-0.4,0-0.6-0.1-0.8c-0.1-0.2-0.2-0.2-0.4-0.2c-0.3,0-0.4,0.1-0.5,0.3c-0.2-0.2-0.2-0.4-0.2-0.7
			c0-0.3,0.1-0.6,0.3-0.7c0.2-0.2,0.5-0.3,0.9-0.3c0.5,0,0.9,0.2,1.2,0.6c0.3,0.4,0.4,0.9,0.4,1.7c0.2-0.7,0.6-1.3,1-1.7
			s1-0.6,1.6-0.6C193.1,499.5,193.7,499.7,194.1,500.1z"/>
		<path class="st3" d="M210,509.8c-0.3,0.3-0.7,0.4-1,0.4c-0.3,0-0.6-0.1-0.8-0.3c-0.2-0.2-0.3-0.4-0.3-0.7v-5.3
			c0-1.1-0.2-2-0.5-2.5s-0.8-0.8-1.5-0.8c-0.5,0-0.9,0.2-1.3,0.5c-0.4,0.3-0.7,0.8-1,1.5c-0.3,0.7-0.4,1.6-0.4,2.6
			c0,1.7,0,2.8,0,3.3c0,0.5,0.1,1,0.3,1.4c-0.1,0.1-0.2,0.2-0.4,0.3c-0.2,0.1-0.4,0.1-0.6,0.1c-0.3,0-0.6-0.1-0.8-0.3
			s-0.3-0.5-0.3-0.8V502c0-0.4-0.1-0.6-0.1-0.8c-0.1-0.2-0.2-0.2-0.4-0.2c-0.3,0-0.4,0.1-0.5,0.3c-0.2-0.2-0.2-0.4-0.2-0.7
			c0-0.3,0.1-0.6,0.3-0.7c0.2-0.2,0.5-0.3,0.9-0.3c0.5,0,0.9,0.2,1.2,0.6c0.3,0.4,0.4,0.9,0.4,1.6v0.2c0.3-0.8,0.7-1.4,1.3-1.8
			c0.6-0.4,1.3-0.6,2.1-0.6c2.1,0,3.2,1.4,3.2,4.1v3.9C209.7,508.6,209.8,509.4,210,509.8z"/>
		<path class="st3" d="M222.1,509.2c0,0.3-0.1,0.5-0.3,0.7c-0.2,0.2-0.5,0.3-0.9,0.3c-0.5,0-0.9-0.2-1.2-0.5
			c-0.3-0.4-0.4-0.9-0.4-1.6v-0.3c-0.3,0.8-0.7,1.4-1.3,1.8c-0.6,0.4-1.3,0.7-2.1,0.7c-1.1,0-1.9-0.3-2.4-1
			c-0.5-0.6-0.8-1.7-0.8-3.2v-3.9c0-0.9-0.1-1.7-0.3-2.2c0.3-0.3,0.7-0.4,1-0.4c0.3,0,0.6,0.1,0.8,0.3c0.2,0.2,0.3,0.4,0.3,0.7v5.3
			c0,1.3,0.1,2.1,0.4,2.7c0.3,0.5,0.8,0.8,1.5,0.8c0.5,0,0.9-0.2,1.3-0.5c0.4-0.3,0.7-0.9,1-1.6c0.3-0.7,0.4-1.6,0.4-2.7
			c0-1.7,0-2.8,0-3.3c0-0.5-0.1-1-0.3-1.4c0.3-0.3,0.7-0.4,1-0.4c0.3,0,0.5,0.1,0.7,0.3c0.2,0.2,0.3,0.5,0.3,0.8l0,7.2
			c0,0.4,0,0.6,0.1,0.8s0.2,0.2,0.4,0.2c0.3,0,0.4-0.1,0.5-0.3C222,508.7,222.1,509,222.1,509.2z"/>
		<path class="st3" d="M238.8,509.8c-0.3,0.3-0.7,0.4-1,0.4c-0.3,0-0.6-0.1-0.8-0.3c-0.2-0.2-0.3-0.4-0.3-0.7v-5.3
			c0-1.1-0.1-2-0.4-2.5c-0.3-0.6-0.7-0.9-1.4-0.9c-0.4,0-0.8,0.2-1.2,0.5c-0.4,0.3-0.7,0.8-0.9,1.5c-0.3,0.7-0.4,1.5-0.4,2.5v2.6
			c0,0.9,0.1,1.7,0.3,2.2c-0.3,0.3-0.6,0.4-1,0.4c-0.3,0-0.5-0.1-0.7-0.3c-0.2-0.2-0.3-0.4-0.3-0.7l0-5.3c0-1.2-0.1-2-0.4-2.6
			c-0.3-0.6-0.7-0.8-1.4-0.8c-0.4,0-0.8,0.2-1.2,0.5c-0.4,0.3-0.7,0.9-0.9,1.6s-0.4,1.6-0.4,2.7c0,1.6,0,2.7,0,3.2
			c0,0.5,0.1,1,0.3,1.3c-0.3,0.3-0.6,0.4-1,0.4c-0.3,0-0.6-0.1-0.8-0.3c-0.2-0.2-0.3-0.5-0.3-0.8l0-7.1c0-0.3-0.1-0.6-0.2-0.8
			c-0.1-0.2-0.3-0.3-0.5-0.3c-0.1,0-0.3,0-0.4,0.1c-0.1,0.1-0.2,0.2-0.2,0.3c-0.1-0.2-0.2-0.4-0.2-0.7c0-0.3,0.1-0.6,0.4-0.8
			s0.6-0.3,1-0.3c0.6,0,1,0.2,1.3,0.6c0.3,0.4,0.5,1,0.5,1.7v0.2c0.3-0.8,0.7-1.4,1.2-1.9c0.6-0.5,1.2-0.7,2-0.7
			c1.6,0,2.5,0.8,2.9,2.5c0.3-0.8,0.7-1.4,1.2-1.8c0.6-0.4,1.2-0.7,2-0.7c2,0,3,1.4,3,4.1v3.9C238.5,508.5,238.6,509.3,238.8,509.8z
			"/>
		<path class="st3" d="M243.2,509.9c-0.7-0.2-1.3-0.6-1.8-1v-12.5c0-0.3,0.1-0.5,0.3-0.7c0.2-0.2,0.4-0.3,0.7-0.3
			c0.4,0,0.8,0.1,1.1,0.4c-0.2,0.7-0.3,1.8-0.3,3.2l0,3c0.3-0.7,0.7-1.3,1.2-1.8c0.6-0.4,1.3-0.7,2.1-0.7c1.1,0,2,0.4,2.6,1.2
			s0.9,2,0.9,3.7c0,1.8-0.4,3.2-1.1,4.2c-0.7,1-1.9,1.6-3.5,1.6C244.7,510.3,243.9,510.2,243.2,509.9z M247.6,508
			c0.4-0.9,0.6-2.1,0.6-3.5c0-1.3-0.2-2.3-0.5-2.9c-0.3-0.6-0.8-0.9-1.4-0.9c-0.7,0-1.2,0.2-1.7,0.7c-0.4,0.5-0.8,1.1-1,1.8
			c-0.2,0.7-0.3,1.5-0.3,2.2v3.4c0.2,0.2,0.5,0.4,0.9,0.5s0.8,0.2,1.2,0.2C246.4,509.4,247.2,508.9,247.6,508z"/>
		<path class="st3" d="M260.2,507.8c0,0.1,0,0.3-0.1,0.6c-0.2,0.6-0.7,1.1-1.3,1.4c-0.6,0.3-1.4,0.5-2.3,0.5c-1.5,0-2.6-0.5-3.5-1.4
			c-0.8-0.9-1.3-2.2-1.3-3.9c0-1.7,0.4-3,1.3-4c0.8-1,2-1.4,3.6-1.4c1.1,0,2,0.3,2.7,0.8c0.7,0.5,1,1.2,1,2.2c0,1-0.4,1.7-1.2,2.3
			c-0.8,0.5-1.9,0.8-3.3,0.8c-0.7,0-1.4,0-2.1-0.1c0.2,2.5,1.2,3.7,3.3,3.7c0.7,0,1.3-0.1,1.9-0.4c0.5-0.3,0.9-0.7,1.1-1.2
			C260.1,507.4,260.2,507.6,260.2,507.8z M254.4,501.4c-0.5,0.7-0.8,1.8-0.8,3.2c0.3,0,0.7,0.1,1.3,0.1c1,0,1.8-0.2,2.4-0.5
			c0.6-0.4,0.9-1,0.9-2c0-0.7-0.2-1.2-0.5-1.5c-0.4-0.3-0.8-0.4-1.3-0.4C255.6,500.3,254.9,500.7,254.4,501.4z"/>
		<path class="st3" d="M268.9,500.1c0.4,0.4,0.7,0.9,0.7,1.5c0,0.5-0.1,0.8-0.4,1.1c-0.3,0.3-0.6,0.4-1,0.4c-0.3,0-0.6-0.1-0.7-0.3
			c0.1-0.2,0.2-0.4,0.3-0.6c0.1-0.2,0.1-0.4,0.1-0.7c0-0.8-0.4-1.2-1.1-1.2c-0.6,0-1,0.4-1.4,1.2s-0.6,2-0.6,3.5c0,1.6,0,2.7,0,3.2
			c0,0.5,0.1,1,0.3,1.4c-0.1,0.1-0.2,0.2-0.4,0.3c-0.2,0.1-0.4,0.1-0.6,0.1c-0.3,0-0.5-0.1-0.7-0.3c-0.2-0.2-0.3-0.5-0.3-0.8V502
			c0-0.4,0-0.6-0.1-0.8s-0.2-0.2-0.4-0.2c-0.3,0-0.4,0.1-0.5,0.3c-0.2-0.2-0.2-0.4-0.2-0.7c0-0.3,0.1-0.6,0.3-0.7
			c0.2-0.2,0.5-0.3,0.9-0.3c0.5,0,0.9,0.2,1.2,0.6c0.3,0.4,0.4,0.9,0.4,1.7c0.2-0.7,0.6-1.3,1-1.7s1-0.6,1.6-0.6
			C267.9,499.5,268.5,499.7,268.9,500.1z"/>
		<path class="st3" d="M271.9,502.8c-0.2-0.2-0.3-0.5-0.3-0.8c0-0.3,0.1-0.6,0.3-0.8s0.5-0.3,0.8-0.3c0.3,0,0.6,0.1,0.8,0.3
			s0.3,0.5,0.3,0.8c0,0.3-0.1,0.6-0.3,0.8s-0.5,0.3-0.8,0.3C272.4,503.2,272.1,503,271.9,502.8z M271.9,509.9
			c-0.2-0.2-0.3-0.5-0.3-0.8c0-0.3,0.1-0.6,0.3-0.8c0.2-0.2,0.5-0.3,0.8-0.3c0.3,0,0.6,0.1,0.8,0.3c0.2,0.2,0.3,0.5,0.3,0.8
			c0,0.3-0.1,0.6-0.3,0.8s-0.5,0.3-0.8,0.3C272.4,510.3,272.1,510.1,271.9,509.9z"/>
	</g>
</g>
</svg>
